<svg preserveAspectRatio="xMidYMid meet" viewBox="0 0 35.677 35.677" xmlns="http://www.w3.org/2000/svg"><g fill="#ff2d30" stroke="#ff2d30" transform="translate(-180.51 -60.577)"><path d="m209.907 95.754h-23.117a5.775 5.775 0 0 1 -5.78-5.779v-23.119a5.775 5.775 0 0 1 5.78-5.779h23.117a5.775 5.775 0 0 1 5.78 5.779v23.119a5.775 5.775 0 0 1 -5.78 5.779zm-23.117-34a5.092 5.092 0 0 0 -5.1 5.1v23.121a5.093 5.093 0 0 0 5.1 5.1h23.117a5.093 5.093 0 0 0 5.1-5.1v-23.119a5.092 5.092 0 0 0 -5.1-5.1zm9.757 24.375-7.208-8.229.544-.475 6.6 7.548 10.3-16.591.544.34z"/><path d="m209.907 95.754h-23.117a5.775 5.775 0 0 1 -5.78-5.779v-23.119a5.775 5.775 0 0 1 5.78-5.779h23.117a5.775 5.775 0 0 1 5.78 5.779v23.119a5.775 5.775 0 0 1 -5.78 5.779zm-23.117-34a5.092 5.092 0 0 0 -5.1 5.1v23.121a5.093 5.093 0 0 0 5.1 5.1h23.117a5.093 5.093 0 0 0 5.1-5.1v-23.119a5.092 5.092 0 0 0 -5.1-5.1zm9.757 24.375-7.208-8.229.544-.475 6.6 7.548 10.3-16.591.544.34z"/></g></svg>