<svg preserveAspectRatio="xMidYMid meet" viewBox="0 0 32.469 32.469" xmlns="http://www.w3.org/2000/svg"><g fill="none" stroke="#1960aa" transform="translate(-180.51 -60.577)"><path d="m207.233 92.546h-20.978a5.241 5.241 0 0 1 -5.245-5.246v-20.979a5.241 5.241 0 0 1 5.245-5.244h20.978a5.241 5.241 0 0 1 5.245 5.244v20.979a5.241 5.241 0 0 1 -5.245 5.246zm-20.978-30.851a4.621 4.621 0 0 0 -4.628 4.626v20.979a4.622 4.622 0 0 0 4.628 4.627h20.978a4.622 4.622 0 0 0 4.628-4.627v-20.979a4.621 4.621 0 0 0 -4.628-4.626zm8.854 22.12-6.541-7.467.494-.431 5.986 6.85 9.352-15.056.494.309z"/><path d="m207.233 92.546h-20.978a5.241 5.241 0 0 1 -5.245-5.246v-20.979a5.241 5.241 0 0 1 5.245-5.244h20.978a5.241 5.241 0 0 1 5.245 5.244v20.979a5.241 5.241 0 0 1 -5.245 5.246zm-20.978-30.851a4.621 4.621 0 0 0 -4.628 4.626v20.979a4.622 4.622 0 0 0 4.628 4.627h20.978a4.622 4.622 0 0 0 4.628-4.627v-20.979a4.621 4.621 0 0 0 -4.628-4.626zm8.854 22.12-6.541-7.467.494-.431 5.986 6.85 9.352-15.056.494.309z"/></g></svg>