<svg preserveAspectRatio="xMidYMid meet" viewBox="0 0 89.118 88.137" xmlns="http://www.w3.org/2000/svg"><g fill="none" stroke="#ff2d30" stroke-linejoin="round" stroke-width="2"><path d="m1110.526 241.115a3.17 3.17 0 0 1 -3.335 1.831c-2.913-.075-5.83 0-8.745-.038a2.59 2.59 0 0 0 -1.846.671q-7.842 6.632-15.723 13.219c-3.342 2.8-8.062 1.505-9.213-2.532a6.237 6.237 0 0 1 .732-4.885c-.908.758-1.8 1.532-2.727 2.272a5.569 5.569 0 0 1 -8.249-7.313c.13-.2.271-.391.442-.638-3.272 1.176-5.448.8-7.179-1.211-1.712-1.986-1.736-4.274-.031-7.366a5.711 5.711 0 0 1 -4.43.558 5.342 5.342 0 0 1 -3.869-4.018 5.113 5.113 0 0 1 1.575-5.338c2.674-2.37 5.447-4.63 8.2-6.915a1.389 1.389 0 0 1 .832-.232c5.088-.014 8.813-.583 13.9-.554a1.682 1.682 0 0 1 1.05.46c1.969 1.92 3.887 3.891 5.852 5.817 5.821 5.706 16.863 3.634 18.974-4.239.738-2.748 1.163-5.849-1.054-9.1h.846c3.823 0 6.949.048 10.771-.023a3.056 3.056 0 0 1 3.231 1.845z" transform="translate(-1022.408 -171.187)"/><path d="m1029.578 230.528c-3.864-.035-12.654-.018-16.518-.023-2.044 0-3.027-.989-3.027-3.032q0-13.214 0-26.429a2.6 2.6 0 0 1 2.925-2.942q9.547 0 19.094.01a1.684 1.684 0 0 0 1.338-.55 14.533 14.533 0 0 1 11.065-4.59c4.887.055 9.774.035 14.661 0a10.291 10.291 0 0 1 7.624 3.013c3.331 3.3 6.666 6.6 9.936 9.955a5.74 5.74 0 0 1 0 8.135 5.832 5.832 0 0 1 -8.156.047c-2.326-2.212-4.58-4.5-6.818-6.8a3.8 3.8 0 0 0 -2.952-1.21c-5.995.032-11.991 0-17.985.031a2.188 2.188 0 0 0 -1.279.464c-3.027 2.491-6.021 5.022-9.026 7.54a10.843 10.843 0 0 0 -.619 16.381z" transform="translate(-1009.032 -164.312)"/><path d="m45.635 15.314v-15.314"/><path d="m58.8 15.758 9.869-9.869"/><path d="m32.47 15.758-9.869-9.869"/></g></svg>