<svg height="39.117" preserveAspectRatio="xMidYMid meet" viewBox="0 0 36.047 39.117" width="36.047" xmlns="http://www.w3.org/2000/svg"><g fill="#fff" transform="translate(-91.072 -57.796)"><path d="m127.119 72.835v24.078h-36.047v-24.078l18.028-15.035zm-35.456.8v22.274l12.291-11.7zm17.437-15.043-17.26 14.359 12.56 10.844 4.7-4.491 4.7 4.491 12.555-10.844zm-16.994 37.729h33.978l-16.984-16.221zm34.42-.412v-22.278l-12.29 10.578z"/><path d="m127.119 72.835v24.078h-36.047v-24.078l18.028-15.035zm-35.456.8v22.274l12.291-11.7zm17.437-15.043-17.26 14.359 12.56 10.844 4.7-4.491 4.7 4.491 12.555-10.844zm-16.994 37.729h33.978l-16.984-16.221zm34.42-.412v-22.278l-12.29 10.578z"/></g></svg>