<svg preserveAspectRatio="xMidYMid meet" viewBox="0 0 19.421 21.33" xmlns="http://www.w3.org/2000/svg"><g fill="#ff2d30" stroke="#ff2d30" transform="translate(-90.362 -57.138)"><path d="m109.072 65.485v12.315h-18v-12.315l9-7.689zm-17.7.407v11.39l6.128-5.982zm8.7-7.689-8.616 7.342 6.27 5.544 2.346-2.3 2.346 2.3 6.27-5.544zm-8.484 19.29h16.967l-8.483-8.293zm17.188-.21v-11.391l-6.137 5.408z"/><path d="m109.072 65.485v12.315h-18v-12.315l9-7.689zm-17.7.407v11.39l6.128-5.982zm8.7-7.689-8.616 7.342 6.27 5.544 2.346-2.3 2.346 2.3 6.27-5.544zm-8.484 19.29h16.967l-8.483-8.293zm17.188-.21v-11.391l-6.137 5.408z"/></g></svg>