<svg preserveAspectRatio="xMidYMid meet" viewBox="0 0 98.535 88.882" xmlns="http://www.w3.org/2000/svg"><path d="m-17.194-122.424h-4.935l-3.11-45.159a1.61 1.61 0 0 0 -1.609-1.5h-9.652a1.61 1.61 0 0 0 -1.609 1.5l-3.11 45.159h-3.325v-9.654a1.61 1.61 0 0 0 -1.609-1.609 1.6 1.6 0 0 0 -1.006.353l-13.475 10.78v-9.523a1.609 1.609 0 0 0 -1.609-1.609 1.6 1.6 0 0 0 -1.006.353l-13.475 10.78v-9.523a1.609 1.609 0 0 0 -1.609-1.609 1.6 1.6 0 0 0 -1.006.353l-13.475 10.78v-9.523a1.61 1.61 0 0 0 -1.609-1.609 1.61 1.61 0 0 0 -.829.23l-16.09 9.654a1.609 1.609 0 0 0 -.78 1.379v38.611a1.609 1.609 0 0 0 1.609 1.609h93.317a1.609 1.609 0 0 0 1.609-1.609v-37.005a1.609 1.609 0 0 0 -1.609-1.609zm-40.223 40.224v-22.525h9.654v22.525zm38.617-3.219" fill="none" stroke="#ff2d30" stroke-miterlimit="10" stroke-width="2" transform="translate(113.12 170.083)"/></svg>