<svg preserveAspectRatio="xMidYMid meet" viewBox="0 0 104.91 45.35" xmlns="http://www.w3.org/2000/svg"><path d="m22.68 0-22.68 7.09v34.01l22.68 4.25z" fill="#164193"/><path d="m0 32.93v-8.83a4.46 4.46 0 0 0 3.25-.05 26.62 26.62 0 0 0 4.61-4.44s-1.46 3.61-.86 4.93 4 1.46 4 1.46a56.74 56.74 0 0 0 -5.74 4c-1.88 1.61-3.18 7.54-3.18 7.54s-.91-3.82-2.08-4.61" fill="#ffec00"/><path d="m22.68 17.35a7.14 7.14 0 0 1 -2.13 1c-1.83.35-3.78-1.74-3.78-1.74s.46 3.06-.68 4.95-5.09 4.44-5.09 4.44 4.29-.83 5.12.5 1 6.4 1 6.4 2.18-6 4.17-6.78a11.12 11.12 0 0 1 1.38-.46z" fill="#e20613"/><path d="m7.86 19.61s2.19-3.44 2.06-4.61-2.4-1.58-2.4-1.58a12.63 12.63 0 0 0 4.27-1.9 13.27 13.27 0 0 0 2.35-3.52s.27 1.93 1.39 2.21 4.22-1 4.22-1a42.79 42.79 0 0 0 -3.38 3.54c-1 1.31.4 3.79.4 3.79a10.79 10.79 0 0 0 -4-.63c-1.41.27-4.9 3.64-4.9 3.64" fill="#fff"/><g fill="#1d1d1b"><path d="m34.01 17.01v-8.51h5.38v1.31h-3.83v2.18h3.4v1.31h-3.4v3.71z"/><path d="m45.62 16.68c-.28.07-.65.14-1.11.22a8.8 8.8 0 0 1 -1.51.1 3.3 3.3 0 0 1 -1.3-.22 2 2 0 0 1 -.83-.62 2.37 2.37 0 0 1 -.45-.93 5.06 5.06 0 0 1 -.14-1.2v-3.6h1.49v3.37a2.74 2.74 0 0 0 .3 1.47 1.19 1.19 0 0 0 1 .44h.57a2.67 2.67 0 0 0 .45-.07v-5.19h1.48z"/><path d="m47.44 10.8a9.53 9.53 0 0 1 1.12-.24 10 10 0 0 1 1.52-.11 3.35 3.35 0 0 1 1.31.22 2 2 0 0 1 .84.6 2.23 2.23 0 0 1 .44.93 5 5 0 0 1 .13 1.2v3.6h-1.48v-3.37a4.55 4.55 0 0 0 -.07-.88 1.58 1.58 0 0 0 -.22-.59.87.87 0 0 0 -.42-.33 1.72 1.72 0 0 0 -.64-.1 4 4 0 0 0 -.59 0l-.45.06v5.21h-1.49z"/><path d="m60 16.66a7.83 7.83 0 0 1 -1.11.25 8.93 8.93 0 0 1 -1.4.11 3.9 3.9 0 0 1 -1.37-.23 2.88 2.88 0 0 1 -1-.67 2.91 2.91 0 0 1 -.65-1.06 4.05 4.05 0 0 1 -.23-1.39 4.56 4.56 0 0 1 .19-1.38 2.9 2.9 0 0 1 .56-1.06 2.32 2.32 0 0 1 .9-.68 2.87 2.87 0 0 1 1.21-.24 2.54 2.54 0 0 1 .82.11 3.35 3.35 0 0 1 .62.24v-1.91l1.46-.25zm-4.26-3a2.32 2.32 0 0 0 .47 1.54 1.6 1.6 0 0 0 1.29.56 5.28 5.28 0 0 0 .61 0 3.14 3.14 0 0 0 .41-.07v-3.69a2.53 2.53 0 0 0 -.52-.3 2 2 0 0 0 -.7-.12 1.32 1.32 0 0 0 -1.18.56 2.59 2.59 0 0 0 -.38 1.49"/><path d="m67.05 16.68c-.28.07-.66.14-1.11.22a8.8 8.8 0 0 1 -1.51.12 3.3 3.3 0 0 1 -1.3-.22 2 2 0 0 1 -.83-.62 2.37 2.37 0 0 1 -.45-.93 5.06 5.06 0 0 1 -.14-1.2v-3.6h1.49v3.37a2.74 2.74 0 0 0 .3 1.47 1.19 1.19 0 0 0 1 .44h.57a2.67 2.67 0 0 0 .45-.07v-5.21h1.48z"/><path d="m70.48 15.79a2 2 0 0 0 .86-.14.49.49 0 0 0 .27-.48.63.63 0 0 0 -.29-.53 4.42 4.42 0 0 0 -.95-.46 6.5 6.5 0 0 1 -.75-.31 3.06 3.06 0 0 1 -.58-.38 1.6 1.6 0 0 1 -.38-.54 1.76 1.76 0 0 1 -.15-.77 1.68 1.68 0 0 1 .65-1.39 2.82 2.82 0 0 1 1.77-.51 5.34 5.34 0 0 1 1.08.11 4.55 4.55 0 0 1 .77.2l-.26 1.2a4.29 4.29 0 0 0 -.63-.2 3.84 3.84 0 0 0 -.89-.09 1.57 1.57 0 0 0 -.74.15.5.5 0 0 0 -.28.47.88.88 0 0 0 .05.29.64.64 0 0 0 .19.22 1.9 1.9 0 0 0 .36.21 5.12 5.12 0 0 0 .54.21c.35.14.65.27.89.39a2.44 2.44 0 0 1 .61.43 1.4 1.4 0 0 1 .35.55 2 2 0 0 1 .11.73 1.61 1.61 0 0 1 -.68 1.4 3.41 3.41 0 0 1 -1.94.47 5.6 5.6 0 0 1 -1.37-.14c-.34-.1-.58-.17-.72-.23l.26-1.24a6.1 6.1 0 0 0 .79.26 4.15 4.15 0 0 0 1 .12"/><path d="m78.9 11.63c-.17.17-.38.41-.65.73s-.55.65-.85 1-.61.78-.91 1.19-.59.81-.83 1.19h3.34v1.26h-5.1v-.92a10.66 10.66 0 0 1 .64-1.08c.27-.39.55-.77.83-1.16s.58-.76.86-1.11l.75-.92h-2.98v-1.22h4.9z"/><path d="m79.71 13.68a4 4 0 0 1 .29-1.48 3.2 3.2 0 0 1 .67-1.07 2.76 2.76 0 0 1 1-.63 2.81 2.81 0 0 1 1.1-.22 2.69 2.69 0 0 1 2.07.82 3.6 3.6 0 0 1 .74 2.46v.28a2.26 2.26 0 0 1 0 .27h-4.34a1.66 1.66 0 0 0 .55 1.2 2.07 2.07 0 0 0 1.4.42 4.37 4.37 0 0 0 1-.1 3.22 3.22 0 0 0 .71-.21l.19 1.22-.33.13-.49.12a5.4 5.4 0 0 1 -.6.09 4.63 4.63 0 0 1 -.67.02 3.83 3.83 0 0 1 -1.47-.25 2.73 2.73 0 0 1 -1-.7 2.86 2.86 0 0 1 -.63-1.05 4.32 4.32 0 0 1 -.19-1.33m4.29-.67a1.81 1.81 0 0 0 -.09-.58 1.37 1.37 0 0 0 -.25-.48 1.17 1.17 0 0 0 -.41-.32 1.43 1.43 0 0 0 -1.17 0 1.32 1.32 0 0 0 -.43.34 1.44 1.44 0 0 0 -.28.48 2.61 2.61 0 0 0 -.14.55z"/><path d="m34.01 28.34v-8.5h5.47v1.31h-3.92v2.1h3.49v1.29h-3.49v2.49h4.21v1.31z"/><path d="m46.12 28c-.29.08-.66.15-1.12.23a8.8 8.8 0 0 1 -1.51.12 3.49 3.49 0 0 1 -1.3-.22 2.09 2.09 0 0 1 -.83-.62 2.35 2.35 0 0 1 -.45-.94 4.93 4.93 0 0 1 -.13-1.19v-3.6h1.48v3.36a2.75 2.75 0 0 0 .3 1.48 1.19 1.19 0 0 0 1 .44h.57a2.67 2.67 0 0 0 .45-.07v-5.2h1.49z"/><path d="m51.59 23.26a3.92 3.92 0 0 0 -.51-.12 3.42 3.42 0 0 0 -.75-.07 2.49 2.49 0 0 0 -.53.05l-.38.08v5.15h-1.49v-6.12a11.09 11.09 0 0 1 1.08-.3 6.93 6.93 0 0 1 1.43-.14h.34l.39.05.38.07.3.08z"/><path d="m58.61 25a4.09 4.09 0 0 1 -.22 1.39 3.11 3.11 0 0 1 -.63 1.06 2.69 2.69 0 0 1 -1 .69 3 3 0 0 1 -1.26.25 3 3 0 0 1 -1.25-.25 2.69 2.69 0 0 1 -1-.69 3.11 3.11 0 0 1 -.63-1.06 3.86 3.86 0 0 1 -.17-1.39 3.77 3.77 0 0 1 .23-1.38 3.11 3.11 0 0 1 .63-1.06 2.79 2.79 0 0 1 1-.68 3.15 3.15 0 0 1 1.24-.24 3.24 3.24 0 0 1 1.25.24 2.66 2.66 0 0 1 1 .68 3.11 3.11 0 0 1 .63 1.06 4 4 0 0 1 .18 1.38m-1.52 0a2.56 2.56 0 0 0 -.41-1.52 1.48 1.48 0 0 0 -2.3 0 2.56 2.56 0 0 0 -.38 1.52 2.55 2.55 0 0 0 .41 1.53 1.45 1.45 0 0 0 2.3 0 2.55 2.55 0 0 0 .38-1.53"/><path d="m65.85 25.14a4.45 4.45 0 0 1 -.19 1.35 3.23 3.23 0 0 1 -.55 1.06 2.45 2.45 0 0 1 -.89.69 2.86 2.86 0 0 1 -1.2.24 3.11 3.11 0 0 1 -.84-.11 3.18 3.18 0 0 1 -.63-.25v2.5h-1.48v-8.48a11.1 11.1 0 0 1 1.12-.24 8.83 8.83 0 0 1 1.4-.11 3.66 3.66 0 0 1 1.41.21 2.73 2.73 0 0 1 1 .66 2.86 2.86 0 0 1 .65 1.06 3.83 3.83 0 0 1 .23 1.39m-1.52 0a2.39 2.39 0 0 0 -.45-1.55 1.74 1.74 0 0 0 -1.44-.55 3.31 3.31 0 0 0 -.44 0 2.36 2.36 0 0 0 -.45.08v3.67a2.64 2.64 0 0 0 .53.25 1.92 1.92 0 0 0 .69.11 1.3 1.3 0 0 0 1.2-.47 2.6 2.6 0 0 0 .38-1.48"/><path d="m67 25a4 4 0 0 1 .25-1.49 3.1 3.1 0 0 1 .67-1.06 2.8 2.8 0 0 1 1-.64 3 3 0 0 1 1.11-.21 2.65 2.65 0 0 1 2.07.82 3.6 3.6 0 0 1 .74 2.46 2.62 2.62 0 0 1 0 .27 2.3 2.3 0 0 1 0 .28h-4.35a1.68 1.68 0 0 0 .55 1.2 2.07 2.07 0 0 0 1.4.42 4.37 4.37 0 0 0 1-.1 3.74 3.74 0 0 0 .7-.21l.2 1.22-.34.13-.49.12a4.89 4.89 0 0 1 -.59.09 4.73 4.73 0 0 1 -.65 0 4.13 4.13 0 0 1 -1.48-.25 2.81 2.81 0 0 1 -1-.7 2.84 2.84 0 0 1 -.6-1.06 4.32 4.32 0 0 1 -.19-1.29m4.3-.66a2.27 2.27 0 0 0 -.08-.59 1.41 1.41 0 0 0 -.25-.47 1.07 1.07 0 0 0 -.41-.32 1.43 1.43 0 0 0 -1.17 0 1.39 1.39 0 0 0 -.71.82 2.61 2.61 0 0 0 -.14.55z"/><path d="m73.42 30.63h-.44a1.74 1.74 0 0 1 -.51-.12l.19-1.21a2.46 2.46 0 0 0 .65.08.83.83 0 0 0 .73-.3 1.57 1.57 0 0 0 .21-.9v-6.25h1.48v6.24a2.58 2.58 0 0 1 -.59 1.83 2.32 2.32 0 0 1 -1.72.6m2.47-10.58a.84.84 0 0 1 -.27.66.89.89 0 0 1 -.62.32.91.91 0 0 1 -.65-.25.84.84 0 0 1 -.27-.66.88.88 0 0 1 .27-.68 1 1 0 0 1 .65-.24.93.93 0 0 1 .64.24.88.88 0 0 1 .27.68"/><path d="m79.16 27.13a2 2 0 0 0 .84-.13.51.51 0 0 0 .28-.49.63.63 0 0 0 -.28-.51 4.55 4.55 0 0 0 -1-.46c-.26-.1-.51-.2-.74-.31a2.45 2.45 0 0 1 -.58-.39 1.62 1.62 0 0 1 -.39-.53 1.93 1.93 0 0 1 -.14-.77 1.68 1.68 0 0 1 .65-1.39 2.82 2.82 0 0 1 1.77-.51 5.35 5.35 0 0 1 1.08.1 4.64 4.64 0 0 1 .77.21l-.27 1.2a3.78 3.78 0 0 0 -.62-.2 3.41 3.41 0 0 0 -.89-.1 1.55 1.55 0 0 0 -.64.15.5.5 0 0 0 -.28.47.61.61 0 0 0 0 .28.59.59 0 0 0 .19.23 1.9 1.9 0 0 0 .36.21 3.83 3.83 0 0 0 .54.21 7.09 7.09 0 0 1 .89.39 2.44 2.44 0 0 1 .61.43 1.4 1.4 0 0 1 .35.55 2.24 2.24 0 0 1 .11.73 1.61 1.61 0 0 1 -.68 1.4 3.45 3.45 0 0 1 -2 .47 5.51 5.51 0 0 1 -1.36-.14c-.34-.1-.58-.17-.72-.23l.25-1.24a6.87 6.87 0 0 0 .8.26 4.1 4.1 0 0 0 1 .12"/><path d="m84.57 24.43.6-.63.63-.68.58-.65.47-.54h1.76c-.41.46-.84.93-1.3 1.42s-.91 1-1.37 1.44a7.47 7.47 0 0 1 .78.74 12 12 0 0 1 .78.93c.26.32.49.65.71 1s.41.63.56.91h-1.72c-.15-.26-.32-.52-.51-.8a9.65 9.65 0 0 0 -.62-.81c-.22-.26-.45-.51-.68-.74a4.53 4.53 0 0 0 -.67-.6v3h-1.49v-8.33l1.49-.25z"/><path d="m91.43 20.05a.84.84 0 0 1 -.27.66.93.93 0 0 1 -.64.25 1 1 0 0 1 -.65-.25.84.84 0 0 1 -.27-.66.88.88 0 0 1 .27-.68 1 1 0 0 1 .65-.24.93.93 0 0 1 .64.24.88.88 0 0 1 .27.68m-.16 8.3h-1.48v-6.42h1.48z"/><path d="m92.73 25a4 4 0 0 1 .27-1.47 3.25 3.25 0 0 1 .67-1.06 2.94 2.94 0 0 1 1-.64 3 3 0 0 1 1.1-.21 2.62 2.62 0 0 1 2.07.82 3.55 3.55 0 0 1 .74 2.46v.27.28h-4.32a1.76 1.76 0 0 0 .55 1.2 2.08 2.08 0 0 0 1.41.42 4.22 4.22 0 0 0 1-.1 3.88 3.88 0 0 0 .71-.21l.2 1.22-.34.13-.49.12a5.06 5.06 0 0 1 -.6.09 4.63 4.63 0 0 1 -.65 0 4.11 4.11 0 0 1 -1.47-.25 2.73 2.73 0 0 1 -1-.7 2.84 2.84 0 0 1 -.6-1.06 4.31 4.31 0 0 1 -.2-1.33m4.22-.62a1.92 1.92 0 0 0 -.09-.59 1.25 1.25 0 0 0 -.25-.47 1 1 0 0 0 -.4-.32 1.26 1.26 0 0 0 -.57-.12 1.33 1.33 0 0 0 -.61.13 1.3 1.3 0 0 0 -.43.34 1.52 1.52 0 0 0 -.28.48 2.59 2.59 0 0 0 -.13.55z"/><path d="m34.02 34.08h.79v5.61h-.79z"/><path d="m36.11 35.6.69-.14a5.9 5.9 0 0 1 1-.07 2.21 2.21 0 0 1 .83.14 1.35 1.35 0 0 1 .53.4 1.37 1.37 0 0 1 .28.61 3.25 3.25 0 0 1 .08.79v2.36h-.75v-2.2a4.27 4.27 0 0 0 0-.67 1 1 0 0 0 -.18-.44.67.67 0 0 0 -.32-.25 1.41 1.41 0 0 0 -.5-.08h-.25-.25-.21-.13v3.55h-.76z"/><path d="m41.43 35.38h1.57v.62h-1.57v2a2.55 2.55 0 0 0 0 .52 1 1 0 0 0 .15.33.56.56 0 0 0 .24.16 1.16 1.16 0 0 0 .34.05 1.42 1.42 0 0 0 .55-.08l.29-.11.14.63a3 3 0 0 1 -.39.14 2.18 2.18 0 0 1 -.65.08 2.06 2.06 0 0 1 -.71-.1 1.1 1.1 0 0 1 -.45-.33 1.48 1.48 0 0 1 -.24-.54 4 4 0 0 1 -.07-.74v-3.8l.76-.13z"/><path d="m43.62 37.5a2.65 2.65 0 0 1 .16-1 2 2 0 0 1 .43-.69 1.81 1.81 0 0 1 .62-.41 1.76 1.76 0 0 1 .71-.14 1.59 1.59 0 0 1 1.3.53 2.38 2.38 0 0 1 .46 1.61v.27h-2.89a1.55 1.55 0 0 0 .38 1 1.4 1.4 0 0 0 1 .34 2.55 2.55 0 0 0 .67-.07 3.41 3.41 0 0 0 .41-.13l.11.63a2.23 2.23 0 0 1 -.49.15 3.12 3.12 0 0 1 -.78.08 2.52 2.52 0 0 1 -1-.16 1.78 1.78 0 0 1 -.66-.46 1.94 1.94 0 0 1 -.38-.69 2.75 2.75 0 0 1 -.13-.88m2.89-.42a1.25 1.25 0 0 0 -.25-.83.89.89 0 0 0 -.73-.33.93.93 0 0 0 -.45.1 1 1 0 0 0 -.34.26 1.51 1.51 0 0 0 -.22.37 2.41 2.41 0 0 0 -.1.43z"/><path d="m49.61 39.69a1.42 1.42 0 0 1 -1-.3 1.15 1.15 0 0 1 -.29-.88v-5.06l.75-.12v5.06a1.42 1.42 0 0 0 0 .31l.11.19.19.11.3.06z"/><path d="m50.89 34.72a.5.5 0 0 1 -.35-.14.46.46 0 0 1 -.14-.36.46.46 0 0 1 .49-.49.47.47 0 0 1 .34.13.49.49 0 0 1 .14.36.46.46 0 0 1 -.14.36.48.48 0 0 1 -.34.14m.38 5h-.76v-4.24h.76z"/><path d="m55.16 39.27a2.3 2.3 0 0 1 -.37.17 1.91 1.91 0 0 1 -.66.1 2.08 2.08 0 0 1 -.71-.12 1.54 1.54 0 0 1 -.59-.38 1.79 1.79 0 0 1 -.4-.64 2.66 2.66 0 0 1 -.14-.9 2.33 2.33 0 0 1 .14-.85 1.84 1.84 0 0 1 1-1.1 2.13 2.13 0 0 1 .86-.16 4.92 4.92 0 0 1 .92.08l.66.14v3.76a1.79 1.79 0 0 1 -.5 1.41 2.31 2.31 0 0 1 -1.53.43 4.56 4.56 0 0 1 -.75-.06 4.19 4.19 0 0 1 -.61-.15l.14-.66a3.9 3.9 0 0 0 .56.16 3.64 3.64 0 0 0 .68.07 1.42 1.42 0 0 0 1-.27 1.12 1.12 0 0 0 .29-.85zm0-3.13-.3-.06h-.51a1.16 1.16 0 0 0 -.94.39 1.62 1.62 0 0 0 -.33 1.06 1.65 1.65 0 0 0 .1.62 1.14 1.14 0 0 0 .25.43.9.9 0 0 0 .36.25 1.26 1.26 0 0 0 .43.08 1.92 1.92 0 0 0 .55-.08 1.56 1.56 0 0 0 .39-.2z"/><path d="m56.93 37.5a2.65 2.65 0 0 1 .16-1 2 2 0 0 1 .43-.69 1.72 1.72 0 0 1 .62-.41 1.76 1.76 0 0 1 .71-.14 1.59 1.59 0 0 1 1.3.53 2.38 2.38 0 0 1 .46 1.61v.27h-2.9a1.55 1.55 0 0 0 .39 1 1.4 1.4 0 0 0 1 .34 2.55 2.55 0 0 0 .7-.01 3.41 3.41 0 0 0 .41-.13l.1.63a2 2 0 0 1 -.48.15 3.12 3.12 0 0 1 -.78.08 2.49 2.49 0 0 1 -.95-.16 1.78 1.78 0 0 1 -.66-.46 2.13 2.13 0 0 1 -.39-.69 3.07 3.07 0 0 1 -.12-.88m2.89-.42a1.25 1.25 0 0 0 -.25-.83.89.89 0 0 0 -.73-.33 1 1 0 0 0 -.46.1 1.06 1.06 0 0 0 -.33.26 1.07 1.07 0 0 0 -.22.37 2.41 2.41 0 0 0 -.1.43z"/><path d="m61.65 35.6.69-.14a5.75 5.75 0 0 1 1-.07 2.21 2.21 0 0 1 .83.14 1.35 1.35 0 0 1 .53.4 1.49 1.49 0 0 1 .28.61 3.25 3.25 0 0 1 .08.79v2.36h-.76v-2.2a4.27 4.27 0 0 0 0-.67 1.19 1.19 0 0 0 -.18-.44.72.72 0 0 0 -.32-.25 1.46 1.46 0 0 0 -.5-.08h-.3-.24-.21-.14v3.55h-.75z"/><path d="m67 35.38h1.6v.62h-1.6v2a2.47 2.47 0 0 0 .05.52.84.84 0 0 0 .15.33.51.51 0 0 0 .24.16 1.16 1.16 0 0 0 .34.05 1.42 1.42 0 0 0 .55-.08l.29-.11.14.63a3 3 0 0 1 -.39.14 2.18 2.18 0 0 1 -.65.08 2 2 0 0 1 -.71-.1 1.1 1.1 0 0 1 -.45-.33 1.48 1.48 0 0 1 -.24-.54 3.26 3.26 0 0 1 -.07-.74v-3.8l.75-.13z"/><path d="m69.48 35.6.68-.14a5.9 5.9 0 0 1 1-.07 2.23 2.23 0 0 1 .84.14 1.43 1.43 0 0 1 .53.4 1.63 1.63 0 0 1 .28.61 3.84 3.84 0 0 1 .08.79v2.36h-.76v-2.2a3.33 3.33 0 0 0 -.05-.67 1 1 0 0 0 -.17-.44.7.7 0 0 0 -.33-.25 1.41 1.41 0 0 0 -.5-.08h-.25-.25-.21-.13v3.55h-.75z"/><path d="m73.44 40.48.24.07a.84.84 0 0 0 .27 0 1.06 1.06 0 0 0 .7-.2 1.68 1.68 0 0 0 .46-.64c-.35-.65-.66-1.34-1-2.06a20.4 20.4 0 0 1 -.73-2.21h.81c.06.24.13.51.22.79s.17.57.27.86.22.6.34.89.24.59.37.86c.2-.56.38-1.13.53-1.68s.3-1.13.43-1.72h.78c-.19.79-.41 1.56-.65 2.29s-.49 1.41-.77 2a4.07 4.07 0 0 1 -.33.63 2 2 0 0 1 -.39.43 1.26 1.26 0 0 1 -.47.25 1.9 1.9 0 0 1 -.6.08h-.18-.19-.17-.11z"/><path d="m82.55 37.34.33.43c.13.17.27.37.41.58s.28.44.41.67a7.48 7.48 0 0 1 .36.67h-.86c-.11-.2-.23-.41-.36-.62s-.25-.41-.38-.6-.26-.38-.38-.54l-.35-.44h-1.14v2.19h-.79v-5.52a5 5 0 0 1 .74-.11h.75a3.08 3.08 0 0 1 1.81.45 1.7 1.7 0 0 1 .32 2.28 1.73 1.73 0 0 1 -.87.59m-1.19-2.63h-.77v2.12h.56a5.44 5.44 0 0 0 .73 0 1.56 1.56 0 0 0 .54-.16.78.78 0 0 0 .35-.32 1.05 1.05 0 0 0 .12-.54 1.07 1.07 0 0 0 -.12-.53.87.87 0 0 0 -.33-.33 1.42 1.42 0 0 0 -.49-.17 3.61 3.61 0 0 0 -.59 0"/><path d="m88.53 37.49a2.63 2.63 0 0 1 -.15.91 2 2 0 0 1 -.41.69 1.59 1.59 0 0 1 -.63.45 2 2 0 0 1 -1.58 0 1.59 1.59 0 0 1 -.63-.45 2 2 0 0 1 -.41-.69 2.63 2.63 0 0 1 -.15-.91 2.57 2.57 0 0 1 .15-.9 2.07 2.07 0 0 1 .41-.71 1.67 1.67 0 0 1 .63-.44 2 2 0 0 1 1.58 0 1.67 1.67 0 0 1 .63.44 2.07 2.07 0 0 1 .41.71 2.57 2.57 0 0 1 .15.9m-.79 0a1.83 1.83 0 0 0 -.32-1.13 1.11 1.11 0 0 0 -1.74 0 1.83 1.83 0 0 0 -.32 1.13 1.85 1.85 0 0 0 .32 1.13 1.11 1.11 0 0 0 1.74 0 1.85 1.85 0 0 0 .32-1.13"/><path d="m92.18 36.05-.45.52c-.19.23-.39.48-.6.76s-.43.56-.64.86-.4.6-.56.87h2.31v.63h-3.24v-.5c.13-.24.29-.5.48-.79s.38-.57.59-.85.41-.55.61-.8l.51-.64h-2.05v-.63h3z"/><path d="m96.6 39.69c-.15-.39-.31-.83-.48-1.33s-.33-1-.47-1.56c-.14.54-.29 1.06-.46 1.56s-.32.94-.48 1.33h-.65c-.25-.55-.49-1.19-.73-1.9s-.46-1.48-.67-2.31h.81c0 .25.12.53.19.83l.24.89c.08.3.17.58.26.86s.18.51.26.72c.09-.26.18-.52.27-.81s.18-.57.26-.86.16-.57.23-.85.14-.54.19-.78h.63q.08.36.18.78c.07.28.15.56.23.85s.17.58.25.86.18.55.28.81c.08-.21.16-.45.25-.72s.18-.56.26-.86.17-.6.25-.89.14-.58.19-.83h.78c-.21.83-.44 1.6-.67 2.31s-.48 1.35-.73 1.9z"/><path d="m103 37.49a2.63 2.63 0 0 1 -.14.91 2.14 2.14 0 0 1 -.41.69 1.74 1.74 0 0 1 -.63.45 1.89 1.89 0 0 1 -.79.16 1.94 1.94 0 0 1 -.8-.16 1.63 1.63 0 0 1 -.62-.45 1.84 1.84 0 0 1 -.41-.69 2.63 2.63 0 0 1 -.15-.91 2.57 2.57 0 0 1 .15-.9 1.8 1.8 0 0 1 .41-.7 1.63 1.63 0 0 1 .62-.45 1.94 1.94 0 0 1 .8-.16 1.89 1.89 0 0 1 .79.16 1.74 1.74 0 0 1 .63.45 2.09 2.09 0 0 1 .41.7 2.58 2.58 0 0 1 .14.9m-.78 0a1.83 1.83 0 0 0 -.32-1.13 1.05 1.05 0 0 0 -.87-.42 1 1 0 0 0 -.87.42 1.77 1.77 0 0 0 -.32 1.13 1.78 1.78 0 0 0 .32 1.13 1 1 0 0 0 .87.42 1.05 1.05 0 0 0 .87-.42 1.85 1.85 0 0 0 .32-1.13m-.22-3.61-1.1 1.12-.39-.34 1-1.24z"/><path d="m103.37 41.21h-.26a1.67 1.67 0 0 1 -.26-.06l.1-.62h.19.19a.63.63 0 0 0 .56-.24 1.23 1.23 0 0 0 .16-.7v-4.11h.76v4.13a1.72 1.72 0 0 1 -.37 1.2 1.39 1.39 0 0 1 -1.07.4m1.06-6.49a.5.5 0 0 1 -.35-.14.46.46 0 0 1 -.14-.36.46.46 0 0 1 .49-.49.47.47 0 0 1 .34.13.45.45 0 0 1 .14.36.43.43 0 0 1 -.14.36.48.48 0 0 1 -.34.14"/></g></svg>