<svg preserveAspectRatio="xMidYMid meet" viewBox="0 0 113 99" xmlns="http://www.w3.org/2000/svg" xmlns:xlink="http://www.w3.org/1999/xlink"><clipPath id="a"><path d="m0 0h113v99h-113z"/></clipPath><g clip-path="url(#a)"><path d="m0 0h113v99h-113z" fill="#fff"/><g fill="none" stroke="#ff2d30" stroke-linecap="square" stroke-linejoin="round" stroke-width="2"><circle cx="47.59" cy="47.59" r="47.59" transform="translate(9.82 1.82)"/><path d="m745.577 201.154a29 29 0 0 0 -1.6-49.963" transform="translate(-672.686 -127.232)"/><path d="m717.041 153.429a28.994 28.994 0 0 0 3.753 48.346" transform="translate(-677.352 -126.959)"/><path d="m719.161 145.9v17.043a6.907 6.907 0 0 0 6.907 6.907 6.906 6.906 0 0 0 6.906-6.907v-17.043" transform="translate(-675.717 -127.879)"/><path d="m0 15.822v-15.822" transform="translate(46.853 18.02)"/><path d="m0 15.822v-15.822" transform="translate(50.35 18.02)"/><path d="m0 15.822v-15.822" transform="translate(53.46 18.02)"/><path d="m727.953 167.093v36.9a2.1 2.1 0 0 1 -2.1 2.1h-.553a2.1 2.1 0 0 1 -2.1-2.1v-36.9" transform="translate(-675.224 -125.291)"/><path d="m741.238 176.549v29.9a2.167 2.167 0 0 1 -2.1 2.229h-.559a2.166 2.166 0 0 1 -2.1-2.229v-59.813a.69.69 0 0 1 1.361-.2l7.018 26.021a3.178 3.178 0 0 1 -2.907 4.095" transform="translate(-673.602 -127.879)"/></g></g></svg>