<svg preserveAspectRatio="xMidYMid meet" viewBox="0 0 113 99" xmlns="http://www.w3.org/2000/svg" xmlns:xlink="http://www.w3.org/1999/xlink"><clipPath id="a"><path d="m0 0h113v99h-113z"/></clipPath><g clip-path="url(#a)"><path d="m0 0h113v99h-113z" fill="#fff"/><g fill="none" stroke="#ff2d30" stroke-linecap="square" stroke-linejoin="round" stroke-width="2" transform="translate(-800.917 -129.16)"><path d="m875.753 206.083-12.911-31.471a14.356 14.356 0 0 1 -1.08-5.475v-8.318a3.33 3.33 0 0 1 .983-2.372 4.063 4.063 0 0 0 1.2-2.892v-1.179a1.193 1.193 0 0 0 -1.193-1.192h-16.652a1.193 1.193 0 0 0 -1.192 1.192v1.179a4.062 4.062 0 0 0 1.2 2.892 3.33 3.33 0 0 1 .983 2.372v8.318a14.356 14.356 0 0 1 -1.08 5.475l-3.547 8.647v.01l-9.364 22.814a5.914 5.914 0 0 0 5.472 8.158h31.712a5.914 5.914 0 0 0 5.472-8.158zm-2.541 4.21" transform="translate(2.992 2.279)"/><path d="m840.132 184.407s2.121-3.573 9.211-3.573 13.256 4.185 15.45 3.561a1.965 1.965 0 0 0 1.342-2.739" transform="translate(3.77 5.158)"/><path d="m0 0h3.399" transform="translate(842.422 193.706)"/><path d="m0 0h3.399" transform="translate(840.965 197.015)"/><path d="m0 0h3.399" transform="translate(839.637 200.323)"/><path d="m0 0h2.661" transform="translate(850.08 164.422)"/><path d="m0 0h2.661" transform="translate(850.08 168.302)"/><path d="m0 0h2.661" transform="translate(850.08 172.182)"/><path d="m852.981 133.855-48.37 83.78a5.123 5.123 0 0 0 4.436 7.684h96.74a5.123 5.123 0 0 0 4.436-7.684l-48.37-83.78a5.123 5.123 0 0 0 -8.872 0z"/></g></g></svg>