<svg preserveAspectRatio="xMidYMid meet" viewBox="0 0 113 99" xmlns="http://www.w3.org/2000/svg" xmlns:xlink="http://www.w3.org/1999/xlink"><clipPath id="a"><path d="m0 0h113v99h-113z"/></clipPath><g clip-path="url(#a)"><path d="m0 0h113v99h-113z" fill="#fff"/><g fill="none" stroke="#ff2d30" stroke-linecap="square" stroke-linejoin="round" stroke-width="2"><path d="m1130.433 140.349h-58.314a4.344 4.344 0 0 1 -4.338-4.338v-1.687a2.865 2.865 0 0 1 2.861-2.861h61.269a2.866 2.866 0 0 1 2.861 2.861v1.687a4.345 4.345 0 0 1 -4.339 4.338zm-59.791-6.117" transform="translate(-1043.781 -129.328)"/><path d="m1080.921 217.946h-10.278a2.864 2.864 0 0 1 -2.861-2.861v-1.685a4.344 4.344 0 0 1 4.338-4.339h58.314a4.345 4.345 0 0 1 4.339 4.339v1.686a2.865 2.865 0 0 1 -2.861 2.861h-50.99zm50.99 0" transform="translate(-1043.781 -121.295)"/><path d="m1130.33 151.434h-58.107a4.443 4.443 0 0 1 0-8.886h58.107a4.443 4.443 0 0 1 0 8.886zm-58.107-6.117" transform="translate(-1043.781 -128.18)"/><path d="m1130.33 206.861h-58.107a4.443 4.443 0 0 1 0-8.887h58.107a4.443 4.443 0 0 1 0 8.887zm-58.107-6.118" transform="translate(-1043.781 -122.443)"/><circle cx="15.592" cy="15.592" r="15.592" transform="translate(41.903 31.718)"/><path d="m0 0v3.347" transform="translate(28.338 11.02)"/><path d="m0 0v3.347" transform="translate(86.549 11.02)"/><path d="m0 0v3.347" transform="translate(28.338 84.418)"/><path d="m0 0v3.347" transform="translate(86.549 84.418)"/><path d="m0 0v52.278" transform="translate(28.337 23.243)"/><path d="m0 0v52.278" transform="translate(86.548 23.243)"/><path d="m1102.71 174.289a4.183 4.183 0 0 1 -8.367 0c0-2.311 4.183-8.069 4.183-8.069s4.184 5.758 4.184 8.069z" transform="translate(-1041.031 -125.73)"/></g></g></svg>