<svg preserveAspectRatio="xMidYMid meet" viewBox="0 0 113 99" xmlns="http://www.w3.org/2000/svg" xmlns:xlink="http://www.w3.org/1999/xlink"><clipPath id="a"><path d="m0 0h113v99h-113z"/></clipPath><g clip-path="url(#a)"><path d="m0 0h113v99h-113z" fill="#fff"/><g fill="none" stroke="#ff2d30" stroke-linecap="square" stroke-linejoin="round" stroke-width="2" transform="translate(-557.604 -127.344)"><path d="m613.329 141.355a35.1 35.1 0 0 1 34.265 27.716h-68.532a35.1 35.1 0 0 1 34.266-27.716zm-34.508 41.1h.833a14.2 14.2 0 0 1 14.181 14.182 14.02 14.02 0 0 1 -2.071 7.351 35.065 35.065 0 0 1 -12.943-21.534zm22.834 26.979a12.263 12.263 0 0 1 23.343 0 34.957 34.957 0 0 1 -23.343 0zm33.237-5.445a14.032 14.032 0 0 1 -2.072-7.351 14.2 14.2 0 0 1 14.18-14.188h.833a35.064 35.064 0 0 1 -12.943 21.534zm0 0" transform="translate(.87 .832)"/><path d="m614.2 223.822a46.594 46.594 0 1 1 46.593-46.594 46.6 46.6 0 0 1 -46.593 46.594zm0 0"/><circle cx="35.04" cy="35.04" r="35.04" transform="translate(579.157 142.187)"/><path d="m0 0h13.405v4.121h-13.405z" transform="translate(607.496 175.832)"/></g></g></svg>