<svg preserveAspectRatio="xMidYMid meet" viewBox="0 0 113 99" xmlns="http://www.w3.org/2000/svg" xmlns:xlink="http://www.w3.org/1999/xlink"><clipPath id="a"><path d="m0 0h113v99h-113z"/></clipPath><g clip-path="url(#a)"><path d="m0 0h113v99h-113z" fill="#fff"/><g fill="none" stroke="#ff2d30" stroke-linecap="square" stroke-miterlimit="10" stroke-width="2"><path d="m510.948 204.767a3.595 3.595 0 1 1 3.595-3.595 3.6 3.6 0 0 1 -3.595 3.595zm0 0" transform="translate(-431.259 -121.666)"/><path d="m516.576 224.747h-56.118a7.189 7.189 0 0 1 0-14.378v-66.621m56.119 81a17.973 17.973 0 1 1 17.973-17.973 17.994 17.994 0 0 1 -17.973 17.973zm0-43.135" transform="translate(-436.888 -127.268)"/><path d="m530.276 208.139v-59.533a17.974 17.974 0 0 0 -17.976-17.973 17.974 17.974 0 0 0 -17.973 17.973v59.533" transform="translate(-432.615 -128.633)"/><path d="m460.458 143.748a7.189 7.189 0 0 0 -7.189 7.19v66.62" transform="translate(-436.888 -127.268)"/><path d="m0 0h38.146" transform="translate(23.57 23.487)"/></g></g></svg>