<svg preserveAspectRatio="xMidYMid meet" viewBox="0 0 301.35 68.02" xmlns="http://www.w3.org/2000/svg"><path d="m0 0h102.04v68.02h-102.04z" fill="#164193"/><path d="m48.84 14.83 2.16-1.58 2.15 1.58-.82-2.54 2.19-1.58h-2.7l-.82-2.57-.82 2.57h-2.7l2.18 1.58z" fill="#ffec00"/><path d="m37.7 17.82 2.16-1.58 2.15 1.58-.82-2.54 2.19-1.58h-2.7l-.83-2.57-.82 2.58-2.69-.01 2.18 1.58z" fill="#ffec00"/><path d="m31.7 19.3-.82 2.58h-2.7l2.18 1.57-.81 2.54 2.15-1.57 2.16 1.57-.82-2.54 2.19-1.57h-2.7z" fill="#ffec00"/><path d="m28.71 35.54 2.15 1.58-.82-2.54 2.19-1.57h-2.69l-.83-2.58-.83 2.58h-2.69l2.18 1.57-.81 2.54z" fill="#ffec00"/><path d="m32.53 44.16-.83-2.57-.82 2.57h-2.7l2.18 1.58-.81 2.54 2.15-1.58 2.15 1.58-.82-2.54 2.19-1.58z" fill="#ffec00"/><path d="m40.69 52.33-.82-2.57-.83 2.58-2.7-.01 2.19 1.58-.81 2.54 2.15-1.58 2.16 1.58-.82-2.54 2.19-1.58z" fill="#ffec00"/><path d="m51.82 55.29-.82-2.58-.82 2.58h-2.7l2.18 1.57-.82 2.54 2.16-1.57 2.16 1.57-.83-2.54 2.2-1.57z" fill="#ffec00"/><path d="m62.95 52.33-.83-2.57-.83 2.58-2.68-.01 2.18 1.58-.82 2.54 2.15-1.58 2.16 1.58-.82-2.54 2.2-1.58z" fill="#ffec00"/><path d="m71.12 44.16-.83-2.57-.82 2.57h-2.69l2.19 1.58-.83 2.54 2.15-1.58 2.16 1.58-.82-2.54 2.19-1.58z" fill="#ffec00"/><path d="m76.77 32.97h-2.69l-.82-2.58-.83 2.58h-2.69l2.18 1.58-.82 2.54 2.16-1.58 2.15 1.58-.82-2.54z" fill="#ffec00"/><path d="m68.14 25.95 2.16-1.56 2.15 1.56-.82-2.54 2.19-1.56h-2.69l-.83-2.59-.83 2.59h-2.69l2.19 1.56z" fill="#ffec00"/><path d="m62.16 11.13-.82 2.58-2.7-.01 2.19 1.58-.82 2.54 2.16-1.58 2.14 1.58-.81-2.54 2.18-1.58h-2.7z" fill="#ffec00"/><g fill="#1d1d1b"><path d="m124.79 44.28v-11.23h6.86v1.35h-5.28v3.34h4.69v1.31h-4.69v3.89h5.68v1.34z"/><path d="m140.26 43.86c-.34.09-.8.18-1.36.28a12.74 12.74 0 0 1 -2 .14 4.16 4.16 0 0 1 -1.64-.28 2.72 2.72 0 0 1 -1.07-.8 3.33 3.33 0 0 1 -.58-1.23 6.3 6.3 0 0 1 -.18-1.56v-4.73h1.57v4.41a3.85 3.85 0 0 0 .48 2.2 1.91 1.91 0 0 0 1.64.66h.5.49.41l.27-.06v-7.21h1.5z"/><path d="m145.89 35.68h.44l.5.07.44.08.3.07-.26 1.31a5.93 5.93 0 0 0 -.59-.15 5.16 5.16 0 0 0 -1.06-.09 4 4 0 0 0 -.84.09l-.54.12v7.08h-1.5v-8.05a9.29 9.29 0 0 1 1.32-.36 8.85 8.85 0 0 1 1.79-.17z"/><path d="m156.38 39.87a5.23 5.23 0 0 1 -.29 1.82 4.09 4.09 0 0 1 -.82 1.39 3.6 3.6 0 0 1 -1.27.92 4.11 4.11 0 0 1 -3.18 0 3.6 3.6 0 0 1 -1.25-.9 4.09 4.09 0 0 1 -.82-1.39 5.79 5.79 0 0 1 0-3.62 4 4 0 0 1 .82-1.4 3.6 3.6 0 0 1 1.25-.9 4.11 4.11 0 0 1 3.18 0 3.6 3.6 0 0 1 1.25.9 4 4 0 0 1 .82 1.4 5.19 5.19 0 0 1 .31 1.78zm-1.57 0a3.61 3.61 0 0 0 -.64-2.26 2.24 2.24 0 0 0 -3.48 0 3.61 3.61 0 0 0 -.64 2.26 3.57 3.57 0 0 0 .64 2.26 2.22 2.22 0 0 0 3.48 0 3.57 3.57 0 0 0 .64-2.26z"/><path d="m165.84 40.09a5.85 5.85 0 0 1 -.25 1.76 3.84 3.84 0 0 1 -.73 1.39 3.41 3.41 0 0 1 -1.19.91 3.78 3.78 0 0 1 -1.62.33 4.27 4.27 0 0 1 -2.12-.57v3.37h-1.51v-11.16c.36-.09.81-.18 1.34-.29a10.22 10.22 0 0 1 1.86-.15 4.66 4.66 0 0 1 1.75.31 3.62 3.62 0 0 1 1.32.87 3.83 3.83 0 0 1 .85 1.39 5.3 5.3 0 0 1 .3 1.84zm-1.57 0a3.21 3.21 0 0 0 -.73-2.27 2.5 2.5 0 0 0 -1.94-.8 9.35 9.35 0 0 0 -1.06 0 3.11 3.11 0 0 0 -.61.12v5.36a3.13 3.13 0 0 0 .79.44 3 3 0 0 0 1.14.21 2.39 2.39 0 0 0 1.11-.24 1.89 1.89 0 0 0 .75-.65 2.45 2.45 0 0 0 .42-1 5.08 5.08 0 0 0 .13-1.17z"/><path d="m167.41 39.89a5.27 5.27 0 0 1 .33-2 4.1 4.1 0 0 1 .86-1.39 3.41 3.41 0 0 1 1.23-.82 3.71 3.71 0 0 1 1.42-.28 3.25 3.25 0 0 1 2.61 1.06 4.86 4.86 0 0 1 .91 3.23v.31a2.46 2.46 0 0 1 0 .28h-5.77a3.07 3.07 0 0 0 .76 2 2.75 2.75 0 0 0 2.07.68 5.15 5.15 0 0 0 1.34-.14 5.78 5.78 0 0 0 .82-.26l.21 1.26a4.6 4.6 0 0 1 -1 .31 6.74 6.74 0 0 1 -1.56.16 4.93 4.93 0 0 1 -1.9-.33 3.44 3.44 0 0 1 -1.32-.92 3.6 3.6 0 0 1 -.77-1.38 5.8 5.8 0 0 1 -.24-1.77zm5.79-.83a2.52 2.52 0 0 0 -.51-1.67 1.76 1.76 0 0 0 -1.45-.66 2.08 2.08 0 0 0 -.92.2 2.19 2.19 0 0 0 -.67.53 2.53 2.53 0 0 0 -.43.75 3.62 3.62 0 0 0 -.2.85z"/><path d="m179.58 35.48a4.24 4.24 0 0 1 1.53.24 2.36 2.36 0 0 1 1.55 1.68 4.9 4.9 0 0 1 .16 1.31v5.29l-.54.09c-.23 0-.5.08-.79.11l-.94.09c-.34 0-.68 0-1 0a5.41 5.41 0 0 1 -1.31-.15 3.08 3.08 0 0 1 -1-.46 2.22 2.22 0 0 1 -.68-.83 3 3 0 0 1 -.24-1.25 2.37 2.37 0 0 1 .28-1.2 2.22 2.22 0 0 1 .77-.81 3.4 3.4 0 0 1 1.14-.45 6 6 0 0 1 1.36-.15h.47l.46.07.38.07.23.05v-.42a3.72 3.72 0 0 0 -.08-.74 2 2 0 0 0 -.29-.65 1.65 1.65 0 0 0 -.58-.45 2.31 2.31 0 0 0 -1-.17 7.09 7.09 0 0 0 -1.3.11 5.29 5.29 0 0 0 -.84.21l-.17-1.24a4.19 4.19 0 0 1 1-.25 8.37 8.37 0 0 1 1.43-.1zm.13 7.55h.95a5.32 5.32 0 0 0 .69-.09v-2.53a2.28 2.28 0 0 0 -.53-.14 5.52 5.52 0 0 0 -.88-.06 6.09 6.09 0 0 0 -.72 0 2.2 2.2 0 0 0 -.7.21 1.46 1.46 0 0 0 -.53.42 1.1 1.1 0 0 0 -.21.7 1.23 1.23 0 0 0 .52 1.13 2.73 2.73 0 0 0 1.41.33z"/><path d="m185.23 36.1c.35-.09.81-.18 1.38-.28a12.78 12.78 0 0 1 2-.14 4.29 4.29 0 0 1 1.67.28 2.69 2.69 0 0 1 1.06.8 3.12 3.12 0 0 1 .56 1.22 7.58 7.58 0 0 1 .16 1.57v4.73h-1.51v-4.41a7.17 7.17 0 0 0 -.1-1.32 2.21 2.21 0 0 0 -.35-.89 1.35 1.35 0 0 0 -.65-.5 2.89 2.89 0 0 0 -1-.15h-.51-.49l-.42.06-.27.05v7.11h-1.51z"/><path d="m203.7 39.58c.18.22.39.5.66.85s.54.74.82 1.17.56.87.83 1.34a13.53 13.53 0 0 1 .71 1.34h-1.72c-.22-.41-.45-.83-.71-1.25s-.51-.82-.77-1.2-.51-.75-.76-1.08l-.69-.88a3.1 3.1 0 0 1 -.43 0h-1.86v4.39h-1.57v-11.04a8.89 8.89 0 0 1 1.48-.22q.83-.06 1.5-.06a6.18 6.18 0 0 1 3.61.89 3.42 3.42 0 0 1 .64 4.57 3.44 3.44 0 0 1 -1.74 1.18zm-2.38-5.26c-.67 0-1.18 0-1.54 0v4.28h1.12a10.68 10.68 0 0 0 1.46-.09 3.27 3.27 0 0 0 1.09-.3 1.65 1.65 0 0 0 .69-.64 2.19 2.19 0 0 0 .24-1.1 2.09 2.09 0 0 0 -.24-1 1.74 1.74 0 0 0 -.66-.66 2.53 2.53 0 0 0 -1-.34 6.44 6.44 0 0 0 -1.16-.15z"/><path d="m207.75 39.89a5.27 5.27 0 0 1 .33-2 4 4 0 0 1 .86-1.39 3.41 3.41 0 0 1 1.23-.82 3.71 3.71 0 0 1 1.42-.28 3.25 3.25 0 0 1 2.61 1.06 4.86 4.86 0 0 1 .91 3.23v.31a2.46 2.46 0 0 1 0 .28h-5.77a3.07 3.07 0 0 0 .77 2 2.75 2.75 0 0 0 2.07.68 5.33 5.33 0 0 0 2.15-.4l.21 1.26a4.27 4.27 0 0 1 -1 .31 6.74 6.74 0 0 1 -1.56.16 5 5 0 0 1 -1.91-.33 3.6 3.6 0 0 1 -1.32-.92 3.88 3.88 0 0 1 -.77-1.38 6.13 6.13 0 0 1 -.23-1.77zm5.79-.83a2.52 2.52 0 0 0 -.51-1.67 1.77 1.77 0 0 0 -1.45-.66 2.08 2.08 0 0 0 -.92.2 2.19 2.19 0 0 0 -.67.53 2.33 2.33 0 0 0 -.43.75 3.62 3.62 0 0 0 -.2.85z"/><path d="m222.48 43.44a3.57 3.57 0 0 1 -.75.33 3.76 3.76 0 0 1 -1.31.2 4.21 4.21 0 0 1 -1.43-.24 3.13 3.13 0 0 1 -1.18-.75 3.7 3.7 0 0 1 -.79-1.27 5 5 0 0 1 -.29-1.82 5.08 5.08 0 0 1 .27-1.69 3.87 3.87 0 0 1 .8-1.33 3.84 3.84 0 0 1 1.29-.88 4.47 4.47 0 0 1 1.72-.31 10 10 0 0 1 1.84.15c.52.11 1 .2 1.32.29v7.51a3.55 3.55 0 0 1 -1 2.82 4.49 4.49 0 0 1 -3 .88 8.91 8.91 0 0 1 -1.5-.13 8.61 8.61 0 0 1 -1.22-.31l.27-1.31a6.62 6.62 0 0 0 1.11.31 6.84 6.84 0 0 0 1.37.11 2.9 2.9 0 0 0 1.94-.53 2.22 2.22 0 0 0 .59-1.7zm0-6.25a3.91 3.91 0 0 0 -.61-.13 8.82 8.82 0 0 0 -1-.05 2.31 2.31 0 0 0 -1.88.79 3.24 3.24 0 0 0 -.65 2.11 3.78 3.78 0 0 0 .18 1.24 2.48 2.48 0 0 0 .48.85 1.93 1.93 0 0 0 .73.51 2.42 2.42 0 0 0 .85.16 3.52 3.52 0 0 0 1.1-.17 2.9 2.9 0 0 0 .79-.4z"/><path d="m227.22 34.33a1 1 0 0 1 -.68-.26 1 1 0 0 1 -.29-.72.92.92 0 0 1 .29-.72.94.94 0 0 1 .68-.27 1 1 0 0 1 .69.27.92.92 0 0 1 .29.72 1 1 0 0 1 -.29.72 1 1 0 0 1 -.69.26zm.77 10h-1.51v-8.47h1.52z"/><path d="m237.93 39.87a5.23 5.23 0 0 1 -.29 1.82 4.09 4.09 0 0 1 -.82 1.39 3.6 3.6 0 0 1 -1.25.9 4.11 4.11 0 0 1 -3.18 0 3.6 3.6 0 0 1 -1.25-.9 4.09 4.09 0 0 1 -.82-1.39 5.79 5.79 0 0 1 0-3.62 4 4 0 0 1 .82-1.4 3.6 3.6 0 0 1 1.25-.9 4.11 4.11 0 0 1 3.18 0 3.6 3.6 0 0 1 1.25.9 4 4 0 0 1 .82 1.4 5.19 5.19 0 0 1 .29 1.8zm-1.57 0a3.61 3.61 0 0 0 -.64-2.26 2.1 2.1 0 0 0 -1.74-.83 2.07 2.07 0 0 0 -1.74.83 3.61 3.61 0 0 0 -.64 2.26 3.57 3.57 0 0 0 .64 2.26 2.05 2.05 0 0 0 1.76.87 2.08 2.08 0 0 0 1.74-.84 3.57 3.57 0 0 0 .62-2.29z"/><path d="m240 36.1c.35-.09.81-.18 1.38-.28a12.78 12.78 0 0 1 2-.14 4.29 4.29 0 0 1 1.62.32 2.69 2.69 0 0 1 1.06.8 3.12 3.12 0 0 1 .56 1.22 7.58 7.58 0 0 1 .16 1.57v4.73h-1.51v-4.45a7.17 7.17 0 0 0 -.1-1.32 2.21 2.21 0 0 0 -.35-.89 1.4 1.4 0 0 0 -.65-.5 3 3 0 0 0 -1-.15h-.5-.49l-.42.06-.27.05v7.11h-1.49z"/><path d="m251.91 35.48a4.24 4.24 0 0 1 1.53.24 2.36 2.36 0 0 1 1.56 1.68 4.9 4.9 0 0 1 .16 1.31v5.29l-.54.09c-.23 0-.49.08-.79.11l-.94.09c-.34 0-.68 0-1 0a5.41 5.41 0 0 1 -1.31-.15 2.94 2.94 0 0 1 -1-.46 2.16 2.16 0 0 1 -.69-.83 3 3 0 0 1 -.24-1.25 2.37 2.37 0 0 1 .29-1.2 2.12 2.12 0 0 1 .76-.81 3.4 3.4 0 0 1 1.14-.45 6 6 0 0 1 1.36-.15h.47l.46.07.38.07.23.05v-.42a3.72 3.72 0 0 0 -.08-.74 1.82 1.82 0 0 0 -.29-.65 1.56 1.56 0 0 0 -.58-.45 2.31 2.31 0 0 0 -.95-.17 7.09 7.09 0 0 0 -1.3.11 5.6 5.6 0 0 0 -.84.21l-.17-1.24a4.19 4.19 0 0 1 1-.25 8.37 8.37 0 0 1 1.38-.1zm.09 7.52h1a5.09 5.09 0 0 0 .69-.09v-2.5a2.28 2.28 0 0 0 -.53-.14 5.52 5.52 0 0 0 -.88-.06 6.09 6.09 0 0 0 -.72 0 2.2 2.2 0 0 0 -.7.21 1.54 1.54 0 0 0 -.53.42 1.1 1.1 0 0 0 -.21.7 1.23 1.23 0 0 0 .52 1.13 2.73 2.73 0 0 0 1.36.33z"/><path d="m260.09 44.28a2.85 2.85 0 0 1 -2-.6 2.35 2.35 0 0 1 -.59-1.76v-10.11l1.51-.26v10.12a2.65 2.65 0 0 0 .06.62.84.84 0 0 0 .6.61 5.76 5.76 0 0 0 .6.12z"/><path d="m134 58.41a6.59 6.59 0 0 1 -.45 2.54 4.66 4.66 0 0 1 -1.28 1.78 5.37 5.37 0 0 1 -2 1.05 8.46 8.46 0 0 1 -2.53.35c-.45 0-1 0-1.49-.06a9.06 9.06 0 0 1 -1.49-.21v-10.86a9 9 0 0 1 1.49-.22c.54 0 1-.06 1.49-.06a8.79 8.79 0 0 1 2.53.35 5.39 5.39 0 0 1 2 1.06 4.66 4.66 0 0 1 1.28 1.78 6.53 6.53 0 0 1 .45 2.5zm-6.11 4.34a4.44 4.44 0 0 0 3.34-1.14 5.2 5.2 0 0 0 0-6.4 4.44 4.44 0 0 0 -3.34-1.14h-1-.51v8.59h.51z"/><path d="m135.7 59.74a5.32 5.32 0 0 1 .32-2 4.1 4.1 0 0 1 .86-1.39 3.59 3.59 0 0 1 1.23-.82 3.72 3.72 0 0 1 1.43-.28 3.25 3.25 0 0 1 2.6 1.06 4.88 4.88 0 0 1 .91 3.24v.25a2.53 2.53 0 0 1 0 .28h-5.77a3.07 3.07 0 0 0 .76 2 2.75 2.75 0 0 0 2.07.68 5.67 5.67 0 0 0 1.34-.13 7.12 7.12 0 0 0 .82-.27l.21 1.26a4.6 4.6 0 0 1 -1 .31 6.74 6.74 0 0 1 -1.56.16 5 5 0 0 1 -1.9-.33 3.44 3.44 0 0 1 -1.32-.92 3.6 3.6 0 0 1 -.7-1.34 5.8 5.8 0 0 1 -.3-1.76zm5.78-.82a2.53 2.53 0 0 0 -.51-1.68 1.75 1.75 0 0 0 -1.45-.66 2.08 2.08 0 0 0 -.92.2 2.49 2.49 0 0 0 -.67.53 2.53 2.53 0 0 0 -.43.75 3.59 3.59 0 0 0 -.2.86z"/><path d="m151.72 55.71a43.67 43.67 0 0 1 -1.48 4.53c-.57 1.45-1.12 2.75-1.65 3.89h-1.36c-.53-1.14-1.08-2.44-1.64-3.89a41.43 41.43 0 0 1 -1.49-4.53h1.62c.13.53.29 1.09.47 1.69s.36 1.19.56 1.78.4 1.16.61 1.71.4 1 .58 1.48c.19-.44.38-.93.59-1.48s.4-1.12.6-1.71.39-1.18.57-1.78.33-1.16.46-1.69z"/><path d="m152.5 59.74a5.32 5.32 0 0 1 .32-2 4.1 4.1 0 0 1 .86-1.39 3.41 3.41 0 0 1 1.23-.82 3.72 3.72 0 0 1 1.43-.28 3.25 3.25 0 0 1 2.6 1.06 4.88 4.88 0 0 1 .91 3.24v.25a2.46 2.46 0 0 1 0 .28h-5.76a3.07 3.07 0 0 0 .76 2 2.75 2.75 0 0 0 2.07.68 5.67 5.67 0 0 0 1.34-.13 7.12 7.12 0 0 0 .82-.27l.21 1.26a4.6 4.6 0 0 1 -1 .31 6.74 6.74 0 0 1 -1.56.16 5 5 0 0 1 -1.9-.33 3.44 3.44 0 0 1 -1.32-.92 3.6 3.6 0 0 1 -.77-1.38 5.8 5.8 0 0 1 -.24-1.72zm5.78-.82a2.53 2.53 0 0 0 -.51-1.68 1.76 1.76 0 0 0 -1.45-.66 2.08 2.08 0 0 0 -.92.2 2.35 2.35 0 0 0 -.67.53 2.53 2.53 0 0 0 -.43.75 3.59 3.59 0 0 0 -.2.86z"/><path d="m164.47 64.13a2.88 2.88 0 0 1 -2-.6 2.35 2.35 0 0 1 -.58-1.76v-10.11l1.5-.26v10.12a2.59 2.59 0 0 0 .07.62.82.82 0 0 0 .21.39 1 1 0 0 0 .39.22 4.86 4.86 0 0 0 .6.12z"/><path d="m173.72 59.72a5.47 5.47 0 0 1 -.29 1.82 4.26 4.26 0 0 1 -.82 1.39 3.55 3.55 0 0 1 -1.26.9 4.09 4.09 0 0 1 -3.17 0 3.55 3.55 0 0 1 -1.26-.9 4.26 4.26 0 0 1 -.82-1.39 5.79 5.79 0 0 1 0-3.62 4.21 4.21 0 0 1 .82-1.4 3.55 3.55 0 0 1 1.26-.9 4.09 4.09 0 0 1 3.17 0 3.55 3.55 0 0 1 1.26.9 4.21 4.21 0 0 1 .82 1.4 5.44 5.44 0 0 1 .29 1.8zm-1.58 0a3.67 3.67 0 0 0 -.63-2.26 2.25 2.25 0 0 0 -3.49 0 3.68 3.68 0 0 0 -.64 2.26 3.64 3.64 0 0 0 .62 2.28 2.23 2.23 0 0 0 3.49 0 3.63 3.63 0 0 0 .65-2.28z"/><path d="m183.18 59.94a6.18 6.18 0 0 1 -.25 1.76 4 4 0 0 1 -.74 1.39 3.24 3.24 0 0 1 -1.19.91 3.77 3.77 0 0 1 -1.61.33 3.88 3.88 0 0 1 -1.29-.2 4 4 0 0 1 -.83-.37v3.37h-1.51v-11.13c.35-.09.8-.18 1.34-.29a10.1 10.1 0 0 1 1.85-.15 4.62 4.62 0 0 1 1.75.31 3.66 3.66 0 0 1 1.33.87 4 4 0 0 1 .85 1.39 5.3 5.3 0 0 1 .3 1.81zm-1.57 0a3.26 3.26 0 0 0 -.73-2.27 2.53 2.53 0 0 0 -1.95-.8 9.48 9.48 0 0 0 -1.06.05 3.15 3.15 0 0 0 -.6.12v5.31a3.18 3.18 0 0 0 1.92.65 2.39 2.39 0 0 0 1.11-.24 2 2 0 0 0 .76-.65 2.77 2.77 0 0 0 .42-1 5.66 5.66 0 0 0 .13-1.17z"/><path d="m185.22 56c.35-.09.8-.18 1.37-.28a12.55 12.55 0 0 1 2-.14 3.62 3.62 0 0 1 1.36.22 2.39 2.39 0 0 1 .92.64l.36-.23a3.39 3.39 0 0 1 .6-.28 6.15 6.15 0 0 1 .79-.25 4 4 0 0 1 .94-.1 3.81 3.81 0 0 1 1.59.28 2.3 2.3 0 0 1 1 .8 3.18 3.18 0 0 1 .47 1.24 9.29 9.29 0 0 1 .12 1.55v4.73h-1.5v-4.46a9.15 9.15 0 0 0 -.08-1.27 2.66 2.66 0 0 0 -.27-.9 1.31 1.31 0 0 0 -.55-.52 2 2 0 0 0 -.9-.17 3.46 3.46 0 0 0 -1.26.2 2.9 2.9 0 0 0 -.67.36 5.1 5.1 0 0 1 .19.93 7 7 0 0 1 .07 1v4.73h-1.51v-4.36a7.82 7.82 0 0 0 -.08-1.27 2.65 2.65 0 0 0 -.28-.9 1.31 1.31 0 0 0 -.55-.52 1.94 1.94 0 0 0 -.89-.17h-.48-.5l-.48.14-.25.05v7.11h-1.51z"/><path d="m198.62 59.74a5.32 5.32 0 0 1 .32-2 4.1 4.1 0 0 1 .86-1.39 3.59 3.59 0 0 1 1.23-.82 3.72 3.72 0 0 1 1.43-.28 3.25 3.25 0 0 1 2.6 1.06 4.88 4.88 0 0 1 .94 3.29v.25a2.53 2.53 0 0 1 0 .28h-5.77a3.07 3.07 0 0 0 .76 2 2.75 2.75 0 0 0 2.07.68 5.67 5.67 0 0 0 1.34-.13 7.12 7.12 0 0 0 .82-.27l.21 1.26a4.6 4.6 0 0 1 -1 .31 6.68 6.68 0 0 1 -1.56.16 5 5 0 0 1 -1.9-.33 3.44 3.44 0 0 1 -1.32-.92 3.6 3.6 0 0 1 -.77-1.38 5.8 5.8 0 0 1 -.26-1.77zm5.78-.82a2.53 2.53 0 0 0 -.51-1.68 1.75 1.75 0 0 0 -1.45-.66 2.08 2.08 0 0 0 -.92.2 2.49 2.49 0 0 0 -.67.53 2.77 2.77 0 0 0 -.43.75 3.59 3.59 0 0 0 -.2.86z"/><path d="m208.06 56c.35-.09.81-.18 1.38-.28a12.74 12.74 0 0 1 2-.14 4.25 4.25 0 0 1 1.67.28 2.55 2.55 0 0 1 1.06.8 2.86 2.86 0 0 1 .56 1.22 7 7 0 0 1 .16 1.57v4.73h-1.5v-4.46a7.08 7.08 0 0 0 -.11-1.32 2.08 2.08 0 0 0 -.35-.89 1.32 1.32 0 0 0 -.64-.5 3 3 0 0 0 -1-.15h-.5-.49l-.42.06-.27.05v7.11h-1.51z"/><path d="m218.69 55.51h3.19v1.27h-3.19v3.88a5.06 5.06 0 0 0 .09 1.05 1.71 1.71 0 0 0 .3.65 1.15 1.15 0 0 0 .48.33 2.32 2.32 0 0 0 .68.1 3 3 0 0 0 1.1-.16l.57-.22.29 1.25a4.63 4.63 0 0 1 -.79.28 4.3 4.3 0 0 1 -1.3.18 4 4 0 0 1 -1.41-.22 2 2 0 0 1 -.9-.66 2.55 2.55 0 0 1 -.48-1.08 7.16 7.16 0 0 1 -.14-1.48v-7.52l1.51-.26z"/><path d="m227.47 64.13v-11.23h6.77v1.35h-5.24v3.39h4.62v1.36h-4.62v5.17z"/><path d="m242.29 63.71c-.35.09-.8.18-1.37.28a12.64 12.64 0 0 1 -2 .14 4.14 4.14 0 0 1 -1.63-.28 2.65 2.65 0 0 1 -1.07-.8 3.35 3.35 0 0 1 -.59-1.23 6.84 6.84 0 0 1 -.17-1.56v-4.73h1.54v4.41a3.76 3.76 0 0 0 .49 2.2 1.89 1.89 0 0 0 1.63.66h.51.48.42l.26-.06v-7.21h1.51z"/><path d="m244.8 56c.35-.09.81-.18 1.38-.28a12.74 12.74 0 0 1 2-.14 4.25 4.25 0 0 1 1.67.28 2.55 2.55 0 0 1 1.06.8 2.86 2.86 0 0 1 .56 1.22 7 7 0 0 1 .16 1.57v4.73h-1.5v-4.46a7.08 7.08 0 0 0 -.13-1.32 2.08 2.08 0 0 0 -.35-.89 1.32 1.32 0 0 0 -.65-.51 3 3 0 0 0 -1-.15h-.5-.49l-.42.06-.27.05v7.11h-1.52z"/><path d="m259.46 51.62 1.51-.25v12.32c-.35.1-.79.2-1.33.3a11.37 11.37 0 0 1 -1.86.14 4.62 4.62 0 0 1 -1.75-.31 3.66 3.66 0 0 1 -1.33-.82 3.83 3.83 0 0 1 -.85-1.39 5.26 5.26 0 0 1 -.3-1.84 5.94 5.94 0 0 1 .25-1.78 3.94 3.94 0 0 1 .74-1.39 3.35 3.35 0 0 1 1.19-.91 4.09 4.09 0 0 1 3.73.25zm0 5.67a3.14 3.14 0 0 0 -.79-.43 3 3 0 0 0 -1.14-.21 2.45 2.45 0 0 0 -1.1.23 2.08 2.08 0 0 0 -.76.65 2.91 2.91 0 0 0 -.42 1 5.22 5.22 0 0 0 -.13 1.21 3.24 3.24 0 0 0 .73 2.28 2.48 2.48 0 0 0 1.94.8 9.55 9.55 0 0 0 1 0 3.91 3.91 0 0 0 .64-.13z"/><path d="m124.93 21.61v-17.01h10.92v2.62h-7.85v4.2h7v2.58h-7v5h8.42v2.63z"/><path d="m149.13 21c-.57.14-1.32.3-2.23.45a17.74 17.74 0 0 1 -3 .23 6.55 6.55 0 0 1 -2.59-.44 4.12 4.12 0 0 1 -1.69-1.24 4.84 4.84 0 0 1 -.9-1.88 10 10 0 0 1 -.27-2.4v-7.22h3v6.73a5.43 5.43 0 0 0 .6 2.94 2.37 2.37 0 0 0 2.1.89h1.15a7.15 7.15 0 0 0 .89-.12v-10.44h3z"/><path d="m160.08 11.45a10.46 10.46 0 0 0 -1-.26 7.46 7.46 0 0 0 -1.51-.14 6.51 6.51 0 0 0 -1 .1c-.37.07-.63.13-.78.17v10.29h-3v-12.22a15.71 15.71 0 0 1 2.15-.61 13.94 13.94 0 0 1 2.86-.28 6 6 0 0 1 .69 0c.26 0 .52.06.79.1l.76.14.59.16z"/><path d="m174.12 14.86a8.38 8.38 0 0 1 -.44 2.77 6.2 6.2 0 0 1 -1.25 2.14 5.51 5.51 0 0 1 -2 1.37 6.29 6.29 0 0 1 -2.52.49 6.13 6.13 0 0 1 -2.5-.49 5.48 5.48 0 0 1 -1.94-1.37 6.24 6.24 0 0 1 -1.27-2.14 8.13 8.13 0 0 1 -.45-2.77 8 8 0 0 1 .45-2.76 6.15 6.15 0 0 1 1.33-2.1 5.81 5.81 0 0 1 1.95-1.36 6.27 6.27 0 0 1 2.52-.51 6.35 6.35 0 0 1 2.49.48 5.62 5.62 0 0 1 2 1.36 6.45 6.45 0 0 1 1.27 2.13 8 8 0 0 1 .36 2.76zm-3 0a5 5 0 0 0 -.83-3 2.66 2.66 0 0 0 -2.29-1.15 2.69 2.69 0 0 0 -2.3 1.12 5 5 0 0 0 -.82 3 5.18 5.18 0 0 0 .82 3.07 2.7 2.7 0 0 0 2.3 1.13 2.67 2.67 0 0 0 2.29-1.13 5.11 5.11 0 0 0 .79-3.04z"/><path d="m188.6 15.2a8.86 8.86 0 0 1 -.38 2.7 6 6 0 0 1 -1.09 2.1 4.86 4.86 0 0 1 -1.78 1.38 5.69 5.69 0 0 1 -2.42.49 5.92 5.92 0 0 1 -1.67-.22 6.65 6.65 0 0 1 -1.25-.49v5h-3v-17c.61-.16 1.35-.32 2.24-.47a17.73 17.73 0 0 1 2.79-.22 7.51 7.51 0 0 1 2.76.53 5.62 5.62 0 0 1 2 1.34 5.87 5.87 0 0 1 1.3 2.11 8.07 8.07 0 0 1 .5 2.75zm-3 .05a4.78 4.78 0 0 0 -.9-3.09 3.48 3.48 0 0 0 -2.88-1.11c-.28 0-.57 0-.87 0a5.47 5.47 0 0 0 -.9.16v7.34a4.3 4.3 0 0 0 1.05.5 3.93 3.93 0 0 0 1.38.24 2.66 2.66 0 0 0 2.37-1.11 5.18 5.18 0 0 0 .71-2.93z"/><path d="m190.81 15a8 8 0 0 1 .51-3 6.33 6.33 0 0 1 1.33-2.13 5.55 5.55 0 0 1 1.92-1.27 5.87 5.87 0 0 1 2.21-.43 5.33 5.33 0 0 1 4.14 1.64 7.19 7.19 0 0 1 1.48 4.91v.55s0 .39 0 .56h-8.47a3.39 3.39 0 0 0 1.07 2.38 4.2 4.2 0 0 0 2.82.85 9.25 9.25 0 0 0 2-.2 7.62 7.62 0 0 0 1.41-.42l.4 2.43a4.08 4.08 0 0 1 -.68.26c-.29.09-.61.17-1 .25s-.77.13-1.19.18a11.2 11.2 0 0 1 -1.3.07 7.82 7.82 0 0 1 -2.95-.5 5.42 5.42 0 0 1 -2.06-1.4 5.64 5.64 0 0 1 -1.2-2.11 8.38 8.38 0 0 1 -.44-2.62zm8.62-1.33a4 4 0 0 0 -.17-1.16 2.76 2.76 0 0 0 -.51-1 2.42 2.42 0 0 0 -.81-.64 2.6 2.6 0 0 0 -1.14-.23 2.68 2.68 0 0 0 -1.2.25 2.92 2.92 0 0 0 -.87.68 3 3 0 0 0 -.55 1 5.36 5.36 0 0 0 -.27 1.1z"/><path d="m209.67 8.21a7.1 7.1 0 0 1 2.47.37 3.77 3.77 0 0 1 1.61 1 3.81 3.81 0 0 1 .86 1.6 8 8 0 0 1 .26 2.08v7.78q-.69.15-2.07.36a21.21 21.21 0 0 1 -3.13.2 9.18 9.18 0 0 1 -2.11-.22 4.3 4.3 0 0 1 -1.64-.71 3.34 3.34 0 0 1 -1-1.27 4.36 4.36 0 0 1 -.38-1.94 3.72 3.72 0 0 1 .43-1.87 3.45 3.45 0 0 1 1.16-1.24 5 5 0 0 1 1.71-.69 9.48 9.48 0 0 1 2-.21 9.38 9.38 0 0 1 1 .07 11.32 11.32 0 0 1 1.16.2v-.49a3.93 3.93 0 0 0 -.12-1 2.22 2.22 0 0 0 -.43-.82 2 2 0 0 0 -.81-.55 3.56 3.56 0 0 0 -1.27-.2 11 11 0 0 0 -1.89.15 8.71 8.71 0 0 0 -1.4.34l-.37-2.4a11.75 11.75 0 0 1 1.65-.4 13 13 0 0 1 2.31-.14zm.24 11.07a10.91 10.91 0 0 0 2.09-.15v-3.29a6 6 0 0 0 -.71-.15 6.58 6.58 0 0 0 -1-.07 6.82 6.82 0 0 0 -1 .07 3.22 3.22 0 0 0 -.91.27 1.77 1.77 0 0 0 -.65.56 1.53 1.53 0 0 0 -.24.89 1.57 1.57 0 0 0 .66 1.46 3.41 3.41 0 0 0 1.76.41z"/><path d="m218.36 9.19a20.87 20.87 0 0 1 2.23-.47 20.18 20.18 0 0 1 3-.22 6.92 6.92 0 0 1 2.63.43 4.22 4.22 0 0 1 1.68 1.2 4.71 4.71 0 0 1 .89 1.87 10.56 10.56 0 0 1 .25 2.39v7.22h-3v-6.75a9.89 9.89 0 0 0 -.04-1.76 3.14 3.14 0 0 0 -.44-1.17 1.79 1.79 0 0 0 -.84-.67 3.48 3.48 0 0 0 -1.29-.21 9.88 9.88 0 0 0 -1.18.08l-.9.12v10.36h-3z"/><path d="m244.84 21.63a7.9 7.9 0 0 1 -3-.5 5.41 5.41 0 0 1 -2.08-1.41 5.87 5.87 0 0 1 -1.21-2.14 8.8 8.8 0 0 1 -.39-2.7v-10.63h3.11v10.34a6.74 6.74 0 0 0 .26 2 3.42 3.42 0 0 0 .74 1.33 2.79 2.79 0 0 0 1.13.76 4 4 0 0 0 1.46.25 4 4 0 0 0 1.47-.25 2.83 2.83 0 0 0 1.14-.76 3.42 3.42 0 0 0 .74-1.33 6.74 6.74 0 0 0 .26-2v-10.34h3.11v10.63a8.51 8.51 0 0 1 -.4 2.7 5.91 5.91 0 0 1 -1.18 2.14 5.41 5.41 0 0 1 -2.1 1.41 8.1 8.1 0 0 1 -3.06.5z"/><path d="m255.25 9.19a21.43 21.43 0 0 1 2.23-.47 20.32 20.32 0 0 1 3-.22 7 7 0 0 1 2.63.43 4.22 4.22 0 0 1 1.68 1.2 4.7 4.7 0 0 1 .88 1.87 10.55 10.55 0 0 1 .26 2.39v7.22h-3v-6.75a9.8 9.8 0 0 0 -.14-1.76 3 3 0 0 0 -.44-1.17 1.72 1.72 0 0 0 -.83-.67 3.52 3.52 0 0 0 -1.29-.21 9.75 9.75 0 0 0 -1.18.08l-.91.12v10.36h-3z"/><path d="m272.78 5a1.7 1.7 0 0 1 -.54 1.32 1.94 1.94 0 0 1 -2.58 0 1.7 1.7 0 0 1 -.54-1.32 1.71 1.71 0 0 1 .54-1.35 1.91 1.91 0 0 1 2.58 0 1.71 1.71 0 0 1 .54 1.35zm-.32 16.59h-3v-12.82h3z"/><path d="m287.7 14.86a8.13 8.13 0 0 1 -.44 2.77 6 6 0 0 1 -1.26 2.14 5.51 5.51 0 0 1 -1.95 1.37 6.26 6.26 0 0 1 -2.52.49 6.13 6.13 0 0 1 -2.5-.49 5.48 5.48 0 0 1 -1.94-1.37 6.4 6.4 0 0 1 -1.27-2.14 8.13 8.13 0 0 1 -.45-2.77 8 8 0 0 1 .45-2.76 6.31 6.31 0 0 1 1.29-2.1 5.81 5.81 0 0 1 1.95-1.36 6.67 6.67 0 0 1 5 0 5.62 5.62 0 0 1 1.94 1.36 6.29 6.29 0 0 1 1.27 2.13 8 8 0 0 1 .43 2.73zm-3 0a5 5 0 0 0 -.82-3 2.69 2.69 0 0 0 -2.3-1.12 2.66 2.66 0 0 0 -2.29 1.12 5 5 0 0 0 -.83 3 5.11 5.11 0 0 0 .83 3.07 2.67 2.67 0 0 0 2.29 1.13 2.7 2.7 0 0 0 2.3-1.13 5.11 5.11 0 0 0 .78-3.07z"/><path d="m290.62 9.19a21.69 21.69 0 0 1 2.24-.47 20.08 20.08 0 0 1 3-.22 7 7 0 0 1 2.63.43 4.22 4.22 0 0 1 1.68 1.2 4.57 4.57 0 0 1 .88 1.87 10 10 0 0 1 .26 2.39v7.22h-3v-6.75a9.89 9.89 0 0 0 -.13-1.76 3 3 0 0 0 -.45-1.17 1.72 1.72 0 0 0 -.83-.67 3.48 3.48 0 0 0 -1.29-.21 9.75 9.75 0 0 0 -1.18.08l-.91.12v10.36h-3z"/></g></svg>