<svg preserveAspectRatio="xMidYMid meet" viewBox="0 0 298.24 68.02" xmlns="http://www.w3.org/2000/svg"><path d="m196.21 0h102.04v68.02h-102.04z" fill="#164193"/><path d="m245.05 14.83 2.16-1.58 2.15 1.58-.82-2.54 2.18-1.58h-2.69l-.82-2.57-.83 2.57h-2.7l2.18 1.58z" fill="#ffec00"/><path d="m233.91 17.82 2.15-1.58 2.16 1.58-.83-2.54 2.19-1.58h-2.69l-.83-2.57-.82 2.58-2.7-.01 2.19 1.58z" fill="#ffec00"/><path d="m227.91 19.3-.83 2.58h-2.69l2.18 1.57-.82 2.54 2.16-1.57 2.15 1.57-.82-2.54 2.19-1.57h-2.7z" fill="#ffec00"/><path d="m224.92 35.54 2.14 1.58-.81-2.54 2.19-1.57h-2.7l-.82-2.58-.83 2.58h-2.7l2.19 1.57-.82 2.54z" fill="#ffec00"/><path d="m228.73 44.16-.83-2.57-.82 2.57h-2.69l2.18 1.58-.82 2.54 2.15-1.58 2.16 1.58-.82-2.54 2.19-1.58z" fill="#ffec00"/><path d="m236.9 52.33-.83-2.57-.82 2.58-2.7-.01 2.19 1.58-.82 2.54 2.15-1.58 2.16 1.58-.82-2.54 2.19-1.58z" fill="#ffec00"/><path d="m248.03 55.29-.82-2.58-.83 2.58h-2.7l2.19 1.57-.82 2.54 2.16-1.57 2.15 1.57-.83-2.54 2.2-1.57z" fill="#ffec00"/><path d="m259.16 52.33-.83-2.57-.83 2.58-2.68-.01 2.17 1.58-.81 2.54 2.15-1.58 2.16 1.58-.82-2.54 2.19-1.58z" fill="#ffec00"/><path d="m267.33 44.16-.83-2.57-.82 2.57h-2.69l2.18 1.58-.83 2.54 2.16-1.58 2.16 1.58-.82-2.54 2.19-1.58z" fill="#ffec00"/><path d="m272.98 32.97h-2.7l-.81-2.58-.84 2.58h-2.69l2.19 1.58-.83 2.54 2.17-1.58 2.15 1.58-.82-2.54z" fill="#ffec00"/><path d="m264.34 25.95 2.16-1.56 2.16 1.56-.82-2.54 2.19-1.56h-2.7l-.83-2.59-.82 2.59h-2.69l2.18 1.56z" fill="#ffec00"/><path d="m258.36 11.13-.81 2.58-2.71-.01 2.19 1.58-.81 2.54 2.16-1.58 2.14 1.58-.82-2.54 2.19-1.58h-2.7z" fill="#ffec00"/><g fill="#1d1d1b"><path d="m0 43.28v-11.23h6.85v1.35h-5.28v3.34h4.7v1.31h-4.7v3.89h5.69v1.34z"/><path d="m15.47 42.86c-.34.09-.8.18-1.37.27a11.37 11.37 0 0 1 -2 .15 4.14 4.14 0 0 1 -1.6-.28 2.58 2.58 0 0 1 -1.07-.81 3.07 3.07 0 0 1 -.58-1.19 6.3 6.3 0 0 1 -.18-1.56v-4.76h1.5v4.4a3.88 3.88 0 0 0 .49 2.21 1.9 1.9 0 0 0 1.64.71h.5.48.42l.26-.06v-7.26h1.51z"/><path d="m21.09 34.68h.45l.49.07.45.08.3.07-.26 1.31-.59-.15a5.16 5.16 0 0 0 -1.06-.06 3.93 3.93 0 0 0 -.84.09l-.54.12v7.08h-1.49v-8.08a9.87 9.87 0 0 1 1.33-.36 8.75 8.75 0 0 1 1.76-.17z"/><path d="m31.59 38.87a5.47 5.47 0 0 1 -.29 1.82 4.26 4.26 0 0 1 -.82 1.39 3.55 3.55 0 0 1 -1.26.9 3.91 3.91 0 0 1 -1.58.32 4 4 0 0 1 -1.59-.3 3.55 3.55 0 0 1 -1.26-.9 4.07 4.07 0 0 1 -.79-1.41 5.61 5.61 0 0 1 0-3.62 4 4 0 0 1 .81-1.4 3.55 3.55 0 0 1 1.26-.9 4 4 0 0 1 1.59-.32 3.91 3.91 0 0 1 1.58.32 3.55 3.55 0 0 1 1.26.9 4.21 4.21 0 0 1 .82 1.4 5.44 5.44 0 0 1 .27 1.8zm-1.57 0a3.68 3.68 0 0 0 -.64-2.26 2.1 2.1 0 0 0 -1.74-.83 2.07 2.07 0 0 0 -1.74.83 3.61 3.61 0 0 0 -.64 2.26 3.59 3.59 0 0 0 .64 2.26 2.05 2.05 0 0 0 1.74.84 2.08 2.08 0 0 0 1.74-.84 3.66 3.66 0 0 0 .62-2.26z"/><path d="m41.05 39.08a5.87 5.87 0 0 1 -.25 1.77 3.94 3.94 0 0 1 -.74 1.39 3.35 3.35 0 0 1 -1.19.91 3.76 3.76 0 0 1 -1.61.32 3.89 3.89 0 0 1 -1.26-.19 4 4 0 0 1 -.83-.37v3.37h-1.54v-11.16c.36-.09.8-.19 1.34-.29a10.1 10.1 0 0 1 1.85-.15 4.62 4.62 0 0 1 1.75.31 3.66 3.66 0 0 1 1.33.87 3.83 3.83 0 0 1 .85 1.39 5.24 5.24 0 0 1 .3 1.83zm-1.57 0a3.2 3.2 0 0 0 -.73-2.26 2.51 2.51 0 0 0 -1.94-.8 9.22 9.22 0 0 0 -1.06 0 4.29 4.29 0 0 0 -.61.11v5.37a3.13 3.13 0 0 0 .79.44 3 3 0 0 0 1.14.21 2.39 2.39 0 0 0 1.11-.24 2 2 0 0 0 .75-.65 2.85 2.85 0 0 0 .42-1 5.1 5.1 0 0 0 .13-1.18z"/><path d="m42.62 38.89a5.27 5.27 0 0 1 .33-2 4.08 4.08 0 0 1 .85-1.39 3.53 3.53 0 0 1 1.2-.77 3.67 3.67 0 0 1 1.42-.28 3.27 3.27 0 0 1 2.61 1.06 4.92 4.92 0 0 1 .97 3.23v.26a2.46 2.46 0 0 1 0 .28h-5.81a3.12 3.12 0 0 0 .76 2 2.79 2.79 0 0 0 2.05.72 5.33 5.33 0 0 0 2.15-.4l.21 1.26a4.27 4.27 0 0 1 -1 .31 6.74 6.74 0 0 1 -1.56.16 5 5 0 0 1 -1.8-.33 3.6 3.6 0 0 1 -1.36-1 3.88 3.88 0 0 1 -.77-1.38 5.8 5.8 0 0 1 -.25-1.73zm5.78-.83a2.4 2.4 0 0 0 -.51-1.67 1.74 1.74 0 0 0 -1.44-.66 2 2 0 0 0 -.92.2 2.19 2.19 0 0 0 -.67.53 2.23 2.23 0 0 0 -.43.75 3.65 3.65 0 0 0 -.21.85z"/><path d="m50.69 46.31a3.64 3.64 0 0 1 -.5-.05 2.07 2.07 0 0 1 -.52-.13l.19-1.23.38.08h.38a1.27 1.27 0 0 0 1.11-.47 2.41 2.41 0 0 0 .34-1.41v-8.24h1.5v8.26a3.4 3.4 0 0 1 -.73 2.4 2.8 2.8 0 0 1 -2.15.79zm2.12-13a1 1 0 0 1 -.69-.26 1.08 1.08 0 0 1 0-1.45 1 1 0 0 1 1.38 0 1.08 1.08 0 0 1 0 1.45 1 1 0 0 1 -.69.28z"/><path d="m58 42a3 3 0 0 0 1.37-.24.82.82 0 0 0 .45-.78 1 1 0 0 0 -.44-.87 6.66 6.66 0 0 0 -1.38-.73c-.33-.13-.64-.27-.93-.4a3.06 3.06 0 0 1 -.77-.48 2 2 0 0 1 -.52-.66 2.13 2.13 0 0 1 -.2-1 2.15 2.15 0 0 1 .83-1.77 3.5 3.5 0 0 1 2.25-.66h.72l.66.1.54.12.37.11-.28 1.3a3.33 3.33 0 0 0 -.76-.27 5.05 5.05 0 0 0 -1.25-.13 2.26 2.26 0 0 0 -1.1.25.83.83 0 0 0 -.47.78 1.07 1.07 0 0 0 .11.49 1 1 0 0 0 .32.38 2.74 2.74 0 0 0 .54.31c.22.1.48.2.78.31s.76.3 1.07.45a3 3 0 0 1 .8.51 2 2 0 0 1 .51.7 2.59 2.59 0 0 1 .18 1 2 2 0 0 1 -.87 1.76 4.29 4.29 0 0 1 -2.47.6 6.23 6.23 0 0 1 -1.75-.19 6.85 6.85 0 0 1 -.85-.28l.27-1.3.83.3a4.76 4.76 0 0 0 1.44.29z"/><path d="m66.27 38.65a9.13 9.13 0 0 1 1 .92c.36.37.72.76 1.07 1.19s.68.86 1 1.3a12.39 12.39 0 0 1 .79 1.22h-1.73c-.23-.38-.49-.76-.79-1.16s-.61-.77-.93-1.12-.66-.7-1-1a8.59 8.59 0 0 0 -1-.76v4.05h-1.5v-12.29l1.5-.26v7.68l.86-.86c.32-.31.62-.63.93-1l.86-.93.69-.78h1.77c-.25.27-.52.56-.81.89l-.91 1-1 1z"/><path d="m72.35 33.33a1 1 0 0 1 -.69-.26 1.08 1.08 0 0 1 0-1.45 1 1 0 0 1 1.38 0 1.08 1.08 0 0 1 0 1.45 1 1 0 0 1 -.69.26zm.76 10h-1.51v-8.47h1.51z"/><path d="m79.38 43.28v-11.23h6.77v1.35h-5.15v3.38h4.62v1.33h-4.62v5.17z"/><path d="m94.2 42.86c-.34.09-.8.18-1.37.27a11.37 11.37 0 0 1 -2 .15 4.14 4.14 0 0 1 -1.6-.28 2.65 2.65 0 0 1 -1.07-.81 3.07 3.07 0 0 1 -.58-1.19 6.3 6.3 0 0 1 -.18-1.56v-4.76h1.5v4.4a3.88 3.88 0 0 0 .49 2.21 1.9 1.9 0 0 0 1.61.71h.5.48.42l.26-.06v-7.26h1.54z"/><path d="m96.71 35.1c.35-.09.81-.18 1.38-.28a12.78 12.78 0 0 1 2-.14 4.2 4.2 0 0 1 1.66.28 2.55 2.55 0 0 1 1.06.8 2.86 2.86 0 0 1 .56 1.22 6.93 6.93 0 0 1 .17 1.57v4.73h-1.54v-4.41a7.08 7.08 0 0 0 -.11-1.32 2.32 2.32 0 0 0 -.34-.9 1.44 1.44 0 0 0 -.65-.49 3 3 0 0 0 -1-.15h-.5-.49l-.42.06-.27.05v7.11h-1.51z"/><path d="m111.37 30.77 1.51-.26v12.33a12.18 12.18 0 0 1 -1.33.29 10.3 10.3 0 0 1 -1.86.15 4.62 4.62 0 0 1 -1.75-.31 3.66 3.66 0 0 1 -1.33-.87 3.83 3.83 0 0 1 -.85-1.39 5.3 5.3 0 0 1 -.3-1.84 5.94 5.94 0 0 1 .25-1.78 3.94 3.94 0 0 1 .74-1.39 3.35 3.35 0 0 1 1.19-.91 4.32 4.32 0 0 1 2.9-.13 4.57 4.57 0 0 1 .83.37zm0 5.67a3.14 3.14 0 0 0 -.79-.43 3 3 0 0 0 -1.13-.21 2.34 2.34 0 0 0 -1.11.23 2.08 2.08 0 0 0 -.76.65 2.82 2.82 0 0 0 -.42 1 5.22 5.22 0 0 0 -.13 1.21 3.24 3.24 0 0 0 .73 2.28 2.51 2.51 0 0 0 1.94.8 9.55 9.55 0 0 0 1-.05 3.91 3.91 0 0 0 .64-.13z"/><path d="m122.1 42.86c-.35.09-.8.18-1.37.27a11.45 11.45 0 0 1 -2 .15 4.19 4.19 0 0 1 -1.64-.28 2.72 2.72 0 0 1 -1.07-.81 3.37 3.37 0 0 1 -.58-1.22 6.3 6.3 0 0 1 -.18-1.56v-4.73h1.51v4.4a3.8 3.8 0 0 0 .49 2.21 1.89 1.89 0 0 0 1.63.66h.5.49.41l.27-.06v-7.21h1.51z"/><path d="m126.57 42a3 3 0 0 0 1.37-.24.83.83 0 0 0 .44-.78 1 1 0 0 0 -.43-.87 7 7 0 0 0 -1.45-.73l-.93-.4a3.47 3.47 0 0 1 -.77-.48 2.12 2.12 0 0 1 -.52-.66 2.28 2.28 0 0 1 -.19-1 2.15 2.15 0 0 1 .83-1.77 3.5 3.5 0 0 1 2.25-.66h.71l.66.1.55.12.36.11-.27 1.3a3.74 3.74 0 0 0 -.76-.27 5.11 5.11 0 0 0 -1.25-.13 2.26 2.26 0 0 0 -1.1.25.81.81 0 0 0 -.47.78 1 1 0 0 0 .43.87 2.26 2.26 0 0 0 .54.31c.21.1.47.2.78.31s.75.3 1.07.45a3 3 0 0 1 .8.51 2 2 0 0 1 .51.7 2.59 2.59 0 0 1 .18 1 2 2 0 0 1 -.87 1.76 4.31 4.31 0 0 1 -2.47.6 6.18 6.18 0 0 1 -1.75-.19 7.19 7.19 0 0 1 -.86-.28l.28-1.3.82.3a4.79 4.79 0 0 0 1.51.29z"/><path d="m137.34 36q-.34.38-.9 1l-1.2 1.51c-.42.55-.85 1.13-1.28 1.73s-.8 1.19-1.12 1.74h4.63v1.26h-6.47v-1c.26-.48.58-1 1-1.58s.77-1.14 1.19-1.7.82-1.11 1.21-1.61.74-.92 1-1.27h-4.16v-1.22h6.07z"/><path d="m5.49 58.43.66.85c.26.35.54.74.82 1.17s.55.87.83 1.34a13.53 13.53 0 0 1 .71 1.34h-1.72c-.22-.41-.45-.83-.71-1.25s-.51-.82-.77-1.2-.51-.75-.77-1.08-.48-.63-.68-.88a3.1 3.1 0 0 1 -.43 0h-1.86v4.39h-1.57v-11.04a8.89 8.89 0 0 1 1.48-.22q.82-.06 1.5-.06a6.18 6.18 0 0 1 3.61.89 3.45 3.45 0 0 1 .64 4.57 3.44 3.44 0 0 1 -1.74 1.18zm-2.38-5.26c-.67 0-1.18 0-1.54 0v4.22h1.12a10.79 10.79 0 0 0 1.46-.08 3.27 3.27 0 0 0 1.09-.3 1.71 1.71 0 0 0 .69-.64 2.19 2.19 0 0 0 .24-1.1 2.09 2.09 0 0 0 -.24-1 1.74 1.74 0 0 0 -.66-.66 2.79 2.79 0 0 0 -1-.35 7.47 7.47 0 0 0 -1.16-.09z"/><path d="m17.45 58.72a5.47 5.47 0 0 1 -.29 1.82 4.26 4.26 0 0 1 -.82 1.39 3.55 3.55 0 0 1 -1.26.9 4.09 4.09 0 0 1 -3.17 0 3.55 3.55 0 0 1 -1.26-.9 4.26 4.26 0 0 1 -.82-1.39 5.79 5.79 0 0 1 0-3.62 4.21 4.21 0 0 1 .82-1.4 3.55 3.55 0 0 1 1.26-.9 4.09 4.09 0 0 1 3.17 0 3.55 3.55 0 0 1 1.26.9 4.21 4.21 0 0 1 .82 1.4 5.44 5.44 0 0 1 .29 1.8zm-1.57 0a3.68 3.68 0 0 0 -.64-2.26 2.1 2.1 0 0 0 -1.75-.83 2.1 2.1 0 0 0 -1.74.83 4.31 4.31 0 0 0 0 4.52 2.08 2.08 0 0 0 1.74.84 2.09 2.09 0 0 0 1.75-.82 3.66 3.66 0 0 0 .64-2.28z"/><path d="m24.75 55.84-.9 1c-.37.46-.77 1-1.19 1.51s-.86 1.13-1.28 1.73-.81 1.19-1.13 1.74h4.63v1.26h-6.43v-1c.26-.48.58-1 1-1.58s.77-1.14 1.19-1.7.82-1.11 1.21-1.61l1-1.27h-4.17v-1.21h6.07z"/><path d="m33.6 63.13c-.3-.78-.62-1.67-1-2.66s-.66-2-.94-3.12c-.28 1.08-.59 2.12-.92 3.12s-.65 1.88-1 2.66h-1.23c-.49-1.11-1-2.38-1.46-3.81s-.92-3-1.34-4.61h1.62c.11.5.24 1.06.39 1.65s.31 1.19.48 1.78.34 1.17.52 1.72.36 1 .52 1.44c.18-.51.37-1 .54-1.61s.35-1.14.51-1.72.32-1.14.47-1.7.27-1.08.38-1.56h1.24q.15.72.36 1.56c.14.56.29 1.12.45 1.7l.51 1.72c.18.57.36 1.1.55 1.61q.24-.61.51-1.44c.18-.55.35-1.12.52-1.72s.34-1.19.49-1.78.28-1.15.39-1.65h1.55c-.42 1.65-.87 3.19-1.34 4.61s-1 2.7-1.46 3.81z"/><path d="m46.46 58.72a5.23 5.23 0 0 1 -.29 1.82 4.09 4.09 0 0 1 -.82 1.39 3.6 3.6 0 0 1 -1.25.9 4.11 4.11 0 0 1 -3.18 0 3.6 3.6 0 0 1 -1.25-.9 3.94 3.94 0 0 1 -.82-1.39 5.79 5.79 0 0 1 0-3.62 3.9 3.9 0 0 1 .82-1.4 3.6 3.6 0 0 1 1.25-.9 4.11 4.11 0 0 1 3.18 0 3.6 3.6 0 0 1 1.25.9 4 4 0 0 1 .82 1.4 5.19 5.19 0 0 1 .29 1.8zm-1.57 0a3.61 3.61 0 0 0 -.64-2.26 2.1 2.1 0 0 0 -1.74-.83 2.07 2.07 0 0 0 -1.74.83 4.31 4.31 0 0 0 0 4.52 2.05 2.05 0 0 0 1.74.84 2.08 2.08 0 0 0 1.74-.82 3.59 3.59 0 0 0 .64-2.28z"/><path d="m47.13 66.16a3.92 3.92 0 0 1 -.51 0 2.1 2.1 0 0 1 -.51-.13l.19-1.23a3 3 0 0 0 .37.08h.39a1.27 1.27 0 0 0 1.11-.47 2.49 2.49 0 0 0 .33-1.41v-8.29h1.5v8.29a3.4 3.4 0 0 1 -.74 2.4 2.76 2.76 0 0 1 -2.13.76zm2.12-13a1 1 0 0 1 -.69-.26 1.08 1.08 0 0 1 0-1.45 1 1 0 0 1 1.38 0 1.08 1.08 0 0 1 0 1.45 1 1 0 0 1 -.69.28z"/><path d="m59.23 62.71c-.35.09-.8.18-1.37.27a11.45 11.45 0 0 1 -2 .15 4.19 4.19 0 0 1 -1.64-.28 2.72 2.72 0 0 1 -1.07-.8 3.5 3.5 0 0 1 -.58-1.23 6.3 6.3 0 0 1 -.18-1.56v-4.73h1.51v4.4a3.8 3.8 0 0 0 .49 2.21 1.89 1.89 0 0 0 1.63.66h.5.49.41l.27-.06v-7.21h1.51z"/><path d="m71 58.43.65.85c.27.35.54.74.82 1.17s.56.87.84 1.34a13.36 13.36 0 0 1 .7 1.34h-1.73c-.21-.41-.45-.83-.7-1.25s-.51-.82-.77-1.2-.52-.75-.77-1.08-.48-.63-.69-.88a3 3 0 0 1 -.43 0h-1.85v4.39h-1.57v-11.04a8.73 8.73 0 0 1 1.5-.22q.81-.06 1.5-.06a6.17 6.17 0 0 1 3.6.89 3.06 3.06 0 0 1 1.24 2.66 3.14 3.14 0 0 1 -.59 1.91 3.53 3.53 0 0 1 -1.75 1.18zm-2.38-5.26a15.35 15.35 0 0 0 -1.54 0v4.22h1.11a10.79 10.79 0 0 0 1.46-.08 3.26 3.26 0 0 0 1.1-.3 1.75 1.75 0 0 0 .68-.64 2.08 2.08 0 0 0 .25-1.1 2 2 0 0 0 -.25-1 1.79 1.79 0 0 0 -.65-.66 2.86 2.86 0 0 0 -1-.35 7.56 7.56 0 0 0 -1.17-.09z"/><path d="m75 58.74a5.5 5.5 0 0 1 .32-2 4.1 4.1 0 0 1 .86-1.39 3.59 3.59 0 0 1 1.23-.82 3.75 3.75 0 0 1 1.43-.28 3.28 3.28 0 0 1 2.61 1.06 4.92 4.92 0 0 1 .9 3.23v.26a2.53 2.53 0 0 1 0 .28h-5.74a3.07 3.07 0 0 0 .76 2 2.75 2.75 0 0 0 2.07.68 5.15 5.15 0 0 0 1.34-.14 5.38 5.38 0 0 0 .82-.26l.21 1.26a4.46 4.46 0 0 1 -1 .31 6.77 6.77 0 0 1 -1.57.16 5 5 0 0 1 -1.9-.33 3.44 3.44 0 0 1 -1.32-.92 3.73 3.73 0 0 1 -.77-1.38 5.8 5.8 0 0 1 -.25-1.72zm5.78-.83a2.51 2.51 0 0 0 -.51-1.67 1.75 1.75 0 0 0 -1.45-.66 2 2 0 0 0 -.91.2 2.23 2.23 0 0 0 -.68.53 2.62 2.62 0 0 0 -.43.75 3.62 3.62 0 0 0 -.2.85z"/><path d="m89.76 62.29a4.2 4.2 0 0 1 -.75.33 3.7 3.7 0 0 1 -1.3.2 4.27 4.27 0 0 1 -1.44-.24 3 3 0 0 1 -1.17-.75 3.67 3.67 0 0 1 -.8-1.28 5.13 5.13 0 0 1 -.3-1.81 4.79 4.79 0 0 1 .28-1.69 3.64 3.64 0 0 1 .8-1.33 3.7 3.7 0 0 1 1.29-.88 4.45 4.45 0 0 1 1.71-.31 9.84 9.84 0 0 1 1.84.15c.53.1 1 .2 1.32.29v7.51a3.54 3.54 0 0 1 -1 2.82 4.57 4.57 0 0 1 -3 .88 8.79 8.79 0 0 1 -1.49-.13 9.15 9.15 0 0 1 -1.23-.31l.28-1.31a6.62 6.62 0 0 0 1.11.31 6.7 6.7 0 0 0 1.37.14 2.87 2.87 0 0 0 1.93-.53 2.19 2.19 0 0 0 .59-1.71zm0-6.26c-.15 0-.36-.08-.61-.12a9 9 0 0 0 -1 0 2.29 2.29 0 0 0 -1.87.79 3.19 3.19 0 0 0 -.66 2.11 3.76 3.76 0 0 0 .15 1.19 2.33 2.33 0 0 0 .5.86 1.87 1.87 0 0 0 .73.5 2.3 2.3 0 0 0 .85.17 3.48 3.48 0 0 0 1.1-.17 3 3 0 0 0 .8-.4z"/><path d="m94.51 53.18a1 1 0 0 1 -.69-.26 1.08 1.08 0 0 1 0-1.45 1 1 0 0 1 1.38 0 1.08 1.08 0 0 1 0 1.45 1 1 0 0 1 -.69.26zm.76 10h-1.51v-8.47h1.51z"/><path d="m105.22 58.72a5.47 5.47 0 0 1 -.29 1.82 4.26 4.26 0 0 1 -.82 1.39 3.55 3.55 0 0 1 -1.26.9 4.09 4.09 0 0 1 -3.17 0 3.55 3.55 0 0 1 -1.26-.9 4.26 4.26 0 0 1 -.82-1.39 5.79 5.79 0 0 1 0-3.62 4.21 4.21 0 0 1 .82-1.4 3.55 3.55 0 0 1 1.26-.9 4.09 4.09 0 0 1 3.17 0 3.55 3.55 0 0 1 1.26.9 4.21 4.21 0 0 1 .82 1.4 5.44 5.44 0 0 1 .29 1.8zm-1.57 0a3.68 3.68 0 0 0 -.64-2.26 2.25 2.25 0 0 0 -3.49 0 4.31 4.31 0 0 0 0 4.52 2.23 2.23 0 0 0 3.48.02 3.66 3.66 0 0 0 .65-2.28z"/><path d="m107.26 55c.34-.09.8-.18 1.38-.28a12.74 12.74 0 0 1 2-.14 4.25 4.25 0 0 1 1.67.28 2.62 2.62 0 0 1 1.06.8 3 3 0 0 1 .56 1.22 7 7 0 0 1 .16 1.57v4.73h-1.5v-4.46a7.08 7.08 0 0 0 -.11-1.32 2.32 2.32 0 0 0 -.35-.9 1.39 1.39 0 0 0 -.65-.49 2.89 2.89 0 0 0 -1-.15h-.48-.5l-.5.14-.26.05v7.11h-1.51z"/><path d="m119.2 54.33a4.31 4.31 0 0 1 1.53.24 2.57 2.57 0 0 1 1 .66 2.53 2.53 0 0 1 .55 1 5.34 5.34 0 0 1 .16 1.31v5.26l-.54.09-.79.11-1 .09c-.34 0-.68 0-1 0a5.36 5.36 0 0 1 -1.31-.15 3 3 0 0 1 -1-.46 2.09 2.09 0 0 1 -.68-.84 2.92 2.92 0 0 1 -.24-1.24 2.37 2.37 0 0 1 .28-1.2 2.22 2.22 0 0 1 .77-.81 3.26 3.26 0 0 1 1.13-.45 6.1 6.1 0 0 1 1.36-.15h.47l.47.07.38.07.22.05v-.42a3.05 3.05 0 0 0 -.08-.74 1.67 1.67 0 0 0 -.29-.65 1.43 1.43 0 0 0 -.57-.45 2.34 2.34 0 0 0 -1-.17 7.2 7.2 0 0 0 -1.31.11 5.12 5.12 0 0 0 -.83.21l-.18-1.24a4.51 4.51 0 0 1 1-.25 7.69 7.69 0 0 1 1.5-.05zm.13 7.55h1a4.92 4.92 0 0 0 .68-.09v-2.53a1.69 1.69 0 0 0 -.52-.14 5.66 5.66 0 0 0 -.89-.06 6.39 6.39 0 0 0 -.72 0 2.22 2.22 0 0 0 -.69.21 1.46 1.46 0 0 0 -.53.42 1.08 1.08 0 0 0 -.21.7 1.21 1.21 0 0 0 .52 1.13 2.68 2.68 0 0 0 1.36.36z"/><path d="m127.38 63.13a2.88 2.88 0 0 1 -2-.6 2.36 2.36 0 0 1 -.58-1.76v-10.11l1.51-.26v10.12a2.65 2.65 0 0 0 .06.62.82.82 0 0 0 .21.39 1 1 0 0 0 .39.22l.6.12z"/><path d="m129.19 55c.35-.09.81-.18 1.38-.28a12.78 12.78 0 0 1 2-.14 4.29 4.29 0 0 1 1.67.28 2.69 2.69 0 0 1 1.06.8 3.12 3.12 0 0 1 .56 1.22 7.58 7.58 0 0 1 .14 1.52v4.73h-1.51v-4.41a7.17 7.17 0 0 0 -.1-1.32 2.32 2.32 0 0 0 -.35-.9 1.39 1.39 0 0 0 -.65-.49 3 3 0 0 0 -1-.15h-.5-.49l-.4.14-.27.05v7.11h-1.51z"/><path d="m137.94 58.74a5.27 5.27 0 0 1 .33-2 4.08 4.08 0 0 1 .85-1.39 3.53 3.53 0 0 1 1.24-.82 3.67 3.67 0 0 1 1.42-.28 3.27 3.27 0 0 1 2.61 1.06 4.92 4.92 0 0 1 .91 3.23v.26a2.46 2.46 0 0 1 0 .28h-5.77a3.12 3.12 0 0 0 .76 2 2.79 2.79 0 0 0 2.08.68 5.45 5.45 0 0 0 2.15-.4l.21 1.26a4.27 4.27 0 0 1 -1 .31 6.74 6.74 0 0 1 -1.56.16 5 5 0 0 1 -1.91-.33 3.6 3.6 0 0 1 -1.32-.92 3.88 3.88 0 0 1 -.77-1.38 6.13 6.13 0 0 1 -.23-1.72zm5.78-.83a2.4 2.4 0 0 0 -.51-1.67 1.75 1.75 0 0 0 -1.45-.66 2 2 0 0 0 -.91.2 2.07 2.07 0 0 0 -.67.53 2.23 2.23 0 0 0 -.43.75 3.65 3.65 0 0 0 -.21.85z"/><path d="m152.67 62.29a4.05 4.05 0 0 1 -.76.33 3.66 3.66 0 0 1 -1.3.2 4.17 4.17 0 0 1 -1.43-.24 3.13 3.13 0 0 1 -1.18-.75 3.65 3.65 0 0 1 -.79-1.28 4.91 4.91 0 0 1 -.29-1.81 5 5 0 0 1 .27-1.69 3.78 3.78 0 0 1 .8-1.33 3.7 3.7 0 0 1 1.29-.88 4.47 4.47 0 0 1 1.72-.31 10 10 0 0 1 1.84.15c.52.1 1 .2 1.32.29v7.51a3.55 3.55 0 0 1 -1 2.82 4.54 4.54 0 0 1 -3 .88 8.91 8.91 0 0 1 -1.5-.13 8.61 8.61 0 0 1 -1.22-.31l.27-1.31a6.62 6.62 0 0 0 1.11.31 6.77 6.77 0 0 0 1.37.14 2.9 2.9 0 0 0 1.94-.53 2.23 2.23 0 0 0 .59-1.71zm0-6.26a6 6 0 0 0 -.61-.12 8.89 8.89 0 0 0 -1 0 2.29 2.29 0 0 0 -1.87.79 3.24 3.24 0 0 0 -.65 2.11 3.78 3.78 0 0 0 .18 1.24 2.48 2.48 0 0 0 .51.86 1.8 1.8 0 0 0 .73.5 2.22 2.22 0 0 0 .85.17 3.52 3.52 0 0 0 1.1-.17 2.9 2.9 0 0 0 .79-.4z"/><path d="m164.1 58.72a5.23 5.23 0 0 1 -.29 1.82 4.09 4.09 0 0 1 -.82 1.39 3.6 3.6 0 0 1 -1.25.9 4.11 4.11 0 0 1 -3.18 0 3.6 3.6 0 0 1 -1.25-.9 4.09 4.09 0 0 1 -.82-1.39 5.79 5.79 0 0 1 0-3.62 4 4 0 0 1 .82-1.4 3.6 3.6 0 0 1 1.25-.9 4.11 4.11 0 0 1 3.18 0 3.6 3.6 0 0 1 1.25.9 4 4 0 0 1 .82 1.4 5.19 5.19 0 0 1 .29 1.8zm-1.57 0a3.61 3.61 0 0 0 -.64-2.26 2.07 2.07 0 0 0 -1.74-.83 2.1 2.1 0 0 0 -1.74.83 4.31 4.31 0 0 0 0 4.52 2.08 2.08 0 0 0 1.74.84 2.05 2.05 0 0 0 1.74-.84 3.59 3.59 0 0 0 .64-2.26z"/><path d="m6.69 20.63a8 8 0 0 1 -3-.5 5.56 5.56 0 0 1 -2.07-1.41 5.89 5.89 0 0 1 -1.22-2.14 8.8 8.8 0 0 1 -.4-2.7v-10.63h3.13v10.34a6.42 6.42 0 0 0 .26 2 3.4 3.4 0 0 0 .73 1.33 2.86 2.86 0 0 0 1.13.76 4 4 0 0 0 1.46.25 4.14 4.14 0 0 0 1.48-.25 2.83 2.83 0 0 0 1.14-.76 3.4 3.4 0 0 0 .73-1.33 6.42 6.42 0 0 0 .26-2v-10.34h3.12v10.63a8.5 8.5 0 0 1 -.41 2.7 6 6 0 0 1 -1.22 2.14 5.52 5.52 0 0 1 -2.1 1.41 8.13 8.13 0 0 1 -3.02.5z"/><path d="m17.1 8.19a20.87 20.87 0 0 1 2.23-.47 19 19 0 0 1 3-.22 6.92 6.92 0 0 1 2.67.43 4.15 4.15 0 0 1 1.68 1.2 4.71 4.71 0 0 1 .89 1.87 10.56 10.56 0 0 1 .25 2.39v7.22h-3v-6.75a9.89 9.89 0 0 0 -.13-1.76 3.14 3.14 0 0 0 -.44-1.17 1.79 1.79 0 0 0 -.84-.67 3.48 3.48 0 0 0 -1.29-.21 9.88 9.88 0 0 0 -1.18.08l-.9.12v10.36h-3z"/><path d="m34.62 4a1.7 1.7 0 0 1 -.54 1.32 1.81 1.81 0 0 1 -1.27.49 1.85 1.85 0 0 1 -1.3-.49 1.7 1.7 0 0 1 -.51-1.32 1.75 1.75 0 0 1 .54-1.36 1.89 1.89 0 0 1 1.3-.49 1.85 1.85 0 0 1 1.27.49 1.75 1.75 0 0 1 .51 1.36zm-.32 16.61h-3v-12.84h3z"/><path d="m42.21 7.21a7.43 7.43 0 0 1 2.48.36 4 4 0 0 1 1.61 1 3.93 3.93 0 0 1 .86 1.6 8 8 0 0 1 .25 2.08v7.78q-.69.15-2.07.36a22.67 22.67 0 0 1 -3.13.2 9.18 9.18 0 0 1 -2.11-.22 4.3 4.3 0 0 1 -1.64-.71 3.3 3.3 0 0 1 -1.05-1.28 4.29 4.29 0 0 1 -.41-1.89 3.72 3.72 0 0 1 .43-1.87 3.45 3.45 0 0 1 1.16-1.24 5 5 0 0 1 1.71-.69 9 9 0 0 1 3.06-.14 11.15 11.15 0 0 1 1.15.2v-.49a3.93 3.93 0 0 0 -.12-1 2.22 2.22 0 0 0 -.43-.82 2 2 0 0 0 -.81-.55 3.56 3.56 0 0 0 -1.27-.2 11.14 11.14 0 0 0 -1.88.17 8.71 8.71 0 0 0 -1.4.34l-.36-2.4a10 10 0 0 1 1.64-.4 13 13 0 0 1 2.33-.19zm.24 11.07a10.84 10.84 0 0 0 2.09-.15v-3.29a5.54 5.54 0 0 0 -.71-.15 6.58 6.58 0 0 0 -1-.07 6.82 6.82 0 0 0 -1 .07 3.22 3.22 0 0 0 -.91.27 1.68 1.68 0 0 0 -.65.56 1.53 1.53 0 0 0 -.24.89 1.57 1.57 0 0 0 .66 1.46 3.41 3.41 0 0 0 1.76.41z"/><path d="m56.62 20.61v-17.01h10.92v2.62h-7.83v4.2h7v2.58h-7v5h8.42v2.63z"/><path d="m80.82 20c-.57.14-1.32.3-2.23.45a17.66 17.66 0 0 1 -3 .23 6.55 6.55 0 0 1 -2.59-.49 4.12 4.12 0 0 1 -1.69-1.19 4.84 4.84 0 0 1 -.9-1.88 10 10 0 0 1 -.27-2.4v-7.22h3v6.73a5.43 5.43 0 0 0 .6 2.94 2.38 2.38 0 0 0 2.1.89h1.14a6.46 6.46 0 0 0 .9-.13v-10.43h3z"/><path d="m91.77 10.45a8.19 8.19 0 0 0 -1-.26 7.46 7.46 0 0 0 -1.51-.14 6.51 6.51 0 0 0 -1 .1 7.45 7.45 0 0 0 -.78.17v10.29h-3v-12.23a17.45 17.45 0 0 1 2.15-.6 14 14 0 0 1 2.86-.28 6 6 0 0 1 .69 0c.26 0 .52.06.79.1l.76.14.59.16z"/><path d="m105.81 13.86a8.38 8.38 0 0 1 -.44 2.77 6.2 6.2 0 0 1 -1.25 2.14 5.51 5.51 0 0 1 -2 1.37 6.29 6.29 0 0 1 -2.52.49 6.13 6.13 0 0 1 -2.5-.49 5.48 5.48 0 0 1 -1.94-1.37 6.4 6.4 0 0 1 -1.27-2.14 8.13 8.13 0 0 1 -.45-2.77 8 8 0 0 1 .45-2.76 6.31 6.31 0 0 1 1.33-2.1 5.67 5.67 0 0 1 2-1.36 6.27 6.27 0 0 1 2.48-.48 6.35 6.35 0 0 1 2.49.48 5.49 5.49 0 0 1 2 1.36 6.45 6.45 0 0 1 1.27 2.13 8 8 0 0 1 .35 2.73zm-3 0a5 5 0 0 0 -.83-3 2.66 2.66 0 0 0 -2.29-1.12 2.69 2.69 0 0 0 -2.3 1.12 5 5 0 0 0 -.82 3 5.2 5.2 0 0 0 .82 3.07 2.7 2.7 0 0 0 2.3 1.13 2.67 2.67 0 0 0 2.29-1.13 5.13 5.13 0 0 0 .79-3.07z"/><path d="m120.29 14.2a8.9 8.9 0 0 1 -.38 2.7 6.12 6.12 0 0 1 -1.09 2.1 4.86 4.86 0 0 1 -1.82 1.39 5.69 5.69 0 0 1 -2.42.49 5.92 5.92 0 0 1 -1.67-.22 6.65 6.65 0 0 1 -1.25-.49v5h-3v-17c.61-.16 1.35-.32 2.24-.47a16.61 16.61 0 0 1 2.79-.22 7.51 7.51 0 0 1 2.73.47 5.62 5.62 0 0 1 2.05 1.34 5.87 5.87 0 0 1 1.3 2.11 8.07 8.07 0 0 1 .52 2.8zm-3 .05a4.78 4.78 0 0 0 -.9-3.09 3.48 3.48 0 0 0 -2.88-1.11c-.28 0-.57 0-.87 0a5.47 5.47 0 0 0 -.9.16v7.34a4.3 4.3 0 0 0 1 .5 3.93 3.93 0 0 0 1.38.24 2.66 2.66 0 0 0 2.37-1.11 5.18 5.18 0 0 0 .76-2.93z"/><path d="m122.5 14a8 8 0 0 1 .51-3 6.33 6.33 0 0 1 1.33-2.13 5.55 5.55 0 0 1 1.92-1.27 5.87 5.87 0 0 1 2.21-.43 5.33 5.33 0 0 1 4.14 1.64 7.19 7.19 0 0 1 1.48 4.91v.55s0 .39 0 .56h-8.47a3.39 3.39 0 0 0 1.09 2.39 4.2 4.2 0 0 0 2.82.85 9.25 9.25 0 0 0 2-.2 7.62 7.62 0 0 0 1.41-.42l.4 2.43a4.08 4.08 0 0 1 -.68.26c-.29.09-.61.17-1 .25s-.77.13-1.19.18a11.2 11.2 0 0 1 -1.3.07 7.82 7.82 0 0 1 -3-.5 5.42 5.42 0 0 1 -2.06-1.4 5.72 5.72 0 0 1 -1.2-2.11 8.38 8.38 0 0 1 -.41-2.63zm8.62-1.33a4 4 0 0 0 -.17-1.16 2.76 2.76 0 0 0 -.51-1 2.42 2.42 0 0 0 -.81-.64 2.47 2.47 0 0 0 -1.14-.23 2.68 2.68 0 0 0 -1.2.25 2.92 2.92 0 0 0 -.87.68 3 3 0 0 0 -.55 1 5.36 5.36 0 0 0 -.27 1.1z"/><path d="m135.44 25.18c-.21 0-.51 0-.9-.07a3.66 3.66 0 0 1 -1-.23l.39-2.43a4.14 4.14 0 0 0 1.3.17 1.64 1.64 0 0 0 1.45-.6 3.15 3.15 0 0 0 .42-1.8v-12.45h3v12.5a5.08 5.08 0 0 1 -1.19 3.7 4.64 4.64 0 0 1 -3.47 1.21zm4.94-21.18a1.71 1.71 0 0 1 -.55 1.32 1.81 1.81 0 0 1 -1.27.49 1.85 1.85 0 0 1 -1.3-.49 1.7 1.7 0 0 1 -.54-1.32 1.75 1.75 0 0 1 .54-1.36 1.89 1.89 0 0 1 1.3-.49 1.85 1.85 0 0 1 1.27.49 1.75 1.75 0 0 1 .55 1.36z"/><path d="m146.9 18.18a3.88 3.88 0 0 0 1.72-.28 1 1 0 0 0 .54-1 1.25 1.25 0 0 0 -.58-1.06 8.23 8.23 0 0 0 -1.9-.91 13.74 13.74 0 0 1 -1.48-.62 5 5 0 0 1 -1.17-.78 3.15 3.15 0 0 1 -.77-1.06 3.72 3.72 0 0 1 -.26-1.47 3.33 3.33 0 0 1 1.3-2.78 5.55 5.55 0 0 1 3.53-1 10.77 10.77 0 0 1 2.16.21 11.09 11.09 0 0 1 1.55.4l-.54 2.35a7 7 0 0 0 -1.25-.41 7.78 7.78 0 0 0 -1.75-.18 3.09 3.09 0 0 0 -1.47.3 1 1 0 0 0 -.57.95 1.4 1.4 0 0 0 .11.56 1.25 1.25 0 0 0 .38.46 4 4 0 0 0 .71.42c.3.13.66.28 1.08.43a14.69 14.69 0 0 1 1.8.77 4.74 4.74 0 0 1 1.21.86 3 3 0 0 1 .7 1.09 4.29 4.29 0 0 1 .22 1.47 3.17 3.17 0 0 1 -1.36 2.79 6.8 6.8 0 0 1 -3.89.94 10.64 10.64 0 0 1 -2.73-.28c-.68-.19-1.17-.34-1.44-.45l.51-2.48a12.85 12.85 0 0 0 1.58.51 8 8 0 0 0 2.06.25z"/><path d="m157.73 12.78c.38-.39.78-.81 1.2-1.27s.85-.9 1.25-1.35l1.17-1.3c.37-.41.68-.78 1-1.09h3.51c-.82.92-1.69 1.87-2.59 2.85s-1.82 1.94-2.74 2.87a17.49 17.49 0 0 1 1.47 1.51c.54.58 1.06 1.19 1.57 1.85s1 1.31 1.42 2a19.62 19.62 0 0 1 1.1 1.82h-3.43c-.3-.51-.64-1-1-1.6s-.8-1.09-1.24-1.62-.89-1-1.35-1.48a11.75 11.75 0 0 0 -1.35-1.19v5.89h-3v-16.58l3-.49z"/><path d="m172.41 7.21a7.43 7.43 0 0 1 2.48.36 3.74 3.74 0 0 1 2.47 2.64 8 8 0 0 1 .25 2.08v7.78c-.45.1-1.15.22-2.07.36a22.67 22.67 0 0 1 -3.13.2 9.24 9.24 0 0 1 -2.11-.22 4.25 4.25 0 0 1 -1.63-.71 3.32 3.32 0 0 1 -1.06-1.28 4.42 4.42 0 0 1 -.38-1.93 3.72 3.72 0 0 1 .43-1.87 3.47 3.47 0 0 1 1.17-1.24 5 5 0 0 1 1.7-.69 9 9 0 0 1 3.06-.14 11.15 11.15 0 0 1 1.15.2v-.49a3.93 3.93 0 0 0 -.12-1 2.09 2.09 0 0 0 -.43-.82 2 2 0 0 0 -.81-.55 3.54 3.54 0 0 0 -1.26-.2 11.18 11.18 0 0 0 -1.9.15 8.56 8.56 0 0 0 -1.39.34l-.37-2.4a10 10 0 0 1 1.64-.4 13 13 0 0 1 2.31-.17zm.25 11.07a10.79 10.79 0 0 0 2.08-.15v-3.29a5.54 5.54 0 0 0 -.71-.15 6.5 6.5 0 0 0 -1-.07 6.82 6.82 0 0 0 -1 .07 3.15 3.15 0 0 0 -.9.27 1.61 1.61 0 0 0 -.65.56 1.46 1.46 0 0 0 -.25.89 1.57 1.57 0 0 0 .66 1.46 3.43 3.43 0 0 0 1.77.41z"/></g></svg>