<svg preserveAspectRatio="xMidYMid meet" viewBox="0 0 19 21.322" xmlns="http://www.w3.org/2000/svg"><g fill="#ff2d30" stroke="#ff2d30" transform="translate(-298.917 -57.78)"><path d="m317.417 64.811v10.407l-5.764 2.982-6.471-2.911-5.765 2.986v-10.375l5.765-3 3.082 1.388v-3.377a2.362 2.362 0 1 1 .307 0v3.529l3.082 1.387zm-17.693 12.971 5.305-2.745v-9.727l-5.305 2.774zm8.54-8.25v-2.911l-2.929-1.311v9.728l6.165 2.762v-9.716l-2.928-1.311v2.759zm.153-6.922a2.014 2.014 0 1 0 -2.055-2.022 2.028 2.028 0 0 0 2.056 2.022zm8.694 2.7-5.305 2.774v9.716l5.305-2.759z"/><path d="m317.417 64.811v10.407l-5.764 2.982-6.471-2.911-5.765 2.986v-10.375l5.765-3 3.082 1.388v-3.377a2.362 2.362 0 1 1 .307 0v3.529l3.082 1.387zm-17.693 12.971 5.305-2.745v-9.727l-5.305 2.774zm8.54-8.25v-2.911l-2.929-1.311v9.728l6.165 2.762v-9.716l-2.928-1.311v2.759zm.153-6.922a2.014 2.014 0 1 0 -2.055-2.022 2.028 2.028 0 0 0 2.056 2.022zm8.694 2.7-5.305 2.774v9.716l5.305-2.759z"/></g></svg>