<svg preserveAspectRatio="xMidYMid meet" viewBox="0 0 1391 949.8" xmlns="http://www.w3.org/2000/svg"><path d="m965.15 1.2a4.42 4.42 0 0 0 -1.15 2.8c0 .8 23.2 24.7 51.5 53l51.5 51.5-101.75 101.7-101.8 101.8-51.45-51.5c-28.4-28.3-52.2-51.5-53.1-51.5a4.23 4.23 0 0 0 -3.9 4.4c0 1.4 17 19.1 51.2 53.3l51.3 51.3-51.3 51.3c-36.75 36.7-51.2 51.8-51.2 53.4 0 2 2.5 4.3 4.7 4.3.4 0 22.9-22.2 50-49.2l49.3-49.3v63.1l-4.2 1.1a31.44 31.44 0 0 0 -22.8 29.8c0 10.6 6.5 21.6 16 26.9 5.1 2.9 6.2 3.1 15 3.1 10.8 0 15.2-1.7 21.8-8.3 6.1-6.1 8.6-12.3 8.6-21.7.1-8.8-1.7-13.8-7.4-20.7-2.7-3.2-11.1-8.2-17.2-10.2-1.7-.5-1.8-2.9-1.8-32.3v-31.8l47.6 47.6 47.6 47.6-50.4 50.1c-27.7 27.6-51 51.2-51.8 52.6-1.6 3 0 5.6 3.4 5.6 1.4 0 17.9-15.8 53.3-51.2l51.3-51.3 49.5 49.5 49.5 49.5-51.5 51.5c-28.3 28.3-51.5 52.2-51.5 53.1a4.23 4.23 0 0 0 4.4 3.9c1.4 0 18.7-16.7 51.3-49.2l49.3-49.3v31.8c0 24.6-.3 31.8-1.2 32.1-15.8 4.5-24.6 14.6-25.6 29.1-.5 9.2 2.2 16.6 8.4 23 6.6 6.8 12 9 22.4 9 7.3 0 9.2-.4 13.6-2.7 13-6.8 19.5-21 16-34.7-2.9-11.1-10.8-19.6-21-22.3l-4.6-1.2v-64.1l47.6 47.5 47.5 47.5-51.5 51.2c-29.4 29.2-51.6 52-51.6 53s45.1 46.9 105.8 107.6c89.3 89.3 106.3 105.8 108.3 105.5a2.84 2.84 0 0 0 2.7-2.7c.3-2-7.9-10.7-51-53.8l-51.3-51.3 47.3-47.2 47.2-47.3v64.1l-4.6 1.2c-23.1 6.2-29.1 38.3-10.1 53.4a31.3 31.3 0 0 0 43.92-5.5 30.81 30.81 0 0 0 3.48-5.6c1.1-2.3 1.9-6.6 2.1-12.1.4-8 .2-8.9-3-15-3.8-7.3-10.7-13.3-17.3-15.1-2.2-.6-4.6-1.3-5.2-1.5-1-.3-1.3-7.6-1.3-32.6v-32.3l49.8 49.8c27.3 27.3 50.4 49.7 51.3 49.7a4.23 4.23 0 0 0 3.9-4.4c0-1.4-33.9-36-103.7-105.8l-103.85-103.8 51.3-51.3c33.3-33.3 51.2-51.9 51.2-53.2s-17.9-19.9-51.2-53.2l-51.3-51.3 47.3-47.2 47.2-47.3v63.5l-2.7.6c-8.9 2.2-17.7 9.6-21.5 18.2-4.6 10.4-1.7 25.3 6.7 33.7 9 8.9 23.9 11.5 35 6.1a31.84 31.84 0 0 0 16.5-36.8c-2.6-9.2-12.3-18.6-21.6-20.9l-4.4-1.1v-31.4c0-17.3.3-31.4.8-31.4s22.8 22 49.7 49 49.7 49 50.5 49a4.24 4.24 0 0 0 4-4.4c0-1.4-17.3-19.4-51.2-53.3l-51.3-51.3 51.3-51.3c36.4-36.5 51.2-51.9 51.2-53.4 0-2-2.5-4.3-4.7-4.3-.4 0-23.9 23.2-52.3 51.5l-51.5 51.5-101.8-101.8-101.65-101.7 50.6-50.5c27.8-27.8 50.9-51.4 51.4-52.5 1.1-2.7-.6-5.5-3.3-5.5-1.6 0-16.7 14.5-53.4 51.2l-51.3 51.3-51.3-51.3c-34-33.9-52-51.2-53.35-51.2a5 5 0 0 0 -3.2 1.2zm103.85 149.2v31.5l-5.3 1.5a31.61 31.61 0 0 0 -20.8 20.4c-1.6 4.8-.7 17.9 1.6 22.2 3.5 6.8 7.6 10.9 13.8 13.9 8.2 4 13.9 4.7 21.6 2.7 14.7-3.8 23-14.6 23.1-30.2 0-6-.5-8.1-3.1-13.2-4.4-8.8-10.5-13.6-21.6-16.8-1-.3-1.3-7.6-1.3-32.1v-31.8l47.5 47.5 47.5 47.5-49.5 49.5-49.5 49.5-49.5-49.5-49.5-49.5 47.2-47.2c26-26 47.4-47.3 47.5-47.3s.3 14.1.3 31.4zm-48.8 214.8c-25.7 25.8-47 46.8-47.4 46.8s-.8-14.4-.8-32c0-29.8.1-32 1.8-32 2.6-.1 10-3.7 14.3-7.1a28.64 28.64 0 0 0 7-9.5c6.4-13 3.7-27-7.2-36.8-6.5-5.9-12.9-8-22.3-7.4-12.6.8-22.2 8-26.7 19.7-6.1 16.1 3.1 35.1 19.3 39.9l5.8 1.7v64l-47.2-47.3-47.35-47.2 49.55-49.5 49.5-49.6 49.2 49.8 49.1 49.8zm209 0-47.2 47.3v-64.1l4.3-1.1c9.2-2.5 18.1-11.4 20.7-20.8a39.33 39.33 0 0 0 .8-11.4c-2-27.1-35.7-37.9-53.8-17.3-4.9 5.5-7 11.7-7 20.4 0 13.9 7.7 24.3 21.3 28.9l5.2 1.8.3 31.5c.1 17.4-.1 31.6-.5 31.6s-22-21.2-47.8-47l-47-47 49.5-49.5 49.5-49.5 49.5 49.5 49.5 49.5zm-160.2-5.3v31.8l-3.2.7c-8.4 1.7-16.3 8-21 16.8-1.9 3.5-2.3 5.9-2.3 13.3 0 10.9 2.3 16.3 9.8 23.1 6.4 5.7 12.8 7.8 22.6 7.2 12.1-.7 20.7-6.5 25.7-17.2 3.5-7.5 3.4-19.2-.2-26.4-3.4-6.9-11.1-13.7-18-15.9l-5.4-1.7v-63.1l47.2 47.3 47.3 47.2-49.3 49.2-49.2 49.3-49.5-49.5-49.5-49.5 47.2-47.2c26-26 47.4-47.3 47.5-47.3s.3 14.3.3 31.9zm158.2 117.8c26.9 26.9 48.8 49.2 48.8 49.8s-21.1 22.2-47 48l-47 47v-64.1l5.7-1.8c4.3-1.4 7-3.2 11.3-7.5 7.3-7.3 9.4-13.1 8.8-24.1s-5.5-18.8-15.7-24.8c-5.9-3.5-17.5-4.2-25.2-1.7-7.2 2.4-15.9 11-18.2 17.9-2.1 6.2-2.2 15.9-.1 21.9 2.9 8.7 13.1 17.5 22.2 19.3l3.2.6v64.3l-47.5-47.5-47.5-47.5 49.2-49.2c27.1-27.1 49.5-49.3 49.8-49.3s22.35 21.9 49.15 48.7zm2 306.5-47.2 47.3v-31.8c0-24.5.3-31.8 1.3-32.1 10.4-3 18.1-8.7 21.6-15.9 8-16.5 1.8-34.9-14.4-42.7-10.8-5.2-26.2-2.3-34.8 6.5-13.4 13.8-10.9 37.1 5.1 47.3a39.88 39.88 0 0 0 9 4.2l4.2 1.1v31.4c0 17.3-.3 31.5-.8 31.5s-21.9-21.2-47.7-47l-47-47 49.5-49.5 49.5-49.5 49.5 49.5 49.5 49.5z" fill="#e2001a"/><path d="m54.45 526.1c-39.7 4-61.3 19.3-52.5 37.3l2.2 4.6h18.85v79.7c0 90.8-.7 83.8 8.7 88.4 4.4 2.2 6 2.4 18.8 2.3a157 157 0 0 0 16.8-.7l2.7-.7v-62.8l7.8.5c8.5.6 24.9-1 34-3.3a100.6 100.6 0 0 0 14.9-5.9c17-8.4 28.3-23.4 33-44 2.5-11.2 2.5-38.2-.1-47.5-6.5-23.8-22.5-39.5-47.2-46.1-6.6-1.8-11.2-2.2-28.4-2.5-11.35-.1-24.55.2-29.55.7zm43.7 42.2c3.6 2.1 5.3 4 7.4 8.4 2.5 5 2.9 7.1 3.2 17.6.8 21-3.3 31.7-13.9 36.1-5 2.1-12.8 3-19.3 2.1l-5.6-.6v-65.8l3.3-.4a92.92 92.92 0 0 1 11.8-.3c7.3.2 9.2.6 13.1 2.9z"/><path d="m359 544.6c-6.2 1.7-11.6 5.5-14.5 10.5-2 3.3-2 5.2-2 88.1 0 84 0 84.7 2.1 87.5 4.2 5.7 8.2 6.8 25.4 6.8 13.2 0 16.5-.3 22.6-2.2 16.5-5.2 23.3-15.4 18-27.1l-1.9-4.2h-18.7v-159.7l-5.2-.7c-8.75-1-19.95-.6-25.8 1z"/><path d="m591.45 543.7c-10.3 2.3-17.4 7.5-19.2 14-.5 1.6-.8 40.1-.8 85.8 0 81.4 0 83.1 2 86.5a17.53 17.53 0 0 0 7 6c4.6 2.3 6.1 2.5 18 2.5 7.2-.1 14.7-.4 16.8-.8l3.7-.8v-192.6l-5.2-.7c-5.75-.6-19.1-.6-22.3.1z"/><path d="m231.45 580c-10 1.4-22 5.3-29.4 9.7-13.5 8.1-24.3 23.4-29.3 41.8-3 11.1-3.3 44.8-.5 56.8 4.4 18.5 15.6 33.8 30.6 41.6 11.1 5.8 17.4 7.2 34.6 7.8 12.7.4 16.5.2 25-1.6 26.6-5.5 44.2-21.9 51.5-48.1 3.3-12 4.6-30 3.2-43.8-1.5-14.2-3.3-21.5-7.7-30.7-7.8-16.2-22.3-27.6-40.5-32-8.1-1.9-28.2-2.7-37.5-1.5zm24 39.9c5.4 2.4 10.1 8 12 14.3 3.8 12.3 2.9 37.2-1.6 49.4-2.8 7.3-9.9 13.8-16.8 15.3-6.4 1.4-6.8 1.4-13.2 0-10.5-2.3-16.1-10.8-18-27.5-1.9-17.2 1.1-34.7 7.5-44.4 5.3-8.1 20.3-11.6 30.1-7.1z"/><path d="m657.05 580.5c-18.5 3.4-30.1 14.1-30.1 27.9 0 4.5.6 6.9 2.5 10.2 2.3 3.9 9.7 10.4 11.8 10.4.5 0 3.2-2 6-4.4 12.5-10.5 24.2-12.3 28.6-4.4 1.3 2.2 1.3 3.2.2 6.8-1.5 5-9.1 13.5-16.1 18-5.5 3.5-18.6 8.2-27.8 10-3.4.7-6.2 1.5-6.2 1.9 0 2.2 37.5 70.4 40.6 73.9 4.7 5.2 9.6 7.1 18.5 7.2 13.8 0 24.8-3.7 30.7-10.5 2.8-3.1 3.2-4.3 3.2-9.3a18.06 18.06 0 0 0 -2.3-9.7c-2.2-4-2.3-4-9-4.3l-6.7-.3-11.1-16.5c-6-9.1-11.2-17.1-11.5-17.8s1.6-2 5.7-3.4c22.9-7.8 36.6-28 33.1-48.8a45 45 0 0 0 -37.15-37.3c-8.25-1.4-13.65-1.3-22.95.4z"/><path d="m781.45 580c-28.4 3.2-45.3 18.1-40.6 35.8 1.3 4.6 5.9 10.6 10 12.6 2.4 1.3 3.1 1.1 9-2.5 14.5-8.8 32.8-13.4 43.8-11.1 6.6 1.4 10.5 4.6 12.1 10 1.3 4.5 2.7 19.6 1.9 21-.4.5-3.2.4-7.4-.4a142.22 142.22 0 0 0 -18.3-2c-32.2-1.6-52.2 10.8-57 35.4-1.5 7.6-.8 22.7 1.4 29.8 2.4 7.7 8.8 16.6 14.9 20.8 7.5 5.1 12.9 6.8 24.2 7.3 17 .8 28.9-3.2 39.5-13.3 3.1-3 5.9-5.4 6.2-5.4s.8 2.1 1.1 4.6a14.59 14.59 0 0 0 7.8 11.9c3 1.7 5.2 2 17.4 2 10.9 0 15.1-.4 19.1-1.8 7.2-2.5 14.1-7.1 16.4-10.9 2.5-4.1 2.6-11.4.3-16.3l-1.7-3.5h-18.4l-.4-42.8c-.5-46.4-.8-48.9-6.5-59.4-5.5-10-16.6-17.2-31.3-20.2-9.5-1.9-32.95-2.8-43.5-1.6zm36.55 103c0 10.2-.1 11-2.2 12.1-7.5 4-23.7 5.2-29.8 2.1-4.8-2.3-7.3-7.4-6.6-13.4 1.1-10.2 4.2-11.7 23.9-11.8h14.7z"/><path d="m474.45 581c-20.1 3.2-34.5 12.1-41.3 25.6-3.7 7.4-5.2 14.3-5.2 24.2 0 22.4 11.4 38.1 33.3 45.8 2.2.8 10.1 2.8 17.6 4.5s14.9 3.8 16.4 4.6c6.1 3.1 5.8 9.5-.5 13-2.7 1.5-5.5 1.8-14.8 1.7-13.3-.1-22.9-2.6-36.1-9.6l-7.7-4.1-3 2.2c-5.8 4.1-7.7 8.6-7.7 18.1 0 6.8.5 9.3 2.2 12.6 4 7.6 12.2 12.7 25.8 16.1 10.2 2.5 41.3 2.5 50.5 0 20.9-5.7 34.4-19 38-37.4 1.9-9.5.9-25.6-1.9-32-4.8-10.9-16.7-18.1-38.6-23.4-27.9-6.7-32.5-8.9-32.5-15.5 0-6.8 6.7-9.8 21.5-9.6 11.5.1 22.2 2.8 34 8.7l9 4.5 2.3-2.7c7.5-9.2 9-21.3 3.6-30-4.1-6.7-12.9-12.4-23.5-15.3-9.5-2.6-31-3.6-41.4-2z"/></svg>