<svg preserveAspectRatio="xMidYMid meet" viewBox="0 0 55.009 70.1" xmlns="http://www.w3.org/2000/svg"><g fill="none" stroke="#ff2d30" stroke-linecap="round" stroke-width="2" transform="translate(-1027.083 -355.973)"><path d="m1080.418 370.775-25.586-13.633a1.272 1.272 0 0 0 -1.212.007l-24.878 13.633a1.276 1.276 0 0 0 -.66 1.117v17.808a36.872 36.872 0 0 0 22.1 33.747l3.453 1.505a1.275 1.275 0 0 0 1.014 0l3.89-1.681a36.8 36.8 0 0 0 22.552-33.928v-17.45a1.274 1.274 0 0 0 -.674-1.125z" stroke-linejoin="round"/><path d="m1084.545 414.1-.022.018-17.24 14.03-6.94-8.128" stroke-miterlimit="10" transform="translate(-17.279 -30.585)"/></g></svg>