<svg preserveAspectRatio="xMidYMid meet" viewBox="0 0 87.009 88.887" xmlns="http://www.w3.org/2000/svg"><g fill="none" stroke="#ff2d30" stroke-miterlimit="10" stroke-width="2"><path d="m1239.139 819.6c-.528-23.888-20.043-42.953-43.535-42.342-24.115.627-42.568 21.377-41.4 45.264 1.24 25.324 21.633 42.245 43.683 41.585 23.458-.707 41.807-20.682 41.252-44.507z" transform="translate(-1153.144 -776.24)"/><path d="m1327.2 919.248h21.882c1.559 9.852-8.009 26.418-17.452 30.244-.14-.211-.3-.424-.431-.652-3.5-6.062-7-12.125-10.555-18.285a13.457 13.457 0 0 0 6.556-11.307z" transform="translate(-1271.52 -875.094)"/><path d="m1165.4 919.313h21.879c.2 4.92 2.527 8.53 6.613 11.3l-10.945 18.967c-11.08-5.788-17.953-18.974-17.547-30.267z" transform="translate(-1155.933 -875.142)"/><path d="m1254.916 811.8a13.421 13.421 0 0 0 -13.12.01l-10.971-19c10.023-6.211 24.326-6.519 35.065-.028z" transform="translate(-1204.811 -779.064)"/><path d="m1281.539 895.82a8.254 8.254 0 0 1 -7.714 8.63 8.42 8.42 0 1 1 -1.281-16.79c4.888-.343 8.621 3.04 8.995 8.16z" transform="translate(-1229.644 -851.959)"/></g></svg>