<svg id="znak" xmlns="http://www.w3.org/2000/svg" viewBox="0 0 340.27 99.23" preserveAspectRatio="xMidYMid meet"><defs><style>.cls-1{fill:#fff;}.cls-2{fill:#b61f2b;}.cls-3{fill:#1d1d1b;}</style></defs><rect class="cls-1" width="149.13" height="49.52"/><rect class="cls-2" y="49.52" width="149.13" height="49.71"/><path class="cls-3" d="M311.8,39.87a8.65,8.65,0,0,0,1.78,3.19,8,8,0,0,0,3,2.09,11.12,11.12,0,0,0,4.27.75,15.42,15.42,0,0,0,3.06-.29,9.21,9.21,0,0,0,2.22-.66l-.63-3.66a10.59,10.59,0,0,1-1.9.55,12,12,0,0,1-2.24.21c-2,0-3.47-.55-4.32-1.66a7.24,7.24,0,0,1-1.29-4.53,7,7,0,0,1,1.36-4.6,4.84,4.84,0,0,1,4-1.63,9.19,9.19,0,0,1,2.07.22,10.19,10.19,0,0,1,1.74.55l.95-3.63a13.39,13.39,0,0,0-5.13-1,9.68,9.68,0,0,0-4,.77,8.7,8.7,0,0,0-3,2.12,9.51,9.51,0,0,0-1.88,3.21,11.79,11.79,0,0,0-.66,4,13.22,13.22,0,0,0,.58,4m-5.5-21.24a2.71,2.71,0,0,0-1.9-.73,2.8,2.8,0,0,0-1.95.73,2.61,2.61,0,0,0-.8,2,2.57,2.57,0,0,0,.8,2,2.8,2.8,0,0,0,1.95.73,2.71,2.71,0,0,0,1.9-.73,2.54,2.54,0,0,0,.81-2,2.59,2.59,0,0,0-.81-2m.33,7.63H302.2V45.43h4.43Zm-8.06,15.87a7.84,7.84,0,0,1-1.45-.31,2.08,2.08,0,0,1-.9-.59,2.24,2.24,0,0,1-.46-.94,6.36,6.36,0,0,1-.12-1.35V17l-4.44.74V39.78a9.42,9.42,0,0,0,.31,2.55,4.11,4.11,0,0,0,1.08,1.87,5,5,0,0,0,2.08,1.15,11.77,11.77,0,0,0,3.28.44ZM286.12,31.77a9.24,9.24,0,0,0-1.63-3.17,7,7,0,0,0-2.66-2,9.41,9.41,0,0,0-6.08-.39,10.5,10.5,0,0,0-1.89.74V17l-4.44.74V44.84a26.47,26.47,0,0,0,3.33.73,25.6,25.6,0,0,0,4.19.33,11.28,11.28,0,0,0,4.07-.69,8.39,8.39,0,0,0,3.06-2A8.8,8.8,0,0,0,286,40a11.83,11.83,0,0,0,.68-4.16,13.89,13.89,0,0,0-.57-4.09m-5.37,8.62a4.74,4.74,0,0,1-3.84,1.66,15.52,15.52,0,0,1-1.82-.09,10.54,10.54,0,0,1-1.23-.2v-11a6,6,0,0,1,1.56-.73,6.16,6.16,0,0,1,2.07-.34A4,4,0,0,1,281,31.32a7.88,7.88,0,0,1,1.12,4.47,7,7,0,0,1-1.4,4.6m-17-14.13h-4.43v15.5A8.29,8.29,0,0,1,258,42c-.6,0-1.17.07-1.71.07a3.51,3.51,0,0,1-3.13-1.32,8.1,8.1,0,0,1-.9-4.4v-10h-4.44V37a14.83,14.83,0,0,0,.41,3.57,7.08,7.08,0,0,0,1.34,2.8,6.11,6.11,0,0,0,2.49,1.84,10,10,0,0,0,3.87.66,27.35,27.35,0,0,0,4.51-.35c1.36-.23,2.48-.46,3.33-.68Zm-21,5.44a8.93,8.93,0,0,0-2-3.15,8.35,8.35,0,0,0-3.06-2,11.27,11.27,0,0,0-4.07-.7,25.39,25.39,0,0,0-4.18.33,33.1,33.1,0,0,0-3.33.7V52.21h4.43V44.77a9.24,9.24,0,0,0,1.87.73,8.93,8.93,0,0,0,2.49.33,8.58,8.58,0,0,0,3.62-.73A7.28,7.28,0,0,0,241.27,43a9.14,9.14,0,0,0,1.63-3.15,13.49,13.49,0,0,0,.57-4,12.1,12.1,0,0,0-.67-4.16m-5,8.67A4,4,0,0,1,234.27,42a6.16,6.16,0,0,1-2.07-.35,6.68,6.68,0,0,1-1.56-.75V30a7.69,7.69,0,0,1,1.34-.24c.45,0,.89-.06,1.3-.06a5.2,5.2,0,0,1,4.31,1.66,7.11,7.11,0,0,1,1.34,4.61,7.84,7.84,0,0,1-1.12,4.44m-29-6.42a7.94,7.94,0,0,1,.4-1.65,5,5,0,0,1,.83-1.43,4,4,0,0,1,1.3-1,4.33,4.33,0,0,1,3.5,0,3.53,3.53,0,0,1,1.21,1,4.24,4.24,0,0,1,.75,1.43,5.86,5.86,0,0,1,.26,1.74Zm-4,6a8.6,8.6,0,0,0,1.79,3.15,8.17,8.17,0,0,0,3.08,2.09,11.82,11.82,0,0,0,4.4.75,15.71,15.71,0,0,0,2-.11q.94-.1,1.77-.27a13.09,13.09,0,0,0,1.47-.37,7.09,7.09,0,0,0,1-.38l-.59-3.63a11.47,11.47,0,0,1-2.11.62,13.47,13.47,0,0,1-2.95.29,6.23,6.23,0,0,1-4.2-1.26,5.09,5.09,0,0,1-1.63-3.57h12.65c0-.25,0-.52.06-.83s0-.58,0-.82c0-3.25-.74-5.7-2.21-7.33a7.9,7.9,0,0,0-6.18-2.46,8.84,8.84,0,0,0-3.3.64A8.26,8.26,0,0,0,207,28.33a9.29,9.29,0,0,0-2,3.17,12.06,12.06,0,0,0-.75,4.43,12.93,12.93,0,0,0,.59,4M191.86,24a6.12,6.12,0,0,1,2,.68,3.25,3.25,0,0,1,1.26,1.29,4,4,0,0,1,.44,2,4.19,4.19,0,0,1-.44,2.06,3.15,3.15,0,0,1-1.3,1.28,6.13,6.13,0,0,1-2.14.66,21.72,21.72,0,0,1-3,.18h-2V23.87c.83-.07,1.74-.11,2.71-.11a14.81,14.81,0,0,1,2.5.2m-6.23-4.06a24.63,24.63,0,0,0-3.6.49v25h4.62V35.82h2.94l.87,0c.47.58,1,1.25,1.51,2s1.08,1.54,1.63,2.39,1.09,1.71,1.63,2.6,1,1.78,1.5,2.66h5.17c-.44-1-.94-1.93-1.5-2.92s-1.15-1.95-1.76-2.89-1.21-1.82-1.8-2.62-1.11-1.49-1.57-2.06q5.08-1.83,5.09-7a7,7,0,0,0-2.91-6.16q-2.91-2-8.42-2c-1,0-2.13,0-3.4.13"/><path class="cls-3" d="M340.27,53.29l-4.44.73v9.2a11.06,11.06,0,0,0-1.83-.73,8.32,8.32,0,0,0-2.46-.33,8.81,8.81,0,0,0-3.63.71,7.44,7.44,0,0,0-2.67,2,9,9,0,0,0-1.67,3.17A14,14,0,0,0,323,72.2a11.92,11.92,0,0,0,.68,4.17,8.85,8.85,0,0,0,1.94,3.15,8.47,8.47,0,0,0,3.06,2,11.32,11.32,0,0,0,4.07.69,25.72,25.72,0,0,0,4.2-.33,26.27,26.27,0,0,0,3.32-.73ZM328.66,67.62A4,4,0,0,1,332.2,66a6.16,6.16,0,0,1,2.07.35,6.68,6.68,0,0,1,1.56.75v11c-.32.07-.73.14-1.23.2a15.46,15.46,0,0,1-1.81.09,4.71,4.71,0,0,1-3.85-1.67,6.94,6.94,0,0,1-1.4-4.6,7.91,7.91,0,0,1,1.12-4.47m-26,14.11h4.43V66.27c.3,0,.75-.12,1.36-.19a15.53,15.53,0,0,1,1.76-.11,5.36,5.36,0,0,1,1.92.31,2.67,2.67,0,0,1,1.25,1A4.56,4.56,0,0,1,314,69a15,15,0,0,1,.2,2.62V81.73h4.44V71a15.4,15.4,0,0,0-.39-3.58,6.71,6.71,0,0,0-1.32-2.78,6.13,6.13,0,0,0-2.51-1.8,10.41,10.41,0,0,0-3.92-.64,28.84,28.84,0,0,0-4.55.33,28,28,0,0,0-3.33.7ZM286,62.38a16,16,0,0,0-2.46.59l.55,3.59a12.18,12.18,0,0,1,2.09-.52,17.42,17.42,0,0,1,2.82-.21,5.14,5.14,0,0,1,1.89.29,3,3,0,0,1,1.21.82,3.15,3.15,0,0,1,.64,1.23,5.86,5.86,0,0,1,.18,1.47v.73a15.35,15.35,0,0,0-1.72-.31,13.92,13.92,0,0,0-1.54-.09,14.12,14.12,0,0,0-3,.31,7.47,7.47,0,0,0-2.55,1,5.06,5.06,0,0,0-1.74,1.85,5.52,5.52,0,0,0-.64,2.78,6.61,6.61,0,0,0,.56,2.9,5.09,5.09,0,0,0,1.58,1.91,6.79,6.79,0,0,0,2.44,1.06,14,14,0,0,0,3.15.33,32.63,32.63,0,0,0,4.67-.31c1.39-.21,2.42-.39,3.1-.53V69.67a12,12,0,0,0-.38-3.09,5.74,5.74,0,0,0-1.29-2.4,5.86,5.86,0,0,0-2.4-1.54,10.73,10.73,0,0,0-3.7-.55,18.77,18.77,0,0,0-3.44.29M287.11,78a2.33,2.33,0,0,1-1-2.18,2.3,2.3,0,0,1,.37-1.34,2.51,2.51,0,0,1,1-.82,4.7,4.7,0,0,1,1.36-.4,9.3,9.3,0,0,1,1.48-.11,9.14,9.14,0,0,1,1.54.11,6.76,6.76,0,0,1,1.06.22V78.4a16.15,16.15,0,0,1-3.11.22,5,5,0,0,1-2.68-.61m-7.66.43a7,7,0,0,1-1.45-.32,2,2,0,0,1-.9-.58,2.11,2.11,0,0,1-.45-.94,5.77,5.77,0,0,1-.13-1.35v-22l-4.44.73V76.09a9.48,9.48,0,0,0,.31,2.55,4.09,4.09,0,0,0,1.09,1.87,5,5,0,0,0,2.07,1.15,11.77,11.77,0,0,0,3.28.44ZM261.8,76.71a4.33,4.33,0,0,1-6.86,0,7.68,7.68,0,0,1-1.22-4.58,7.58,7.58,0,0,1,1.22-4.53,4.37,4.37,0,0,1,6.86,0A7.51,7.51,0,0,1,263,72.13a7.61,7.61,0,0,1-1.23,4.58m5.09-8.7A9.41,9.41,0,0,0,265,64.83a8.38,8.38,0,0,0-2.92-2,9.41,9.41,0,0,0-3.72-.71,9.32,9.32,0,0,0-3.7.71,8.57,8.57,0,0,0-2.92,2,9.29,9.29,0,0,0-1.9,3.18,12.88,12.88,0,0,0,0,8.26,9.28,9.28,0,0,0,1.89,3.19,8.44,8.44,0,0,0,2.89,2.06,9.45,9.45,0,0,0,3.74.73,9.58,9.58,0,0,0,3.76-.73A8.42,8.42,0,0,0,265,79.46a9.09,9.09,0,0,0,1.87-3.19,12.31,12.31,0,0,0,.66-4.14,11.72,11.72,0,0,0-.68-4.12m-28.63-7.74a6.28,6.28,0,0,1,2,.68,3.42,3.42,0,0,1,1.32,1.32,4.17,4.17,0,0,1,.48,2.09,3.63,3.63,0,0,1-1.8,3.54,11.38,11.38,0,0,1-5.13.93H232.9V60.18c.75-.07,1.72-.11,2.89-.11a14.8,14.8,0,0,1,2.47.2m-6.41-4.07a22.58,22.58,0,0,0-3.57.5v25h4.62V72.79h2.3a23,23,0,0,0,5-.48,10.54,10.54,0,0,0,3.67-1.48,6.67,6.67,0,0,0,2.29-2.6,8.53,8.53,0,0,0,.79-3.83c0-2.86-1-5-3-6.31s-4.8-2-8.49-2c-1.1,0-2.3,0-3.61.13m-25.06-.8a8.26,8.26,0,0,0-1.94,5.81V81.73h4.44V66.27h7V62.56h-7V61.28a7.73,7.73,0,0,1,.18-1.71,3.27,3.27,0,0,1,.62-1.33,2.9,2.9,0,0,1,1.18-.86,4.51,4.51,0,0,1,1.79-.32,8.3,8.3,0,0,1,1.78.19,6.66,6.66,0,0,1,1.45.48l.84-3.67a15.35,15.35,0,0,0-1.76-.5,12.11,12.11,0,0,0-2.71-.27c-2.62,0-4.57.7-5.87,2.11M194.5,76.71a4.33,4.33,0,0,1-6.86,0,7.61,7.61,0,0,1-1.23-4.58,7.51,7.51,0,0,1,1.23-4.53,4.37,4.37,0,0,1,6.86,0,7.58,7.58,0,0,1,1.22,4.53,7.68,7.68,0,0,1-1.22,4.58m5.09-8.7a9.43,9.43,0,0,0-1.89-3.18,8.25,8.25,0,0,0-2.91-2,9.48,9.48,0,0,0-3.72-.71,9.28,9.28,0,0,0-3.7.71,8.57,8.57,0,0,0-2.92,2A9.47,9.47,0,0,0,182.54,68a12.88,12.88,0,0,0,0,8.26,9.61,9.61,0,0,0,1.89,3.19,8.47,8.47,0,0,0,2.9,2.06,9.41,9.41,0,0,0,3.74.73,9.58,9.58,0,0,0,3.76-.73,8.51,8.51,0,0,0,2.91-2.06,9.09,9.09,0,0,0,1.87-3.19,12.31,12.31,0,0,0,.66-4.14,12,12,0,0,0-.68-4.12"/></svg>