<svg preserveAspectRatio="xMidYMid meet" viewBox="0 0 430.17 98.98" xmlns="http://www.w3.org/2000/svg"><g fill="#1d1d1b" transform="translate(-33.33 -33.31)"><path d="m222.49 58c-1 0-1.86 0-2.68.11v8.11h2a21 21 0 0 0 2.93-.18 6.23 6.23 0 0 0 2.12-.65 3.28 3.28 0 0 0 1.29-1.27 4.33 4.33 0 0 0 .43-2 4.13 4.13 0 0 0 -.43-1.95 3.34 3.34 0 0 0 -1.26-1.27 5.77 5.77 0 0 0 -1.93-.67 14.41 14.41 0 0 0 -2.46-.2m-.34-4.03c3.63 0 6.39.66 8.31 2a6.87 6.87 0 0 1 2.88 6.08c0 3.4-1.68 5.71-5 6.91.47.56 1 1.23 1.57 2s1.16 1.66 1.77 2.59 1.18 1.88 1.73 2.86 1.05 1.93 1.49 2.88h-5.1c-.46-.87-1-1.75-1.49-2.63s-1.06-1.73-1.61-2.57-1.08-1.61-1.61-2.35-1-1.39-1.49-2h-.86-2.9v9.49h-4.56v-24.63a25.33 25.33 0 0 1 3.55-.49q1.88-.12 3.36-.12"/><path d="m251.74 63.5c-.49.5-1.12 1.22-1.9 2.14s-1.62 1.93-2.52 3.06-1.79 2.29-2.69 3.51-1.72 2.38-2.45 3.49h9.82v3.66h-15v-2.72a33.58 33.58 0 0 1 2-3.15c.79-1.13 1.62-2.27 2.46-3.42s1.68-2.24 2.52-3.27 1.57-2 2.22-2.72h-8.72v-3.66h14.37z"/><path d="m267.05 68a5.73 5.73 0 0 0 -.26-1.72 4 4 0 0 0 -.73-1.41 3.59 3.59 0 0 0 -1.2-1 3.79 3.79 0 0 0 -1.68-.34 4 4 0 0 0 -1.78.38 4.22 4.22 0 0 0 -1.28 1 4.7 4.7 0 0 0 -.82 1.41 8.26 8.26 0 0 0 -.4 1.63zm-12.71 2a11.82 11.82 0 0 1 .75-4.38 9.18 9.18 0 0 1 2-3.13 8.3 8.3 0 0 1 2.83-1.88 8.79 8.79 0 0 1 3.26-.63 7.78 7.78 0 0 1 6.1 2.42c1.47 1.62 2.19 4 2.19 7.24v.81s0 .58-.05.82h-12.55a5 5 0 0 0 1.61 3.52 6.09 6.09 0 0 0 4.15 1.21 13.86 13.86 0 0 0 2.91-.29 12.42 12.42 0 0 0 2.08-.62l.58 3.58a6.34 6.34 0 0 1 -1 .39q-.63.19-1.44.36c-.55.11-1.13.2-1.76.27a17.37 17.37 0 0 1 -1.92.11 11.66 11.66 0 0 1 -4.34-.74 8.33 8.33 0 0 1 -3.05-2.06 8.53 8.53 0 0 1 -1.77-3.11 12.86 12.86 0 0 1 -.58-3.93"/><path d="m275 69.91a11.5 11.5 0 0 1 .66-3.93 9.28 9.28 0 0 1 1.86-3.17 8.56 8.56 0 0 1 3-2.09 9.64 9.64 0 0 1 3.91-.77 13.31 13.31 0 0 1 5.07 1l-.94 3.58a10.27 10.27 0 0 0 -1.76-.53 9 9 0 0 0 -2.05-.22 4.79 4.79 0 0 0 -3.91 1.61 6.92 6.92 0 0 0 -1.33 4.54 7.13 7.13 0 0 0 1.27 4.47c.83 1.08 2.22 1.6 4.22 1.6a11.66 11.66 0 0 0 2.21-.22 10.76 10.76 0 0 0 1.89-.54l.61 3.62a10 10 0 0 1 -2.19.65 15.78 15.78 0 0 1 -3 .29 11.05 11.05 0 0 1 -4.22-.74 8.1 8.1 0 0 1 -3-2.07 8.5 8.5 0 0 1 -1.75-3.15 12.94 12.94 0 0 1 -.59-4"/><path d="m306.4 63.5c-.48.5-1.12 1.22-1.9 2.14s-1.63 1.93-2.52 3.06-1.79 2.29-2.69 3.51-1.73 2.38-2.45 3.49h9.77v3.66h-15.05v-2.72a33.58 33.58 0 0 1 2-3.15q1.18-1.69 2.46-3.42c.85-1.14 1.68-2.24 2.51-3.27s1.58-2 2.23-2.72h-8.76v-3.66h14.4z"/><path d="m323.23 70a7.06 7.06 0 0 0 -1.32-4.56 5.18 5.18 0 0 0 -4.25-1.63c-.41 0-.84 0-1.29.05a7.47 7.47 0 0 0 -1.32.24v10.81a6.73 6.73 0 0 0 1.54.73 5.72 5.72 0 0 0 2 .35 3.92 3.92 0 0 0 3.5-1.63 7.74 7.74 0 0 0 1.1-4.38m4.49-.07a13.53 13.53 0 0 1 -.56 4 9.26 9.26 0 0 1 -1.57 3.09 7.14 7.14 0 0 1 -2.63 2 8.48 8.48 0 0 1 -3.56.73 8.61 8.61 0 0 1 -2.46-.33 9 9 0 0 1 -1.85-.73v7.35h-4.38v-25.02a33.24 33.24 0 0 1 3.29-.68 24.84 24.84 0 0 1 4.13-.34 10.83 10.83 0 0 1 4 .7 8.2 8.2 0 0 1 3 2 8.56 8.56 0 0 1 1.92 3.11 11.81 11.81 0 0 1 .67 4.11"/><path d="m344.87 69.87a7.32 7.32 0 0 0 -1.21-4.47 4.31 4.31 0 0 0 -6.77 0 7.45 7.45 0 0 0 -1.21 4.47 7.61 7.61 0 0 0 1.21 4.53 4.28 4.28 0 0 0 6.77 0 7.47 7.47 0 0 0 1.21-4.53m4.5 0a12.06 12.06 0 0 1 -.66 4.09 9.09 9.09 0 0 1 -1.84 3.15 8.32 8.32 0 0 1 -2.88 2 9.33 9.33 0 0 1 -3.71.72 9.2 9.2 0 0 1 -3.69-.72 8.24 8.24 0 0 1 -2.86-2 9.13 9.13 0 0 1 -1.86-3.11 12.58 12.58 0 0 1 0-8.16 9 9 0 0 1 1.88-3.13 8.23 8.23 0 0 1 2.88-2 9.21 9.21 0 0 1 3.65-.7 9.46 9.46 0 0 1 3.68.7 8 8 0 0 1 2.87 2 9.32 9.32 0 0 1 1.87 3.13 11.94 11.94 0 0 1 .67 4.07"/><path d="m358.63 76.21a5.74 5.74 0 0 0 2.54-.42 1.48 1.48 0 0 0 .8-1.43 1.84 1.84 0 0 0 -.86-1.55 11.82 11.82 0 0 0 -2.8-1.34 20.6 20.6 0 0 1 -2.19-.93 7 7 0 0 1 -1.72-1.14 4.47 4.47 0 0 1 -1.14-1.57 5.46 5.46 0 0 1 -.42-2.26 4.93 4.93 0 0 1 1.92-4.11 8.2 8.2 0 0 1 5.24-1.46 16.33 16.33 0 0 1 3.18.31 16.59 16.59 0 0 1 2.29.6l-.8 3.55a10.32 10.32 0 0 0 -1.85-.6 11.11 11.11 0 0 0 -2.6-.27 4.54 4.54 0 0 0 -2.22.41 1.48 1.48 0 0 0 -.84 1.39 2 2 0 0 0 .17.83 1.76 1.76 0 0 0 .56.68 5.4 5.4 0 0 0 1 .61 13.86 13.86 0 0 0 1.59.63 25.27 25.27 0 0 1 2.64 1.14 7.26 7.26 0 0 1 1.8 1.27 4.36 4.36 0 0 1 1 1.61 6.17 6.17 0 0 1 .33 2.18 4.65 4.65 0 0 1 -2 4.1 10 10 0 0 1 -5.73 1.4 15.54 15.54 0 0 1 -4-.42 18.51 18.51 0 0 1 -2.14-.67l.76-3.66a18.46 18.46 0 0 0 2.34.76 11.58 11.58 0 0 0 3.09.37"/><path d="m383 70a7.06 7.06 0 0 0 -1.33-4.56 5.17 5.17 0 0 0 -4.25-1.63c-.41 0-.84 0-1.29.05a7.2 7.2 0 0 0 -1.31.24v10.81a6.44 6.44 0 0 0 1.53.73 5.83 5.83 0 0 0 2 .35 3.92 3.92 0 0 0 3.5-1.63 7.66 7.66 0 0 0 1.15-4.36m4.48-.07a13.53 13.53 0 0 1 -.56 4 9.08 9.08 0 0 1 -1.61 3.07 7.19 7.19 0 0 1 -2.62 2 8.5 8.5 0 0 1 -3.57.73 9.15 9.15 0 0 1 -4.3-1.06v7.35h-4.39v-25.02a33.51 33.51 0 0 1 3.3-.68 24.72 24.72 0 0 1 4.12-.34 10.88 10.88 0 0 1 4 .7 8.25 8.25 0 0 1 3 2 8.56 8.56 0 0 1 1.92 3.11 11.81 11.81 0 0 1 .67 4.11"/><path d="m404.65 69.87a7.38 7.38 0 0 0 -1.22-4.47 4.31 4.31 0 0 0 -6.77 0 7.38 7.38 0 0 0 -1.21 4.47 7.54 7.54 0 0 0 1.21 4.53 4.28 4.28 0 0 0 6.77 0 7.54 7.54 0 0 0 1.22-4.53m4.48 0a12.06 12.06 0 0 1 -.65 4.09 9.11 9.11 0 0 1 -1.85 3.15 8.23 8.23 0 0 1 -2.88 2 9.87 9.87 0 0 1 -7.4 0 8.34 8.34 0 0 1 -2.86-2 9.46 9.46 0 0 1 -1.86-3.11 12.76 12.76 0 0 1 0-8.16 9.18 9.18 0 0 1 1.88-3.13 8.32 8.32 0 0 1 2.88-2 9.28 9.28 0 0 1 3.61-.71 9.43 9.43 0 0 1 3.68.7 8.14 8.14 0 0 1 2.88 2 9.3 9.3 0 0 1 1.86 3.13 11.7 11.7 0 0 1 .67 4.07"/><path d="m420.24 79.72a12 12 0 0 1 -3.24-.44 4.84 4.84 0 0 1 -2-1.14 3.91 3.91 0 0 1 -1.07-1.84 9.66 9.66 0 0 1 -.31-2.52v-18.54l4.38-.72v18.48a5.67 5.67 0 0 0 .13 1.34 2 2 0 0 0 .45.92 1.92 1.92 0 0 0 .88.58 6.51 6.51 0 0 0 1.44.31z"/><path d="m428.82 79.36h-4.38v-18.94h4.38zm.47-24.47a2.5 2.5 0 0 1 -.79 2 2.87 2.87 0 0 1 -3.8 0 2.5 2.5 0 0 1 -.8-2 2.55 2.55 0 0 1 .8-2 2.84 2.84 0 0 1 3.8 0 2.54 2.54 0 0 1 .79 2"/><path d="m434.18 55.24 4.38-.72v5.9h6.73v3.66h-6.73v7.71a5.63 5.63 0 0 0 .72 3.26 2.88 2.88 0 0 0 2.46 1 7.93 7.93 0 0 0 2.12-.26 13 13 0 0 0 1.47-.47l.73 3.48a16.5 16.5 0 0 1 -2 .67 10.84 10.84 0 0 1 -2.9.34 9.17 9.17 0 0 1 -3.38-.54 5 5 0 0 1 -2.15-1.58 6 6 0 0 1 -1.12-2.5 14.58 14.58 0 0 1 -.33-3.34z"/><path d="m456.19 76.28a15.94 15.94 0 0 0 3.08-.22v-4.85c-.25-.07-.6-.14-1-.22a11.91 11.91 0 0 0 -1.53-.1 12.36 12.36 0 0 0 -1.46.1 5 5 0 0 0 -1.34.4 2.48 2.48 0 0 0 -1 .82 2.76 2.76 0 0 0 .62 3.47 5 5 0 0 0 2.64.6m-.38-16.28a10.49 10.49 0 0 1 3.66.55 5.91 5.91 0 0 1 2.37 1.45 5.76 5.76 0 0 1 1.27 2.38 11.76 11.76 0 0 1 .38 3.06v11.48c-.67.15-1.69.32-3.06.53a32 32 0 0 1 -4.62.31 13.74 13.74 0 0 1 -3.11-.33 6.58 6.58 0 0 1 -2.4-1.05 4.86 4.86 0 0 1 -1.56-1.88 6.48 6.48 0 0 1 -.56-2.86 5.54 5.54 0 0 1 .63-2.75 5.2 5.2 0 0 1 1.72-1.83 7.36 7.36 0 0 1 2.52-1 13.78 13.78 0 0 1 3-.31 13.54 13.54 0 0 1 1.51.09 15.45 15.45 0 0 1 1.71.3v-.72a5.17 5.17 0 0 0 -.19-1.44 2.85 2.85 0 0 0 -.63-1.22 3 3 0 0 0 -1.19-.81 5.07 5.07 0 0 0 -1.87-.29 17.21 17.21 0 0 0 -2.79.21 11.22 11.22 0 0 0 -2.06.51l-.55-3.56a17.25 17.25 0 0 1 2.42-.57 18.46 18.46 0 0 1 3.4-.3"/><path d="m222.66 91.52c-1.15 0-2.1 0-2.86.11v8.55h2.2a11.18 11.18 0 0 0 5.07-.93 3.55 3.55 0 0 0 1.77-3.49 4.05 4.05 0 0 0 -.48-2.06 3.32 3.32 0 0 0 -1.29-1.31 6.5 6.5 0 0 0 -2-.67 14.55 14.55 0 0 0 -2.45-.2m-.32-3.94q5.46 0 8.38 2c1.95 1.33 2.91 3.4 2.91 6.23a8.58 8.58 0 0 1 -.77 3.78 6.67 6.67 0 0 1 -2.26 2.57 10.53 10.53 0 0 1 -3.62 1.47 23.18 23.18 0 0 1 -4.89.47h-2.25v8.83h-4.56v-24.73a22.43 22.43 0 0 1 3.53-.49c1.3-.09 2.49-.13 3.57-.13"/><path d="m249.56 103.44a7.36 7.36 0 0 0 -1.21-4.44 4.3 4.3 0 0 0 -6.77 0 7.36 7.36 0 0 0 -1.21 4.47 7.53 7.53 0 0 0 1.21 4.52 4.27 4.27 0 0 0 6.77 0 7.53 7.53 0 0 0 1.21-4.52m4.49 0a12.35 12.35 0 0 1 -.65 4.09 9.05 9.05 0 0 1 -1.85 3.15 8.29 8.29 0 0 1 -2.87 2 9.18 9.18 0 0 1 -3.72.73 9 9 0 0 1 -3.68-.73 8.25 8.25 0 0 1 -2.86-2 9.25 9.25 0 0 1 -1.87-3.15 11.86 11.86 0 0 1 -.67-4.09 11.62 11.62 0 0 1 .67-4.07 9 9 0 0 1 1.88-3.14 8.32 8.32 0 0 1 2.88-2 9.24 9.24 0 0 1 3.65-.7 9.46 9.46 0 0 1 3.68.7 8.14 8.14 0 0 1 2.88 2 9.25 9.25 0 0 1 1.86 3.14 11.62 11.62 0 0 1 .67 4.07"/><path d="m265.17 113.28a12.07 12.07 0 0 1 -3.25-.43 5.14 5.14 0 0 1 -2-1.14 4.08 4.08 0 0 1 -1.07-1.85 9.58 9.58 0 0 1 -.31-2.51v-18.5l4.38-.73v18.4a6.16 6.16 0 0 0 .13 1.33 2.37 2.37 0 0 0 .45.93 2.26 2.26 0 0 0 .89.58 7.59 7.59 0 0 0 1.43.31z"/><path d="m274.07 109.77a5.83 5.83 0 0 0 2.53-.41 1.49 1.49 0 0 0 .8-1.43 1.85 1.85 0 0 0 -.85-1.56 12.56 12.56 0 0 0 -2.81-1.34c-.79-.29-1.52-.6-2.18-.92a7.55 7.55 0 0 1 -1.73-1.15 4.39 4.39 0 0 1 -1.13-1.57 5.46 5.46 0 0 1 -.42-2.26 4.93 4.93 0 0 1 1.92-4.13 8.24 8.24 0 0 1 5.21-1.5 16.52 16.52 0 0 1 3.19.3 16.78 16.78 0 0 1 2.28.6l-.8 3.55a10.75 10.75 0 0 0 -1.84-.6 11.26 11.26 0 0 0 -2.61-.27 4.61 4.61 0 0 0 -2.18.45 1.5 1.5 0 0 0 -.82 1.4 2.16 2.16 0 0 0 .15.83 1.84 1.84 0 0 0 .57.67 5.1 5.1 0 0 0 1 .61 16.07 16.07 0 0 0 1.6.64 24.12 24.12 0 0 1 2.64 1.14 7.19 7.19 0 0 1 1.8 1.27 4.39 4.39 0 0 1 1 1.61 6.62 6.62 0 0 1 .32 2.17 4.68 4.68 0 0 1 -2 4.11 10 10 0 0 1 -5.74 1.39 15.51 15.51 0 0 1 -4-.42 18.51 18.51 0 0 1 -2.14-.67l.76-3.65a21.35 21.35 0 0 0 2.33.76 12.16 12.16 0 0 0 3.1.36"/><path d="m290.25 101.37c.56-.57 1.15-1.2 1.78-1.86s1.24-1.33 1.84-2l1.72-1.92c.54-.61 1-1.15 1.4-1.61h5.17q-1.8 2-3.8 4.2t-4 4.23a25.29 25.29 0 0 1 2.28 2.19c.8.86 1.57 1.77 2.32 2.74s1.44 1.93 2.09 2.89a29.46 29.46 0 0 1 1.62 2.68h-5.07c-.43-.75-.93-1.53-1.5-2.35a29.28 29.28 0 0 0 -1.83-2.4c-.65-.76-1.31-1.49-2-2.18a17.27 17.27 0 0 0 -2-1.76v8.69h-4.38v-24.06l4.38-.73z"/><path d="m312.48 109.84a17 17 0 0 0 3.08-.21v-4.85a7.31 7.31 0 0 0 -1.06-.22 10 10 0 0 0 -1.52-.11 10.36 10.36 0 0 0 -1.46.11 4.42 4.42 0 0 0 -1.35.4 2.41 2.41 0 0 0 -.95.81 2.28 2.28 0 0 0 -.37 1.32 2.32 2.32 0 0 0 1 2.16 5.09 5.09 0 0 0 2.64.59m-.36-16.32a10.73 10.73 0 0 1 3.65.54 5.82 5.82 0 0 1 2.37 1.52 5.66 5.66 0 0 1 1.26 2.42 11.76 11.76 0 0 1 .38 3.06v11.48c-.67.14-1.69.32-3.06.52a30.59 30.59 0 0 1 -4.61.31 14.45 14.45 0 0 1 -3.12-.37 6.55 6.55 0 0 1 -2.41-1.06 4.92 4.92 0 0 1 -1.55-1.88 6.42 6.42 0 0 1 -.56-2.86 5.56 5.56 0 0 1 .63-2.75 5.2 5.2 0 0 1 1.72-1.83 7.28 7.28 0 0 1 2.52-1 13.75 13.75 0 0 1 3-.31 13.57 13.57 0 0 1 3.23.4v-.71a5.17 5.17 0 0 0 -.19-1.44 2.85 2.85 0 0 0 -1.83-2 5.19 5.19 0 0 0 -1.86-.29 16.11 16.11 0 0 0 -2.79.22 11.22 11.22 0 0 0 -2.06.51l-.54-3.55a15.72 15.72 0 0 1 2.42-.58 19.43 19.43 0 0 1 3.41-.29"/></g><path d="m0 0h148.67v49.52h-148.67z" fill="#fff"/><path d="m0 49.52h148.67v49.46h-148.67z" fill="#b61f2b"/></svg>