<svg viewBox="0 0 18.45 38.657" xmlns="http://www.w3.org/2000/svg"><path d="m111.489 129.482h-12.534a2.994 2.994 0 0 1 -2.109-.879 2.9 2.9 0 0 1 -.846-2.079v-32.739a2.906 2.906 0 0 1 .849-2.081 2.994 2.994 0 0 1 2.109-.879h12.534a2.994 2.994 0 0 1 2.109.879 2.906 2.906 0 0 1 .849 2.081v32.739a2.9 2.9 0 0 1 -.849 2.079 2.994 2.994 0 0 1 -2.112.879zm-14.906-33.382h17.276v-2.315a2.283 2.283 0 0 0 -.7-1.671 2.24 2.24 0 0 0 -1.669-.7h-12.535a2.24 2.24 0 0 0 -1.669.7 2.285 2.285 0 0 0 -.7 1.671zm0 25.83h17.276v-25.248h-17.276zm0 .586v4.012a2.28 2.28 0 0 0 .7 1.669 2.234 2.234 0 0 0 1.669.7h12.534a2.234 2.234 0 0 0 1.669-.7 2.279 2.279 0 0 0 .7-1.669v-4.012zm8.668 5.064a1.9 1.9 0 1 1 1.9-1.9 1.9 1.9 0 0 1 -1.9 1.896zm0-3.219a1.318 1.318 0 1 0 1.318 1.318 1.312 1.312 0 0 0 -1.318-1.322z" fill="#fff" transform="translate(-95.997 -90.825)"/></svg>