<svg preserveAspectRatio="xMidYMid meet" viewBox="0 0 11 21" xmlns="http://www.w3.org/2000/svg"><g fill="#ff2d30" stroke="#ff2d30" transform="translate(-95.497 -90.325)"><path d="m104.394 110.825h-6.794a1.663 1.663 0 0 1 -1.143-.455 1.465 1.465 0 0 1 -.46-1.076v-16.938a1.469 1.469 0 0 1 .46-1.077 1.663 1.663 0 0 1 1.143-.455h6.794a1.663 1.663 0 0 1 1.143.455 1.469 1.469 0 0 1 .46 1.077v16.938a1.465 1.465 0 0 1 -.46 1.076 1.663 1.663 0 0 1 -1.143.455zm-8.08-17.273h9.364v-1.2a1.155 1.155 0 0 0 -.38-.865 1.243 1.243 0 0 0 -.9-.363h-6.798a1.243 1.243 0 0 0 -.9.363 1.156 1.156 0 0 0 -.381.865zm0 13.364h9.364v-13.061h-9.364zm0 .3v2.076a1.154 1.154 0 0 0 .381.864 1.24 1.24 0 0 0 .9.364h6.794a1.24 1.24 0 0 0 .9-.364 1.153 1.153 0 0 0 .38-.864v-2.076zm4.7 2.62a.985.985 0 1 1 1.032-.984 1.006 1.006 0 0 1 -1.033.987zm0-1.666a.683.683 0 1 0 .714.682.7.7 0 0 0 -.715-.679z"/><path d="m104.394 110.825h-6.794a1.663 1.663 0 0 1 -1.143-.455 1.465 1.465 0 0 1 -.46-1.076v-16.938a1.469 1.469 0 0 1 .46-1.077 1.663 1.663 0 0 1 1.143-.455h6.794a1.663 1.663 0 0 1 1.143.455 1.469 1.469 0 0 1 .46 1.077v16.938a1.465 1.465 0 0 1 -.46 1.076 1.663 1.663 0 0 1 -1.143.455zm-8.08-17.273h9.364v-1.2a1.155 1.155 0 0 0 -.38-.865 1.243 1.243 0 0 0 -.9-.363h-6.798a1.243 1.243 0 0 0 -.9.363 1.156 1.156 0 0 0 -.381.865zm0 13.364h9.364v-13.061h-9.364zm0 .3v2.076a1.154 1.154 0 0 0 .381.864 1.24 1.24 0 0 0 .9.364h6.794a1.24 1.24 0 0 0 .9-.364 1.153 1.153 0 0 0 .38-.864v-2.076zm4.7 2.62a.985.985 0 1 1 1.032-.984 1.006 1.006 0 0 1 -1.033.987zm0-1.666a.683.683 0 1 0 .714.682.7.7 0 0 0 -.715-.679z"/></g></svg>