<svg id="Layer_7" data-name="Layer 7" xmlns="http://www.w3.org/2000/svg" xmlns:xlink="http://www.w3.org/1999/xlink" viewBox="0 0 347.64 234.86" preserveAspectRatio="xMidYMid meet"><defs><style>.cls-1,.cls-7{fill:none;}.cls-2{clip-path:url(#clip-path);}.cls-3{fill:#e6e7e8;}.cls-4{fill:#d1d3d4;}.cls-5{fill:#fff;}.cls-6{fill:#1268b3;}.cls-7{stroke:#e6e7e8;stroke-miterlimit:10;}.cls-8{clip-path:url(#clip-path-2);}.cls-9{fill:#1769b0;}.cls-10{fill:#ea1c3c;}.cls-11{fill:#6d6e71;}</style><clipPath id="clip-path" transform="translate(13.32)"><rect class="cls-1" x="0.19" y="0.1" width="320.61" height="234.67"/></clipPath><clipPath id="clip-path-2" transform="translate(13.32)"><rect class="cls-1" x="118.65" y="133.37" width="29.44" height="17.64"/></clipPath></defs><g class="cls-2"><rect class="cls-3" x="0.19" y="0.54" width="346.07" height="234.13"/><rect class="cls-4" x="114.88" y="111.83" width="12.18" height="15.7"/><rect class="cls-4" x="148.33" y="27.73" width="49.38" height="77.34"/><rect class="cls-4" x="83.51" y="0.45" width="39.94" height="70.14"/><rect class="cls-4" x="83.51" y="74.66" width="39.94" height="24.46"/><rect class="cls-4" x="197.52" y="27.43" width="148.74" height="13.13"/><rect class="cls-4" x="201.89" y="45.09" width="59.03" height="37.26"/><rect class="cls-4" x="194.92" y="111.04" width="35.64" height="22.7"/><rect class="cls-4" x="197.35" y="165.34" width="71.48" height="27.48"/><rect class="cls-4" x="316.12" y="165.34" width="30.15" height="27.48"/><rect class="cls-4" x="180.96" y="147.44" width="25.31" height="15.52"/><rect class="cls-4" x="235.04" y="111.04" width="47.17" height="22.7"/><rect class="cls-4" x="286.72" y="111.04" width="35.01" height="22.7"/><rect class="cls-4" x="326.08" y="51.07" width="20.18" height="88.67"/><rect class="cls-4" x="235.04" y="138.09" width="16.86" height="22.7"/><rect class="cls-4" x="286.72" y="138.09" width="16.86" height="22.7"/><rect class="cls-4" x="129.32" y="111.98" width="51.64" height="113.21"/><polygon class="cls-5" points="205.81 139.95 186.08 139.95 186.08 136.86 202.73 136.86 202.73 133.74 205.81 133.74 205.81 139.95"/><rect class="cls-5" x="75.84" y="0.54" width="3.08" height="234.13"/><polygon class="cls-5" points="309.66 107.04 77.39 107.04 77.39 103.95 306.57 103.95 306.57 0 309.66 0 309.66 107.04"/><rect class="cls-5" x="147.32" y="0.54" width="3.08" height="104.95"/><rect class="cls-5" x="123.85" y="43.49" width="24.47" height="3.08"/><rect class="cls-5" x="148.33" y="24.33" width="197.37" height="3.08"/><rect class="cls-5" x="244.23" y="0.54" width="3.08" height="25.52"/><polygon class="cls-5" points="347.64 207.9 185.43 207.9 185.43 25.87 188.51 25.87 188.51 204.82 347.64 204.82 347.64 207.9"/><path class="cls-6" d="M141.81,122.85a10.54,10.54,0,0,0-10.54,10.54c0,8.1,6.79,20.57,10.54,20.57s10.54-12.47,10.54-20.57A10.53,10.53,0,0,0,141.81,122.85Zm0,17.78a6.28,6.28,0,1,1,6.28-6.28A6.28,6.28,0,0,1,141.81,140.63Z" transform="translate(13.32)"/><path class="cls-6" d="M143.48,99.76v.91h-3.12V94.1h.94v5.66Z" transform="translate(13.32)"/><path class="cls-6" d="M147.62,98.69v.22a1.77,1.77,0,1,1-3.53,0v-.22a1.67,1.67,0,0,1,.73-1.45,1.71,1.71,0,0,1-.61-1.35v-.15a1.65,1.65,0,1,1,3.3,0v.15a1.73,1.73,0,0,1-.62,1.35A1.65,1.65,0,0,1,147.62,98.69Zm-.9,0c0-.64-.32-1-.86-1s-.87.34-.87,1v.22c0,.64.32,1,.87,1s.86-.33.86-1Zm-1.62-2.78c0,.62.28,1,.76,1s.76-.33.76-1v-.14c0-.59-.29-.89-.76-.89s-.76.3-.76.89Z" transform="translate(13.32)"/><path class="cls-6" d="M286.17,36.38v.9H283V30.72H284v5.66Z" transform="translate(13.32)"/><path class="cls-6" d="M290.31,35.3v.23a1.77,1.77,0,1,1-3.53,0V35.3a1.65,1.65,0,0,1,.72-1.44,1.74,1.74,0,0,1-.61-1.35v-.15a1.65,1.65,0,1,1,3.3,0v.15a1.7,1.7,0,0,1-.62,1.35A1.64,1.64,0,0,1,290.31,35.3Zm-.91,0c0-.63-.31-1-.86-1s-.86.34-.86,1v.23c0,.64.32,1,.86,1s.86-.32.86-1Zm-1.62-2.77c0,.62.28.95.76.95s.76-.33.76-.95v-.14c0-.59-.28-.89-.76-.89s-.76.3-.76.89Z" transform="translate(13.32)"/><path class="cls-6" d="M302.44,36.38v.9h-3.12V30.72h.95v5.66Z" transform="translate(13.32)"/><path class="cls-6" d="M305.89,30.71v.63l-1.78,5.95h-.94l1.69-5.73h-2.25v-.85Z" transform="translate(13.32)"/><path class="cls-6" d="M163.12,119.82v.91H160v-6.57h.94v5.66Z" transform="translate(13.32)"/><path class="cls-6" d="M165.46,114.16v6.54h-.91v-5.31l-1,.69v-1l1.22-.89Z" transform="translate(13.32)"/><path class="cls-6" d="M121.29,222.12v.9h-3.12v-6.57h1v5.67Z" transform="translate(13.32)"/><path class="cls-6" d="M123.63,216.45V223h-.91v-5.31l-1,.69v-1l1.22-.89Z" transform="translate(13.32)"/><path class="cls-6" d="M216.3,68.82c1.23,0,1.91-.49,1.91-2.13V57h1.66v9.69c0,2.45-1.23,3.76-3.57,3.76Z" transform="translate(13.32)"/><path class="cls-6" d="M50.61,184.08v1.74l1.32.3v1l-6.56-1.65v-1l6.56-1.65v1Zm-.88.2-1.76.41c-.44.09-1.06.2-1.41.24v0c.35,0,1,.14,1.41.25l1.76.4Z" transform="translate(13.32)"/><path class="cls-6" d="M45.14,182v-.91h6.79V182Z" transform="translate(13.32)"/><path class="cls-6" d="M51.47,180.13a.58.58,0,1,1,.57-.57A.55.55,0,0,1,51.47,180.13Z" transform="translate(13.32)"/><path class="cls-6" d="M50.61,173.25V175l1.32.3v1l-6.56-1.65v-1L51.93,172v1Zm-.88.2-1.76.41c-.44.09-1.06.2-1.41.24v0c.35.05,1,.14,1.41.25l1.76.4Z" transform="translate(13.32)"/><path class="cls-6" d="M47,168.66h.9a1.62,1.62,0,0,0-.11.61c0,.62.43,1,1.23,1h3v.91H47v-.64l.6-.11a1.37,1.37,0,0,1-.71-1.26A1.56,1.56,0,0,1,47,168.66Z" transform="translate(13.32)"/><path class="cls-6" d="M48.84,162.19h3.09v.9H48.87c-.83,0-1.14.23-1.14.65s.41.83,1.15.83h3v.9H48.87c-.83,0-1.14.25-1.14.67s.41.82,1.15.82h3v.9H47v-.64l.55-.1a1.29,1.29,0,0,1-.67-1.18,1.2,1.2,0,0,1,.75-1.16,1.3,1.3,0,0,1-.75-1.24C46.87,162.7,47.52,162.19,48.84,162.19Z" transform="translate(13.32)"/><path class="cls-6" d="M45.59,161.12a.55.55,0,0,1-.58-.57.58.58,0,1,1,1.15,0A.55.55,0,0,1,45.59,161.12ZM47,161v-.91h4.94V161Z" transform="translate(13.32)"/><path class="cls-6" d="M45.59,159a.58.58,0,1,1,.57-.58A.56.56,0,0,1,45.59,159Zm1.4-.13V158h4.94v.91Z" transform="translate(13.32)"/><path class="cls-6" d="M49.06,153.08l.65.43h2.22v.94H45.37v-.94h2.85l-.77-.43-2.08-1.31v-1.11l2.86,1.88,3.7-2.15v1.09Z" transform="translate(13.32)"/><path class="cls-6" d="M47,147.23h.9a1.62,1.62,0,0,0-.11.61c0,.62.43,1,1.23,1h3v.91H47v-.65l.6-.1a1.4,1.4,0,0,1-.71-1.27A1.6,1.6,0,0,1,47,147.23Z" transform="translate(13.32)"/><path class="cls-6" d="M48.65,143.3h3.28V144l-.46.07a1.22,1.22,0,0,1,.59,1.1,1.44,1.44,0,0,1-1.53,1.52c-1,0-1.52-.7-1.52-1.79v-.73h-.36c-.58,0-.91.22-.91.72a.7.7,0,0,0,.66.75v.91a1.54,1.54,0,0,1-1.53-1.68C46.87,143.85,47.52,143.3,48.65,143.3Zm1.12.91v.73c0,.55.26.87.76.87a.69.69,0,0,0,.72-.79.76.76,0,0,0-.84-.81Z" transform="translate(13.32)"/><path class="cls-6" d="M45.6,142a.55.55,0,0,1-.58-.57.58.58,0,1,1,1.15,0A.55.55,0,0,1,45.6,142Zm7.27.76c0-.63-.32-.88-.94-.88H47V141H51.9a1.65,1.65,0,0,1,1.85,1.79Z" transform="translate(13.32)"/><path class="cls-6" d="M50.17,139.74H48.74a1.75,1.75,0,1,1,0-3.49h1.43a1.75,1.75,0,1,1,0,3.49Zm0-2.57H48.74c-.69,0-1,.31-1,.83s.3.82,1,.82h1.43c.69,0,1-.31,1-.82S50.86,137.17,50.17,137.17Z" transform="translate(13.32)"/><path class="cls-6" d="M47,130l4.94,1.17v1l-1.79.44a17.26,17.26,0,0,1-2,.33v0a15.48,15.48,0,0,1,2,.34l1.79.42v1L47,135.86v-1l2.21-.44,1.7-.28v0c-.39-.05-1.15-.19-1.73-.31l-2.09-.45v-1l2.09-.46c.58-.11,1.34-.25,1.73-.3v0c-.34,0-1.14-.18-1.7-.28L47,130.9Z" transform="translate(13.32)"/><path class="cls-6" d="M50.39,125.9a1.73,1.73,0,1,1-.21,3.46H48.71a1.72,1.72,0,1,1,0-3.44H49.8v2.53h.38c.68,0,1-.3,1-.79s-.24-.76-.77-.84Zm-1.69,2.55h.42v-1.63H48.7c-.68,0-1,.3-1,.83S48,128.45,48.7,128.45Z" transform="translate(13.32)"/><path class="cls-6" d="M45.6,124.77a.55.55,0,0,1-.58-.58.58.58,0,0,1,1.15,0A.55.55,0,0,1,45.6,124.77Zm7.27.76c0-.63-.32-.88-.94-.88H47v-.91H51.9a1.64,1.64,0,0,1,1.85,1.79Z" transform="translate(13.32)"/><rect class="cls-3" y="0.73" width="346.07" height="234.13"/><path class="cls-6" d="M89.81,33.38c0,2.42-1.29,3.76-3.55,3.76H84.88V41.2H83.21V29.65h3.05C88.52,29.65,89.81,31,89.81,33.38Zm-1.7,0c0-1.42-.61-2.14-1.86-2.14H84.88v4.32h1.37C87.5,35.56,88.11,34.86,88.11,33.38Z" transform="translate(13.32)"/><path class="cls-6" d="M97.1,36.65v1.17c0,2.37-1.09,3.56-2.85,3.56s-2.84-1.16-2.9-3.12H93c.05,1.11.48,1.57,1.29,1.57s1.24-.5,1.24-2v-1.2c0-1.25-.38-1.75-1.21-1.75A1.23,1.23,0,0,0,93,36H91.45V29.65h5.29v1.44H93.05v2.74a2.42,2.42,0,0,1,1.45-.47C96.05,33.36,97.1,34.53,97.1,36.65Z" transform="translate(13.32)"/><path class="cls-6" d="M89.49,84.85c0,2.42-1.29,3.76-3.55,3.76H84.56v4H82.89V81.12h3C88.2,81.12,89.49,82.49,89.49,84.85Zm-1.7,0c0-1.42-.61-2.15-1.86-2.15H84.56V87h1.37C87.18,87,87.79,86.33,87.79,84.85Z" transform="translate(13.32)"/><path class="cls-6" d="M90.68,89.5h1.7a1.56,1.56,0,0,0,1.68,1.76,1.49,1.49,0,0,0,1.65-1.58c0-2.29-4.83-2.42-4.83-5.86A2.9,2.9,0,0,1,94,80.91a3,3,0,0,1,3.22,3.23h-1.7c0-1.11-.61-1.64-1.5-1.64a1.32,1.32,0,0,0-1.49,1.36c0,2.26,4.85,2.26,4.85,5.84a3.37,3.37,0,0,1-6.74-.2Z" transform="translate(13.32)"/><path class="cls-6" d="M237.76,125h1.7a1.57,1.57,0,0,0,1.68,1.77,1.48,1.48,0,0,0,1.65-1.58c0-2.3-4.83-2.43-4.83-5.86a2.91,2.91,0,0,1,3.17-2.92,3,3,0,0,1,3.21,3.24h-1.7c0-1.11-.61-1.64-1.5-1.64a1.31,1.31,0,0,0-1.48,1.35c0,2.26,4.85,2.26,4.85,5.84a3.13,3.13,0,0,1-3.37,3.19A3.16,3.16,0,0,1,237.76,125Z" transform="translate(13.32)"/><path class="cls-6" d="M252.84,120.35c0,2.42-1.29,3.75-3.55,3.75h-1.38v4.06h-1.67V116.62h3C251.55,116.62,252.84,118,252.84,120.35Zm-1.7,0c0-1.42-.61-2.15-1.86-2.15h-1.37v4.32h1.37C250.53,122.52,251.14,121.83,251.14,120.35Z" transform="translate(13.32)"/><path class="cls-6" d="M218.6,179.81l-.75,1.13v3.91H216.2V173.31h1.65v5l.75-1.35,2.31-3.66h2l-3.3,5,3.78,6.51h-1.92Z" transform="translate(13.32)"/><path class="cls-4" d="M149.13,112.17H86.83V187.3h14.72v20.9H106v17.19h61.42v-94.9A18.32,18.32,0,0,0,149.13,112.17Z" transform="translate(13.32)"/><rect class="cls-4" x="83.32" y="112.02" width="12.18" height="15.7"/><rect class="cls-7" x="106.95" y="117.31" width="15.7" height="12.18"/><rect class="cls-7" x="159.82" y="160.23" width="15.7" height="12.18"/><rect class="cls-7" x="166.33" y="178.19" width="9.19" height="8.92"/><rect class="cls-5" x="114.43" y="129.39" width="37.87" height="25.59" transform="translate(12.07 1.18) rotate(-0.51)"/><rect class="cls-4" x="148.13" y="27.92" width="49.38" height="77.34"/><rect class="cls-4" x="83.32" y="0.64" width="39.94" height="70.14"/><rect class="cls-4" x="83.32" y="74.85" width="39.94" height="24.46"/><rect class="cls-4" x="197.33" y="27.63" width="148.74" height="13.13"/><rect class="cls-4" x="201.7" y="45.29" width="59.03" height="37.26"/><rect class="cls-4" x="194.73" y="111.23" width="35.64" height="22.7"/><rect class="cls-4" x="197.16" y="165.53" width="71.48" height="27.48"/><rect class="cls-4" x="315.92" y="165.53" width="30.15" height="27.48"/><rect class="cls-4" x="180.77" y="147.63" width="25.31" height="15.52"/><rect class="cls-4" x="234.85" y="111.23" width="47.17" height="22.7"/><rect class="cls-4" x="286.52" y="111.23" width="35.01" height="22.7"/><rect class="cls-4" x="325.89" y="51.27" width="20.18" height="88.67"/><rect class="cls-4" x="234.85" y="138.29" width="16.86" height="22.7"/><rect class="cls-4" x="286.52" y="138.29" width="16.86" height="22.7"/><polygon class="cls-5" points="205.62 140.14 185.89 140.14 185.89 137.06 202.54 137.06 202.54 133.93 205.62 133.93 205.62 140.14"/><path class="cls-6" d="M143.29,100v.9h-3.13V94.29h1V100Z" transform="translate(13.32)"/><path class="cls-6" d="M147.43,98.88v.22a1.77,1.77,0,1,1-3.53,0v-.22a1.68,1.68,0,0,1,.72-1.45,1.73,1.73,0,0,1-.61-1.35v-.15a1.65,1.65,0,1,1,3.3,0v.15a1.7,1.7,0,0,1-.61,1.35A1.66,1.66,0,0,1,147.43,98.88Zm-.9,0c0-.64-.32-1-.87-1s-.86.34-.86,1v.22c0,.64.32,1,.86,1s.87-.33.87-1ZM144.9,96.1c0,.62.29,1,.76,1s.76-.33.76-1V96c0-.59-.28-.89-.76-.89s-.76.3-.76.89Z" transform="translate(13.32)"/><path class="cls-6" d="M286,36.58v.9h-3.12V30.91h.95v5.67Z" transform="translate(13.32)"/><path class="cls-6" d="M290.11,35.5v.22a1.77,1.77,0,1,1-3.53,0V35.5a1.67,1.67,0,0,1,.73-1.45,1.7,1.7,0,0,1-.61-1.35v-.15a1.65,1.65,0,1,1,3.3,0v.15a1.72,1.72,0,0,1-.62,1.35A1.65,1.65,0,0,1,290.11,35.5Zm-.9,0c0-.64-.32-1-.86-1s-.86.34-.86,1v.22c0,.64.31,1,.86,1s.86-.33.86-1Zm-1.62-2.78c0,.62.28,1,.76,1s.76-.33.76-1v-.14c0-.59-.28-.89-.76-.89s-.76.3-.76.89Z" transform="translate(13.32)"/><path class="cls-6" d="M302.25,36.58v.9h-3.12V30.91h.94v5.67Z" transform="translate(13.32)"/><path class="cls-6" d="M305.69,30.9v.63l-1.77,6H303l1.69-5.74h-2.24V30.9Z" transform="translate(13.32)"/><path class="cls-6" d="M166.53,115.71v.9H163.4V110h.95v5.67Z" transform="translate(13.32)"/><path class="cls-6" d="M168.87,110v6.54H168v-5.31l-1,.7v-1l1.22-.9Z" transform="translate(13.32)"/><path class="cls-6" d="M91.71,222.31v.9H88.59v-6.57h1v5.67Z" transform="translate(13.32)"/><path class="cls-6" d="M94.05,216.64v6.54h-.91v-5.31l-1,.7v-1l1.21-.89Z" transform="translate(13.32)"/><path class="cls-6" d="M216.1,69c1.24,0,1.92-.49,1.92-2.12v-9.7h1.66v9.7c0,2.44-1.24,3.76-3.58,3.76Z" transform="translate(13.32)"/><path class="cls-6" d="M50.42,69.75v1.74l1.32.29v1l-6.57-1.65v-1l6.57-1.66v1Zm-.88.2-1.77.41c-.43.09-1.06.2-1.41.24v0c.35.05,1,.14,1.41.25l1.77.4Z" transform="translate(13.32)"/><path class="cls-6" d="M45,67.71V66.8h6.79v.91Z" transform="translate(13.32)"/><path class="cls-6" d="M51.27,65.8a.58.58,0,1,1,.57-.57A.54.54,0,0,1,51.27,65.8Z" transform="translate(13.32)"/><path class="cls-6" d="M50.42,58.92v1.73l1.32.3v1L45.17,60.3v-1l6.57-1.66v1Zm-.88.2-1.77.41c-.43.09-1.06.2-1.41.24v0c.35.05,1,.14,1.41.24l1.77.41Z" transform="translate(13.32)"/><path class="cls-6" d="M46.76,54.33h.9a1.45,1.45,0,0,0-.11.61c0,.62.43,1,1.23,1h3v.91H46.8v-.64l.6-.11a1.38,1.38,0,0,1-.72-1.26A1.32,1.32,0,0,1,46.76,54.33Z" transform="translate(13.32)"/><path class="cls-6" d="M48.65,47.85h3.09v.9H48.67c-.82,0-1.13.24-1.13.66s.41.83,1.14.83h3.06v.9H48.67c-.82,0-1.13.25-1.13.67s.41.82,1.14.82h3.06v.9H46.8v-.65l.55-.09a1.29,1.29,0,0,1-.67-1.18,1.2,1.2,0,0,1,.75-1.16,1.3,1.3,0,0,1-.75-1.24C46.68,48.37,47.32,47.85,48.65,47.85Z" transform="translate(13.32)"/><path class="cls-6" d="M45.4,46.79a.55.55,0,0,1-.58-.57.58.58,0,1,1,1.15,0A.55.55,0,0,1,45.4,46.79Zm1.4-.12v-.91h4.94v.91Z" transform="translate(13.32)"/><path class="cls-6" d="M45.4,44.65a.55.55,0,0,1-.58-.57.58.58,0,1,1,1.15,0A.55.55,0,0,1,45.4,44.65Zm1.4-.12v-.91h4.94v.91Z" transform="translate(13.32)"/><path class="cls-6" d="M48.87,38.75l.65.43h2.22v.94H45.17v-.94H48l-.77-.43-2.09-1.31V36.33L48,38.21l3.7-2.15v1.09Z" transform="translate(13.32)"/><path class="cls-6" d="M46.76,32.9h.9a1.45,1.45,0,0,0-.11.61c0,.62.43,1,1.23,1h3v.91H46.8v-.65l.6-.1a1.41,1.41,0,0,1-.72-1.27A1.32,1.32,0,0,1,46.76,32.9Z" transform="translate(13.32)"/><path class="cls-6" d="M48.46,29h3.28v.74l-.47.07a1.19,1.19,0,0,1,.59,1.1,1.44,1.44,0,0,1-1.53,1.52c-1,0-1.52-.7-1.52-1.8v-.72h-.35c-.58,0-.91.22-.91.71a.69.69,0,0,0,.65.76v.91a1.54,1.54,0,0,1-1.52-1.68C46.68,29.52,47.32,29,48.46,29Zm1.11.91v.72c0,.56.27.88.76.88a.7.7,0,0,0,.73-.79.76.76,0,0,0-.84-.81Z" transform="translate(13.32)"/><path class="cls-6" d="M45.41,27.67a.55.55,0,0,1-.58-.58.58.58,0,0,1,1.15,0A.55.55,0,0,1,45.41,27.67Zm7.27.76c0-.63-.32-.89-.94-.89H46.8v-.9h4.9a1.64,1.64,0,0,1,1.85,1.79Z" transform="translate(13.32)"/><path class="cls-6" d="M50,25.4H48.55a1.74,1.74,0,1,1,0-3.48H50a1.74,1.74,0,1,1,0,3.48Zm0-2.56H48.55c-.69,0-1,.31-1,.83s.3.81,1,.81H50c.69,0,1-.31,1-.81S50.67,22.84,50,22.84Z" transform="translate(13.32)"/><path class="cls-6" d="M46.8,15.64l4.94,1.17v1L50,18.22a18,18,0,0,1-2,.34v0a15.8,15.8,0,0,1,2,.34l1.79.42v1L46.8,21.53v-1L49,20.14c.55-.1,1.36-.24,1.7-.28v0c-.39-.06-1.15-.19-1.74-.31l-2.08-.45v-1L49,17.64l1.74-.31v0c-.34,0-1.15-.18-1.7-.29l-2.21-.44Z" transform="translate(13.32)"/><path class="cls-6" d="M50.19,11.57a1.64,1.64,0,0,1,1.65,1.77A1.62,1.62,0,0,1,50,15H48.51a1.62,1.62,0,0,1-1.83-1.69,1.64,1.64,0,0,1,1.83-1.74h1.1v2.52H50c.67,0,1-.29,1-.78s-.24-.76-.78-.84ZM48.5,14.11h.43V12.49H48.5c-.67,0-1,.3-1,.83S47.83,14.11,48.5,14.11Z" transform="translate(13.32)"/><path class="cls-6" d="M45.41,10.43a.54.54,0,0,1-.58-.57.58.58,0,0,1,1.15,0A.54.54,0,0,1,45.41,10.43Zm7.27.76c0-.62-.32-.88-.94-.88H46.8v-.9h4.9a1.64,1.64,0,0,1,1.85,1.78Z" transform="translate(13.32)"/><path class="cls-6" d="M89.62,33.57c0,2.43-1.29,3.76-3.55,3.76H84.69v4.06H83V29.85h3C88.33,29.85,89.62,31.22,89.62,33.57Zm-1.7,0c0-1.42-.61-2.14-1.86-2.14H84.69v4.32h1.37C87.31,35.75,87.92,35.06,87.92,33.57Z" transform="translate(13.32)"/><path class="cls-6" d="M96.91,36.84V38c0,2.37-1.09,3.56-2.85,3.56s-2.84-1.15-2.91-3.12h1.62c0,1.11.48,1.57,1.29,1.57s1.23-.49,1.23-2V36.82c0-1.25-.38-1.75-1.2-1.75a1.22,1.22,0,0,0-1.27,1.11H91.25V29.85h5.3v1.43h-3.7V34a2.43,2.43,0,0,1,1.45-.46C95.85,33.56,96.91,34.73,96.91,36.84Z" transform="translate(13.32)"/><path class="cls-6" d="M89.29,85c0,2.42-1.28,3.76-3.54,3.76H84.36v4.06H82.7V81.31h3C88,81.31,89.29,82.68,89.29,85Zm-1.7,0c0-1.42-.61-2.14-1.86-2.14H84.36v4.32h1.37C87,87.22,87.59,86.52,87.59,85Z" transform="translate(13.32)"/><path class="cls-6" d="M90.48,89.69h1.7a1.56,1.56,0,0,0,1.68,1.76,1.48,1.48,0,0,0,1.65-1.58c0-2.29-4.83-2.42-4.83-5.85a2.9,2.9,0,0,1,3.17-2.92,3,3,0,0,1,3.21,3.23H95.37c0-1.1-.61-1.63-1.51-1.63a1.31,1.31,0,0,0-1.48,1.35c0,2.26,4.85,2.26,4.85,5.84a3.12,3.12,0,0,1-3.37,3.18A3.16,3.16,0,0,1,90.48,89.69Z" transform="translate(13.32)"/><path class="cls-6" d="M237.57,125.19h1.7A1.57,1.57,0,0,0,241,127a1.48,1.48,0,0,0,1.65-1.58c0-2.29-4.83-2.43-4.83-5.85a2.9,2.9,0,0,1,3.17-2.92,3,3,0,0,1,3.21,3.23h-1.7c0-1.11-.61-1.63-1.5-1.63a1.3,1.3,0,0,0-1.48,1.35c0,2.26,4.85,2.26,4.85,5.83a3.38,3.38,0,0,1-6.75-.19Z" transform="translate(13.32)"/><path class="cls-6" d="M252.65,120.54c0,2.42-1.29,3.76-3.55,3.76h-1.38v4h-1.67V116.81h3C251.36,116.81,252.65,118.18,252.65,120.54Zm-1.7,0c0-1.42-.61-2.15-1.86-2.15h-1.37v4.32h1.37C250.34,122.71,251,122,251,120.54Z" transform="translate(13.32)"/><path class="cls-6" d="M218.41,180l-.76,1.14v3.91H216V173.5h1.65v5l.76-1.36,2.31-3.66h1.94l-3.29,5,3.77,6.52h-1.91Z" transform="translate(13.32)"/><g class="cls-8"><path class="cls-9" d="M118.71,151v-.52H121a.44.44,0,0,0,.32-.11.37.37,0,0,0,.12-.29.26.26,0,0,0-.11-.25.44.44,0,0,0-.32-.1h-1.39a1.12,1.12,0,0,1-.38-.06.84.84,0,0,1-.29-.18.8.8,0,0,1-.18-.27,1,1,0,0,1-.08-.39.88.88,0,0,1,.06-.33.64.64,0,0,1,.18-.27,1,1,0,0,1,.29-.18,1.25,1.25,0,0,1,.4-.06H122v.52h-2.32a.41.41,0,0,0-.28.1.36.36,0,0,0-.1.27.33.33,0,0,0,.1.27.37.37,0,0,0,.28.1H121a1,1,0,0,1,.7.21.86.86,0,0,1,.24.66,1,1,0,0,1-.06.35.75.75,0,0,1-.18.28.77.77,0,0,1-.29.19,1.27,1.27,0,0,1-.41.06Z" transform="translate(13.32)"/><path class="cls-9" d="M144.85,151v-.52h2.3a.49.49,0,0,0,.33-.11.36.36,0,0,0,.11-.29.28.28,0,0,0-.1-.25.48.48,0,0,0-.33-.1h-1.38a1.23,1.23,0,0,1-.39-.06,1,1,0,0,1-.29-.18.8.8,0,0,1-.18-.27,1.23,1.23,0,0,1-.07-.39.88.88,0,0,1,.06-.33.64.64,0,0,1,.18-.27.84.84,0,0,1,.29-.18,1.25,1.25,0,0,1,.4-.06h2.31v.52h-2.31a.4.4,0,0,0-.28.1.36.36,0,0,0-.1.27.33.33,0,0,0,.1.27.36.36,0,0,0,.27.1h1.38a1,1,0,0,1,.7.21.86.86,0,0,1,.24.66,1,1,0,0,1-.06.35.73.73,0,0,1-.17.28,1,1,0,0,1-.29.19,1.33,1.33,0,0,1-.42.06Z" transform="translate(13.32)"/><path class="cls-9" d="M124.52,150.49a1,1,0,0,0,.38-.08.93.93,0,0,0,.3-.2,1.16,1.16,0,0,0,.2-.32,1.12,1.12,0,0,0,0-.78,1,1,0,0,0-.2-.31.79.79,0,0,0-.3-.2,1,1,0,0,0-.38-.08h-.74a.91.91,0,0,0-.37.08.88.88,0,0,0-.3.2.81.81,0,0,0-.19.31,1,1,0,0,0-.07.39,1,1,0,0,0,.07.39.94.94,0,0,0,.19.32,1,1,0,0,0,.3.2.91.91,0,0,0,.37.08Zm-.74.52a1.4,1.4,0,0,1-.58-.12,1.23,1.23,0,0,1-.46-.32,1.46,1.46,0,0,1-.31-.49,1.7,1.7,0,0,1-.11-.61,1.64,1.64,0,0,1,.11-.6,1.38,1.38,0,0,1,.31-.47,1.31,1.31,0,0,1,.46-.3,1.57,1.57,0,0,1,.58-.1h.74a1.46,1.46,0,0,1,.6.11,1.31,1.31,0,0,1,.46.3,1.43,1.43,0,0,1,.31.47,1.63,1.63,0,0,1,.1.59,1.51,1.51,0,0,1-.11.61,1.44,1.44,0,0,1-.3.49,1.27,1.27,0,0,1-.47.32,1.45,1.45,0,0,1-.59.12Z" transform="translate(13.32)"/><path class="cls-9" d="M132.05,148h.51v1.64a1.91,1.91,0,0,1-.09.61,1.06,1.06,0,0,1-.29.43,1.3,1.3,0,0,1-.5.25,3.25,3.25,0,0,1-.75.08,3.1,3.1,0,0,1-.74-.08,1.35,1.35,0,0,1-.51-.25,1,1,0,0,1-.28-.43,1.91,1.91,0,0,1-.09-.61V148h.54v1.64a1.14,1.14,0,0,0,.06.39.5.5,0,0,0,.18.27,1,1,0,0,0,.34.15,3.4,3.4,0,0,0,1,0,1.2,1.2,0,0,0,.34-.15A.64.64,0,0,0,132,150a1.14,1.14,0,0,0,.06-.39Z" transform="translate(13.32)"/></g><polygon class="cls-9" points="146.18 148 146.18 148.53 147.33 148.53 147.33 151.01 147.85 151.01 147.85 148.53 149 148.53 149 148 146.18 148"/><g class="cls-8"><path class="cls-9" d="M139.24,150.49a1,1,0,0,0,.38-.08.93.93,0,0,0,.3-.2,1,1,0,0,0,.2-.32,1.12,1.12,0,0,0,0-.78.83.83,0,0,0-.2-.31.79.79,0,0,0-.3-.2,1,1,0,0,0-.38-.08h-.73a.92.92,0,0,0-.38.08,1,1,0,0,0-.3.2,1,1,0,0,0-.19.31,1,1,0,0,0-.07.39,1,1,0,0,0,.07.39,1.13,1.13,0,0,0,.19.32,1.21,1.21,0,0,0,.3.2.92.92,0,0,0,.38.08Zm-.73.52a1.45,1.45,0,0,1-.59-.12,1.23,1.23,0,0,1-.46-.32,1.64,1.64,0,0,1-.31-.49,1.7,1.7,0,0,1-.11-.61,1.64,1.64,0,0,1,.11-.6,1.54,1.54,0,0,1,.31-.47,1.31,1.31,0,0,1,.46-.3,1.63,1.63,0,0,1,.59-.1h.73a1.46,1.46,0,0,1,.6.11,1.31,1.31,0,0,1,.46.3,1.29,1.29,0,0,1,.31.47,1.63,1.63,0,0,1,.11.59,1.7,1.7,0,0,1-.11.61,1.64,1.64,0,0,1-.31.49,1.27,1.27,0,0,1-.47.32,1.45,1.45,0,0,1-.59.12Z" transform="translate(13.32)"/></g><polygon class="cls-10" points="149.9 149.05 149.9 148 149.38 148 149.38 148.53 149.9 149.05"/><polygon class="cls-9" points="149.38 151.01 149.9 151.01 149.9 149.8 149.38 149.27 149.38 151.01"/><g class="cls-8"><path class="cls-9" d="M128.14,150.49h-.08a2.62,2.62,0,0,1-.52,0,1.2,1.2,0,0,1-.34-.15A.64.64,0,0,1,127,150a1.14,1.14,0,0,1-.06-.39V148h-.54v1.64a1.91,1.91,0,0,0,.09.61,1.06,1.06,0,0,0,.29.43,1.38,1.38,0,0,0,.5.25,3.25,3.25,0,0,0,.75.08H129v-.52Z" transform="translate(13.32)"/><path class="cls-9" d="M141.64,151h-.51v-1.64a1.91,1.91,0,0,1,.09-.61,1.06,1.06,0,0,1,.29-.43,1.3,1.3,0,0,1,.5-.25,3.25,3.25,0,0,1,.75-.08,3.1,3.1,0,0,1,.74.08,1.35,1.35,0,0,1,.51.25,1,1,0,0,1,.28.43,1.91,1.91,0,0,1,.09.61V151h-.54v-1.64a1.14,1.14,0,0,0-.06-.39.44.44,0,0,0-.18-.26.83.83,0,0,0-.34-.16,3.4,3.4,0,0,0-1,0,1,1,0,0,0-.34.16.55.55,0,0,0-.18.26,1.14,1.14,0,0,0-.06.39Z" transform="translate(13.32)"/><path class="cls-9" d="M131.32,140.63a2.93,2.93,0,0,0-1.49-1,2.65,2.65,0,0,0,1.28-.9,2.94,2.94,0,0,0,.54-1.91,3.45,3.45,0,0,0-.3-1.47,2.82,2.82,0,0,0-.86-1.07,4,4,0,0,0-1.34-.64,6.28,6.28,0,0,0-1.74-.22H118.7v2.28H127a3.61,3.61,0,0,1,1.75.35,1.35,1.35,0,0,1,.62,1.28,1.47,1.47,0,0,1-.47,1.23,2.4,2.4,0,0,1-1.45.36h-.8s2.39,2.33,2.45,2.37a1.58,1.58,0,0,1,.5,1.25,1.46,1.46,0,0,1-.68,1.31,3.28,3.28,0,0,1-1.78.43h-8.45v2.3h9a5.14,5.14,0,0,0,1.75-.29,4,4,0,0,0,1.34-.8,3.6,3.6,0,0,0,.85-1.25,4.32,4.32,0,0,0,.3-1.64,3.07,3.07,0,0,0-.58-1.92" transform="translate(13.32)"/></g><polygon class="cls-10" points="135.09 140.81 138.62 140.81 136.7 138.87 135.09 138.87 135.09 140.81"/><g class="cls-8"><path class="cls-9" d="M136.12,146.53h-2.25v-7.17a8.12,8.12,0,0,1,.4-2.65,4.39,4.39,0,0,1,1.25-1.88,5.49,5.49,0,0,1,2.2-1.1,14.94,14.94,0,0,1,6.52,0,5.49,5.49,0,0,1,2.2,1.1,4.39,4.39,0,0,1,1.25,1.88,8.12,8.12,0,0,1,.4,2.65v7.17h-2.38v-7.17a5.32,5.32,0,0,0-.24-1.7,2.51,2.51,0,0,0-.8-1.16,3.57,3.57,0,0,0-1.47-.66,12.54,12.54,0,0,0-4.57,0,3.57,3.57,0,0,0-1.47.66,2.51,2.51,0,0,0-.8,1.16,5.32,5.32,0,0,0-.24,1.7Z" transform="translate(13.32)"/></g><rect class="cls-4" x="192.54" y="195.68" width="153.16" height="22.7"/><rect class="cls-5" x="75.65" y="0.73" width="3.08" height="234.13"/><polygon class="cls-5" points="309.46 107.23 77.19 107.23 77.19 104.14 306.38 104.14 306.38 0.19 309.46 0.19 309.46 107.23"/><rect class="cls-5" x="147.13" y="0.73" width="3.08" height="104.95"/><rect class="cls-5" x="123.66" y="43.68" width="24.47" height="3.08"/><rect class="cls-5" x="148.13" y="24.52" width="197.37" height="3.08"/><rect class="cls-5" x="244.03" y="0.73" width="3.08" height="25.52"/><polygon class="cls-5" points="347.45 208.1 185.23 208.1 185.23 26.07 188.32 26.07 188.32 205.01 347.45 205.01 347.45 208.1"/><path class="cls-6" d="M133.28,101.61a10.54,10.54,0,0,0-10.45,10.63c.07,8.1,7,20.51,10.72,20.48s10.43-12.57,10.36-20.66A10.54,10.54,0,0,0,133.28,101.61Zm.15,17.78a6.28,6.28,0,1,1,6.22-6.33A6.28,6.28,0,0,1,133.43,119.39Z" transform="translate(13.32)"/><path class="cls-6" d="M13.71,133.47h1l.67,3.59c.09.48.25,1.34.3,1.75h0c.06-.41.2-1.22.3-1.79l.66-3.45h1l.66,3.45c.1.57.24,1.38.3,1.79h0c.06-.41.22-1.27.31-1.75l.67-3.59h1L19.15,140h-1l-.64-2.9a17.65,17.65,0,0,1-.31-2.11h0a17.65,17.65,0,0,1-.31,2.11L16.2,140h-1Z" transform="translate(13.32)"/><path class="cls-6" d="M20.46,141c.63,0,.88-.32.88-.94v-4.95h.9V140a1.64,1.64,0,0,1-1.78,1.85Zm.76-7.27a.55.55,0,0,1,.57-.59.58.58,0,0,1,0,1.16A.55.55,0,0,1,21.22,133.71Z" transform="translate(13.32)"/><path class="cls-6" d="M26.76,136.75V140H26l-.06-.47a1.21,1.21,0,0,1-1.1.59,1.44,1.44,0,0,1-1.52-1.53c0-1,.69-1.52,1.79-1.52h.72v-.36c0-.58-.21-.9-.71-.9a.69.69,0,0,0-.75.65h-.91A1.54,1.54,0,0,1,25.16,135C26.22,135,26.76,135.62,26.76,136.75Zm-.91,1.12h-.72c-.55,0-.87.26-.87.76a.69.69,0,0,0,.79.72.76.76,0,0,0,.8-.83Z" transform="translate(13.32)"/><path class="cls-6" d="M27.54,139.43l1.95-3.5h-1.8v-.84h2.94v.61l-1.94,3.5h2V140H27.54Z" transform="translate(13.32)"/><path class="cls-6" d="M34.82,133.25V140h-.66l-.07-.46a1.43,1.43,0,0,1-1.11.57c-.93,0-1.57-.71-1.57-1.92v-1.36c0-1.19.61-1.9,1.57-1.9a1.36,1.36,0,0,1,1,.41v-2.13Zm-.88,3.62c0-.64-.31-1-.81-1s-.8.31-.8,1v1.36c0,.73.3,1.06.8,1.06s.81-.34.81-1Z" transform="translate(13.32)"/><path class="cls-6" d="M38.32,133.47h1V140h-1Z" transform="translate(13.32)"/><path class="cls-6" d="M16.64,149.35v-2.67a1.81,1.81,0,0,1,1.92-2.05,1.82,1.82,0,0,1,1.92,2h-.94c0-.76-.38-1.09-1-1.09s-.95.35-.95,1.15v2.66c0,.8.37,1.14,1,1.14s1-.34,1-1.09v-.83h-1v-.84h2v1.67a1.82,1.82,0,0,1-1.94,2A1.83,1.83,0,0,1,16.64,149.35Z" transform="translate(13.32)"/><path class="cls-6" d="M24.78,148v3.28H24l-.06-.47a1.2,1.2,0,0,1-1.1.59,1.44,1.44,0,0,1-1.52-1.53c0-1,.69-1.52,1.79-1.52h.73V148c0-.58-.22-.91-.72-.91a.69.69,0,0,0-.75.65h-.91a1.54,1.54,0,0,1,1.68-1.53C24.23,146.23,24.78,146.88,24.78,148Zm-.91,1.11h-.73c-.55,0-.87.27-.87.76a.7.7,0,0,0,.79.73.76.76,0,0,0,.81-.84Z" transform="translate(13.32)"/><path class="cls-6" d="M28.19,150.5v.86h-.35a1.48,1.48,0,0,1-1.56-1.65v-2.53h-.7v-.82h.7v-1.18h.9v1.18h.92v.82h-.92v2.54c0,.53.22.78.71.78Z" transform="translate(13.32)"/><path class="cls-6" d="M32.46,149.75a1.73,1.73,0,1,1-3.45-.2v-1.48a1.72,1.72,0,1,1,3.43,0v1.1H29.92v.38c0,.67.29,1,.79,1s.76-.24.83-.78Zm-2.54-1.69v.43h1.62v-.43c0-.67-.3-1-.82-1S29.92,147.39,29.92,148.06Z" transform="translate(13.32)"/><path class="cls-6" d="M35.79,144.73h1v6.57h-1Z" transform="translate(13.32)"/><circle class="cls-5" cx="70.65" cy="101.25" r="5.71"/><path class="cls-6" d="M58.08,103.28h-1.5l-.26,1.16H55.16l1.57-6.39h1.2l1.57,6.39H58.33Zm-.23-1.07L57.59,101c-.09-.44-.19-1.14-.25-1.57h0c-.06.43-.16,1.13-.25,1.57l-.25,1.18Z" transform="translate(13.32)"/><polygon class="cls-5" points="76.37 115.44 73.97 112.73 73.97 100.77 76.37 98.05 76.37 115.44"/><polygon class="cls-5" points="78.28 89.36 80.67 92.07 80.67 104.03 78.28 106.75 78.28 89.36"/><rect class="cls-11" x="45.87" y="122.88" width="11.1" height="1.54" transform="translate(-59.05 72.57) rotate(-45)"/><polygon class="cls-11" points="63.63 129.11 57.69 130.7 59.28 124.76 63.63 129.11"/><polygon class="cls-11" points="70.2 122.54 71.79 116.59 65.85 118.19 70.2 122.54"/><circle class="cls-5" cx="82.08" cy="86.94" r="5.71"/><path class="cls-6" d="M69.5,89H68l-.26,1.16H66.58l1.57-6.39h1.21l1.57,6.39H69.76Zm-.22-1.07L69,86.73c-.09-.44-.19-1.14-.26-1.57h0c-.06.43-.16,1.13-.25,1.57l-.26,1.18Z" transform="translate(13.32)"/></g></svg>