<svg id="Warstwa_1" data-name="Warstwa 1" xmlns="http://www.w3.org/2000/svg" xmlns:xlink="http://www.w3.org/1999/xlink" viewBox="0 0 88.32 58.11"><defs><style>.cls-1,.cls-4{fill:none;}.cls-2{clip-path:url(#clip-path);}.cls-3{fill:#2e3192;}.cls-4{stroke:#fff;stroke-miterlimit:10;stroke-width:0.22px;}.cls-5{fill:#ed1c24;}.cls-6{fill:#00529c;}</style><clipPath id="clip-path" transform="translate(0 0)"><rect class="cls-1" width="88.32" height="58.11"/></clipPath></defs><g class="cls-2"><path class="cls-3" d="M12.86,21.29a51.26,51.26,0,0,0,14,1.84H40.14l2-2.44c-4.25,0-9.11,0-12.66-.36a4,4,0,0,1-2.53-3c-.36-1.53.32-3.55,1.91-6.25C30,8.84,31.17,7,32.23,4.94c.8-2.46-1-3.73-2.67-4.19A117.54,117.54,0,0,0,3.87.88C-2.44,2.14.45,4.25,3.41,5.18A104.73,104.73,0,0,0,18.69,8.41a95.39,95.39,0,0,0-11.9.47c-5,.75-3.85,3.26-.23,4.42l14,2.55-8.4.46c-10.85.92-2.33,4.05.71,5" transform="translate(0 0)"/><path class="cls-4" d="M12.86,21.29a51.26,51.26,0,0,0,14,1.84H40.14l2-2.44c-4.25,0-9.11,0-12.66-.36a4,4,0,0,1-2.53-3c-.36-1.53.32-3.55,1.91-6.25C30,8.84,31.17,7,32.23,4.94c.8-2.46-1-3.73-2.67-4.19A117.54,117.54,0,0,0,3.87.88C-2.44,2.14.45,4.25,3.41,5.18A104.73,104.73,0,0,0,18.69,8.41a95.39,95.39,0,0,0-11.9.47c-5,.75-3.85,3.26-.23,4.42l14,2.55-8.4.46C1.3,17.23,9.82,20.36,12.86,21.29Z" transform="translate(0 0)"/><path class="cls-3" d="M31.84,17.38H47.37l-3.9,2.28H30.27c.58-.84,1.08-1.73,1.57-2.28" transform="translate(0 0)"/><path class="cls-4" d="M31.84,17.38H47.37l-3.9,2.28H30.27C30.85,18.82,31.35,17.93,31.84,17.38Z" transform="translate(0 0)"/><path class="cls-3" d="M24,31.32l60-.06a20.45,20.45,0,0,0,3.86,2.27l-67,.08A24.76,24.76,0,0,0,24,31.32" transform="translate(0 0)"/><path class="cls-4" d="M24,31.32l60-.06a20.45,20.45,0,0,0,3.86,2.27l-67,.08A24.76,24.76,0,0,0,24,31.32Z" transform="translate(0 0)"/><path class="cls-3" d="M27,27.91,79.75,28a21.45,21.45,0,0,0,2.78,2.24l-57.41-.09a15.48,15.48,0,0,0,1.9-2.2" transform="translate(0 0)"/><path class="cls-4" d="M27,27.91,79.75,28a21.45,21.45,0,0,0,2.78,2.24l-57.41-.09A15.48,15.48,0,0,0,27,27.91Z" transform="translate(0 0)"/><path class="cls-3" d="M28.12,24.36l49.26-.06a11.07,11.07,0,0,0,1.67,2.38l-51.61,0c.22-.67.33-1.42.68-2.29" transform="translate(0 0)"/><path class="cls-4" d="M28.12,24.36l49.26-.06a11.07,11.07,0,0,0,1.67,2.38l-51.61,0C27.66,26,27.77,25.23,28.12,24.36Z" transform="translate(0 0)"/><path class="cls-3" d="M64.51,20.85l11.41-.05c.32.69.73,1.57,1.12,2.36l-10.38,0a9,9,0,0,0-2.15-2.29" transform="translate(0 0)"/><path class="cls-4" d="M64.51,20.85l11.41-.05c.32.69.73,1.57,1.12,2.36l-10.38,0A9,9,0,0,0,64.51,20.85Z" transform="translate(0 0)"/></g><polygon class="cls-3" points="29.99 45.26 42.73 45.26 46.57 47.43 31.35 47.37 29.99 45.26"/><polygon class="cls-4" points="29.99 45.26 42.73 45.26 46.57 47.43 31.35 47.37 29.99 45.26"/><g class="cls-2"><path class="cls-3" d="M27.38,38.34H38c.33,0,.72,2.19,1.24,2.19H28a9.53,9.53,0,0,1-.59-2.19" transform="translate(0 0)"/><path class="cls-4" d="M27.38,38.34H38c.33,0,.72,2.19,1.24,2.19H28A9.53,9.53,0,0,1,27.38,38.34Z" transform="translate(0 0)"/><path class="cls-3" d="M26.72,34.88H37c0,1.15.38,2.19.65,2.19H27.15Z" transform="translate(0 0)"/><path class="cls-4" d="M26.72,34.88H37c0,1.15.38,2.19.65,2.19H27.15Z" transform="translate(0 0)"/><path class="cls-3" d="M28.43,41.78H39.66L41.52,44H29.37a11.63,11.63,0,0,1-.94-2.17" transform="translate(0 0)"/><path class="cls-4" d="M28.43,41.78H39.66L41.52,44H29.37A11.63,11.63,0,0,1,28.43,41.78Z" transform="translate(0 0)"/><path class="cls-3" d="M58.88,17.34H73.54a14.78,14.78,0,0,1,1.78,2.3l-12,0a17.55,17.55,0,0,0-4.47-2.29" transform="translate(0 0)"/><path class="cls-4" d="M58.88,17.34H73.54a14.78,14.78,0,0,1,1.78,2.3l-12,0A17.55,17.55,0,0,0,58.88,17.34Z" transform="translate(0 0)"/><path class="cls-3" d="M63.71,45.22H75.42c-.5.79-.94,1.5-1.46,2.2l-13.85,0a16.81,16.81,0,0,0,3.6-2.19" transform="translate(0 0)"/><path class="cls-4" d="M63.71,45.22H75.42c-.5.79-.94,1.5-1.46,2.2l-13.85,0A16.81,16.81,0,0,0,63.71,45.22Z" transform="translate(0 0)"/><path class="cls-3" d="M76,43.94H64.87c2.46-4,11.63-3.25,11.16,0" transform="translate(0 0)"/><path class="cls-4" d="M76,43.94H64.87C67.33,39.91,76.5,40.7,76,43.94Z" transform="translate(0 0)"/><path class="cls-3" d="M34.94,13.91H70.42l2.21,2.22H32.77a28.47,28.47,0,0,1,2.17-2.21" transform="translate(0 0)"/><path class="cls-4" d="M34.94,13.91H70.42l2.21,2.22H32.77A28.47,28.47,0,0,1,34.94,13.91Z" transform="translate(0 0)"/><path class="cls-3" d="M35.53,52.07h34.3c-1,.76-2,1.55-3.06,2.19H38.5c-1-.73-2-1.43-3-2.2" transform="translate(0 0)"/><path class="cls-4" d="M35.53,52.07h34.3c-1,.76-2,1.55-3.06,2.19H38.5C37.51,53.54,36.46,52.84,35.53,52.07Z" transform="translate(0 0)"/><path class="cls-3" d="M39.76,10.35H65.62A34.52,34.52,0,0,1,69,12.64H36.34a17.47,17.47,0,0,1,3.42-2.29" transform="translate(0 0)"/><path class="cls-4" d="M39.76,10.35H65.62A34.52,34.52,0,0,1,69,12.64H36.34A17.47,17.47,0,0,1,39.76,10.35Z" transform="translate(0 0)"/><path class="cls-3" d="M32.31,48.65H73a12.5,12.5,0,0,1-1.88,2.11H34.28Z" transform="translate(0 0)"/><path class="cls-4" d="M32.31,48.65H73a12.5,12.5,0,0,1-1.88,2.11H34.28Z" transform="translate(0 0)"/><path class="cls-3" d="M63.17,9.07h-21a28.41,28.41,0,0,1,21,0" transform="translate(0 0)"/><path class="cls-4" d="M63.17,9.07h-21A28.41,28.41,0,0,1,63.17,9.07Z" transform="translate(0 0)"/><path class="cls-3" d="M40.66,55.49H64.75c-9.32,3.38-14.91,3.32-24.09,0" transform="translate(0 0)"/><path class="cls-4" d="M40.66,55.49H64.75C55.43,58.87,49.84,58.81,40.66,55.49Z" transform="translate(0 0)"/><path class="cls-5" d="M70.24,32.39V27.71A2.15,2.15,0,0,1,71,26a3.83,3.83,0,0,1,4.33,0,1.86,1.86,0,0,1,.7,1.48,1.81,1.81,0,0,1-.11.63,1.31,1.31,0,0,1-.38.51,1.81,1.81,0,0,1,.76.71,1.86,1.86,0,0,1,.25,1A2,2,0,0,1,76,31.73a2.38,2.38,0,0,1-1.74.66H73.08V30.54a1.16,1.16,0,0,0,.68-.16.38.38,0,0,0,.18-.31.37.37,0,0,0-.21-.34,1.22,1.22,0,0,0-.65-.13V28.06a.65.65,0,0,0,.41-.12.35.35,0,0,0,.15-.28.41.41,0,0,0-.13-.29.52.52,0,0,0-.36-.12c-.19,0-.31.06-.36.19a2.75,2.75,0,0,0-.06.72v4.23Zm-4.32-3.18h3.13v1.37H65.92Zm-7.29,3.18V27.71A2.15,2.15,0,0,1,59.42,26a3.29,3.29,0,0,1,2.17-.66,3.2,3.2,0,0,1,2.16.68,1.87,1.87,0,0,1,.71,1.48,1.61,1.61,0,0,1-.12.63,1.29,1.29,0,0,1-.37.51,1.84,1.84,0,0,1,.75.71,1.87,1.87,0,0,1,.26,1,2,2,0,0,1-.62,1.45,2.35,2.35,0,0,1-1.74.66H61.47V30.54a1.17,1.17,0,0,0,.69-.16.38.38,0,0,0,.18-.31.39.39,0,0,0-.21-.34,1.26,1.26,0,0,0-.66-.13V28.06a.63.63,0,0,0,.41-.12.35.35,0,0,0,.15-.28.37.37,0,0,0-.13-.29.52.52,0,0,0-.36-.12c-.19,0-.3.06-.35.19a2.26,2.26,0,0,0-.07.72v4.23Zm-11.29,0v-7h2.87a3.67,3.67,0,0,1,2.71,1.09,3.26,3.26,0,0,1,1,2.36,3.36,3.36,0,0,1-1,2.51,3.77,3.77,0,0,1-2.71,1v-2a1.15,1.15,0,0,0,.86-.4,1.61,1.61,0,0,0,.35-1.08A1.42,1.42,0,0,0,51,27.8a1.74,1.74,0,0,0-1.18-.37v5Zm-7.27,0V28a2.46,2.46,0,0,1,.8-1.83,3.1,3.1,0,0,1,2.24-.83,3.41,3.41,0,0,1,2,.62,2.44,2.44,0,0,1,1,2.1v4.36H43.69V30.26h-.75V28.49h.75v-.66a.46.46,0,0,0-.16-.38.59.59,0,0,0-.42-.14.55.55,0,0,0-.39.14.5.5,0,0,0-.16.38v4.56Zm-3.55-7H39v7H36.52Zm-3.64,2H30.36v-2h3.69a2.11,2.11,0,0,1,1.42.41,1.12,1.12,0,0,1,.4.89,1.29,1.29,0,0,1-.33.93L33,30.4h2.84v2H31.65A1.9,1.9,0,0,1,30.32,32,1.2,1.2,0,0,1,29.9,31a1.33,1.33,0,0,1,.08-.45,1.47,1.47,0,0,1,.25-.38Z" transform="translate(0 0)"/><path class="cls-4" d="M70.24,32.39V27.71A2.15,2.15,0,0,1,71,26a3.83,3.83,0,0,1,4.33,0,1.86,1.86,0,0,1,.7,1.48,1.81,1.81,0,0,1-.11.63,1.31,1.31,0,0,1-.38.51,1.81,1.81,0,0,1,.76.71,1.86,1.86,0,0,1,.25,1A2,2,0,0,1,76,31.73a2.38,2.38,0,0,1-1.74.66H73.08V30.54a1.16,1.16,0,0,0,.68-.16.38.38,0,0,0,.18-.31.37.37,0,0,0-.21-.34,1.22,1.22,0,0,0-.65-.13V28.06a.65.65,0,0,0,.41-.12.35.35,0,0,0,.15-.28.41.41,0,0,0-.13-.29.52.52,0,0,0-.36-.12c-.19,0-.31.06-.36.19a2.75,2.75,0,0,0-.06.72v4.23Zm-4.32-3.18h3.13v1.37H65.92Zm-7.29,3.18V27.71A2.15,2.15,0,0,1,59.42,26a3.29,3.29,0,0,1,2.17-.66,3.2,3.2,0,0,1,2.16.68,1.87,1.87,0,0,1,.71,1.48,1.61,1.61,0,0,1-.12.63,1.29,1.29,0,0,1-.37.51,1.84,1.84,0,0,1,.75.71,1.87,1.87,0,0,1,.26,1,2,2,0,0,1-.62,1.45,2.35,2.35,0,0,1-1.74.66H61.47V30.54a1.17,1.17,0,0,0,.69-.16.38.38,0,0,0,.18-.31.39.39,0,0,0-.21-.34,1.26,1.26,0,0,0-.66-.13V28.06a.63.63,0,0,0,.41-.12.35.35,0,0,0,.15-.28.37.37,0,0,0-.13-.29.52.52,0,0,0-.36-.12c-.19,0-.3.06-.35.19a2.26,2.26,0,0,0-.07.72v4.23Zm-11.29,0v-7h2.87a3.67,3.67,0,0,1,2.71,1.09,3.26,3.26,0,0,1,1,2.36,3.36,3.36,0,0,1-1,2.51,3.77,3.77,0,0,1-2.71,1v-2a1.15,1.15,0,0,0,.86-.4,1.61,1.61,0,0,0,.35-1.08A1.42,1.42,0,0,0,51,27.8a1.74,1.74,0,0,0-1.18-.37v5Zm-7.27,0V28a2.46,2.46,0,0,1,.8-1.83,3.1,3.1,0,0,1,2.24-.83,3.41,3.41,0,0,1,2,.62,2.44,2.44,0,0,1,1,2.1v4.36H43.69V30.26h-.75V28.49h.75v-.66a.46.46,0,0,0-.16-.38.59.59,0,0,0-.42-.14.55.55,0,0,0-.39.14.5.5,0,0,0-.16.38v4.56Zm-3.55-7H39v7H36.52Zm-3.64,2H30.36v-2h3.69a2.11,2.11,0,0,1,1.42.41,1.12,1.12,0,0,1,.4.89,1.29,1.29,0,0,1-.33.93L33,30.4h2.84v2H31.65A1.9,1.9,0,0,1,30.32,32,1.2,1.2,0,0,1,29.9,31a1.33,1.33,0,0,1,.08-.45,1.47,1.47,0,0,1,.25-.38Z" transform="translate(0 0)"/><path class="cls-6" d="M12.86,21.29a51.26,51.26,0,0,0,14,1.84H40.14l2-2.44c-4.25,0-9.11,0-12.66-.36a4,4,0,0,1-2.53-3c-.36-1.53.32-3.55,1.91-6.25C30,8.84,31.17,7,32.23,4.94c.8-2.46-1-3.73-2.67-4.19A117.54,117.54,0,0,0,3.87.88C-2.44,2.14.45,4.25,3.41,5.18A104.73,104.73,0,0,0,18.69,8.41a95.39,95.39,0,0,0-11.9.47c-5,.75-3.85,3.26-.23,4.42l14,2.55-8.4.46c-10.85.92-2.33,4.05.71,5" transform="translate(0 0)"/><path class="cls-4" d="M12.86,21.29a51.26,51.26,0,0,0,14,1.84H40.14l2-2.44c-4.25,0-9.11,0-12.66-.36a4,4,0,0,1-2.53-3c-.36-1.53.32-3.55,1.91-6.25C30,8.84,31.17,7,32.23,4.94c.8-2.46-1-3.73-2.67-4.19A117.54,117.54,0,0,0,3.87.88C-2.44,2.14.45,4.25,3.41,5.18A104.73,104.73,0,0,0,18.69,8.41a95.39,95.39,0,0,0-11.9.47c-5,.75-3.85,3.26-.23,4.42l14,2.55-8.4.46C1.3,17.23,9.82,20.36,12.86,21.29Z" transform="translate(0 0)"/><path class="cls-6" d="M31.84,17.38H47.37l-3.9,2.28H30.27c.58-.84,1.08-1.73,1.57-2.28" transform="translate(0 0)"/><path class="cls-4" d="M31.84,17.38H47.37l-3.9,2.28H30.27C30.85,18.82,31.35,17.93,31.84,17.38Z" transform="translate(0 0)"/><path class="cls-6" d="M24,31.32l60-.06a20.45,20.45,0,0,0,3.86,2.27l-67,.08A24.76,24.76,0,0,0,24,31.32" transform="translate(0 0)"/><path class="cls-4" d="M24,31.32l60-.06a20.45,20.45,0,0,0,3.86,2.27l-67,.08A24.76,24.76,0,0,0,24,31.32Z" transform="translate(0 0)"/><path class="cls-6" d="M27,27.91,79.75,28a21.45,21.45,0,0,0,2.78,2.24l-57.41-.09a15.48,15.48,0,0,0,1.9-2.2" transform="translate(0 0)"/><path class="cls-4" d="M27,27.91,79.75,28a21.45,21.45,0,0,0,2.78,2.24l-57.41-.09A15.48,15.48,0,0,0,27,27.91Z" transform="translate(0 0)"/><path class="cls-6" d="M28.12,24.36l49.26-.06a11.07,11.07,0,0,0,1.67,2.38l-51.61,0c.22-.67.33-1.42.68-2.29" transform="translate(0 0)"/><path class="cls-4" d="M28.12,24.36l49.26-.06a11.07,11.07,0,0,0,1.67,2.38l-51.61,0C27.66,26,27.77,25.23,28.12,24.36Z" transform="translate(0 0)"/><path class="cls-6" d="M64.51,20.85l11.41-.05c.32.69.73,1.57,1.12,2.36l-10.38,0a9,9,0,0,0-2.15-2.29" transform="translate(0 0)"/><path class="cls-4" d="M64.51,20.85l11.41-.05c.32.69.73,1.57,1.12,2.36l-10.38,0A9,9,0,0,0,64.51,20.85Z" transform="translate(0 0)"/></g><polygon class="cls-6" points="29.99 45.26 42.73 45.26 46.57 47.43 31.35 47.37 29.99 45.26"/><polygon class="cls-4" points="29.99 45.26 42.73 45.26 46.57 47.43 31.35 47.37 29.99 45.26"/><g class="cls-2"><path class="cls-6" d="M27.38,38.34H38c.33,0,.72,2.19,1.24,2.19H28a9.53,9.53,0,0,1-.59-2.19" transform="translate(0 0)"/><path class="cls-4" d="M27.38,38.34H38c.33,0,.72,2.19,1.24,2.19H28A9.53,9.53,0,0,1,27.38,38.34Z" transform="translate(0 0)"/><path class="cls-6" d="M26.72,34.88H37c0,1.15.38,2.19.65,2.19H27.15Z" transform="translate(0 0)"/><path class="cls-4" d="M26.72,34.88H37c0,1.15.38,2.19.65,2.19H27.15Z" transform="translate(0 0)"/><path class="cls-6" d="M28.43,41.78H39.66L41.52,44H29.37a11.63,11.63,0,0,1-.94-2.17" transform="translate(0 0)"/><path class="cls-4" d="M28.43,41.78H39.66L41.52,44H29.37A11.63,11.63,0,0,1,28.43,41.78Z" transform="translate(0 0)"/><path class="cls-6" d="M58.88,17.34H73.54a14.78,14.78,0,0,1,1.78,2.3l-12,0a17.55,17.55,0,0,0-4.47-2.29" transform="translate(0 0)"/><path class="cls-4" d="M58.88,17.34H73.54a14.78,14.78,0,0,1,1.78,2.3l-12,0A17.55,17.55,0,0,0,58.88,17.34Z" transform="translate(0 0)"/><path class="cls-6" d="M63.71,45.22H75.42c-.5.79-.94,1.5-1.46,2.2l-13.85,0a16.81,16.81,0,0,0,3.6-2.19" transform="translate(0 0)"/><path class="cls-4" d="M63.71,45.22H75.42c-.5.79-.94,1.5-1.46,2.2l-13.85,0A16.81,16.81,0,0,0,63.71,45.22Z" transform="translate(0 0)"/><path class="cls-6" d="M76,43.94H64.87c2.46-4,11.63-3.25,11.16,0" transform="translate(0 0)"/><path class="cls-4" d="M76,43.94H64.87C67.33,39.91,76.5,40.7,76,43.94Z" transform="translate(0 0)"/><path class="cls-6" d="M34.94,13.91H70.42l2.21,2.22H32.77a28.47,28.47,0,0,1,2.17-2.21" transform="translate(0 0)"/><path class="cls-4" d="M34.94,13.91H70.42l2.21,2.22H32.77A28.47,28.47,0,0,1,34.94,13.91Z" transform="translate(0 0)"/><path class="cls-6" d="M35.53,52.07h34.3c-1,.76-2,1.55-3.06,2.19H38.5c-1-.73-2-1.43-3-2.2" transform="translate(0 0)"/><path class="cls-4" d="M35.53,52.07h34.3c-1,.76-2,1.55-3.06,2.19H38.5C37.51,53.54,36.46,52.84,35.53,52.07Z" transform="translate(0 0)"/><path class="cls-6" d="M39.76,10.35H65.62A34.52,34.52,0,0,1,69,12.64H36.34a17.47,17.47,0,0,1,3.42-2.29" transform="translate(0 0)"/><path class="cls-4" d="M39.76,10.35H65.62A34.52,34.52,0,0,1,69,12.64H36.34A17.47,17.47,0,0,1,39.76,10.35Z" transform="translate(0 0)"/><path class="cls-6" d="M32.31,48.65H73a12.5,12.5,0,0,1-1.88,2.11H34.28Z" transform="translate(0 0)"/><path class="cls-4" d="M32.31,48.65H73a12.5,12.5,0,0,1-1.88,2.11H34.28Z" transform="translate(0 0)"/><path class="cls-6" d="M63.17,9.07h-21a28.41,28.41,0,0,1,21,0" transform="translate(0 0)"/><path class="cls-4" d="M63.17,9.07h-21A28.41,28.41,0,0,1,63.17,9.07Z" transform="translate(0 0)"/><path class="cls-6" d="M40.66,55.49H64.75c-9.32,3.38-14.91,3.32-24.09,0" transform="translate(0 0)"/><path class="cls-4" d="M40.66,55.49H64.75C55.43,58.87,49.84,58.81,40.66,55.49Z" transform="translate(0 0)"/><path class="cls-5" d="M70.24,32.39V27.71A2.15,2.15,0,0,1,71,26a3.83,3.83,0,0,1,4.33,0,1.86,1.86,0,0,1,.7,1.48,1.81,1.81,0,0,1-.11.63,1.31,1.31,0,0,1-.38.51,1.81,1.81,0,0,1,.76.71,1.86,1.86,0,0,1,.25,1A2,2,0,0,1,76,31.73a2.38,2.38,0,0,1-1.74.66H73.08V30.54a1.16,1.16,0,0,0,.68-.16.38.38,0,0,0,.18-.31.37.37,0,0,0-.21-.34,1.22,1.22,0,0,0-.65-.13V28.06a.65.65,0,0,0,.41-.12.35.35,0,0,0,.15-.28.41.41,0,0,0-.13-.29.52.52,0,0,0-.36-.12c-.19,0-.31.06-.36.19a2.75,2.75,0,0,0-.06.72v4.23Zm-4.32-3.18h3.13v1.37H65.92Zm-7.29,3.18V27.71A2.15,2.15,0,0,1,59.42,26a3.29,3.29,0,0,1,2.17-.66,3.2,3.2,0,0,1,2.16.68,1.87,1.87,0,0,1,.71,1.48,1.61,1.61,0,0,1-.12.63,1.29,1.29,0,0,1-.37.51,1.84,1.84,0,0,1,.75.71,1.87,1.87,0,0,1,.26,1,2,2,0,0,1-.62,1.45,2.35,2.35,0,0,1-1.74.66H61.47V30.54a1.17,1.17,0,0,0,.69-.16.38.38,0,0,0,.18-.31.39.39,0,0,0-.21-.34,1.26,1.26,0,0,0-.66-.13V28.06a.63.63,0,0,0,.41-.12.35.35,0,0,0,.15-.28.37.37,0,0,0-.13-.29.52.52,0,0,0-.36-.12c-.19,0-.3.06-.35.19a2.26,2.26,0,0,0-.07.72v4.23Zm-11.29,0v-7h2.87a3.67,3.67,0,0,1,2.71,1.09,3.26,3.26,0,0,1,1,2.36,3.36,3.36,0,0,1-1,2.51,3.77,3.77,0,0,1-2.71,1v-2a1.15,1.15,0,0,0,.86-.4,1.61,1.61,0,0,0,.35-1.08A1.42,1.42,0,0,0,51,27.8a1.74,1.74,0,0,0-1.18-.37v5Zm-7.27,0V28a2.46,2.46,0,0,1,.8-1.83,3.1,3.1,0,0,1,2.24-.83,3.41,3.41,0,0,1,2,.62,2.44,2.44,0,0,1,1,2.1v4.36H43.69V30.26h-.75V28.49h.75v-.66a.46.46,0,0,0-.16-.38.59.59,0,0,0-.42-.14.55.55,0,0,0-.39.14.5.5,0,0,0-.16.38v4.56Zm-3.55-7H39v7H36.52Zm-3.64,2H30.36v-2h3.69a2.11,2.11,0,0,1,1.42.41,1.12,1.12,0,0,1,.4.89,1.29,1.29,0,0,1-.33.93L33,30.4h2.84v2H31.65A1.9,1.9,0,0,1,30.32,32,1.2,1.2,0,0,1,29.9,31a1.33,1.33,0,0,1,.08-.45,1.47,1.47,0,0,1,.25-.38Z" transform="translate(0 0)"/><path class="cls-4" d="M70.24,32.39V27.71A2.15,2.15,0,0,1,71,26a3.83,3.83,0,0,1,4.33,0,1.86,1.86,0,0,1,.7,1.48,1.81,1.81,0,0,1-.11.63,1.31,1.31,0,0,1-.38.51,1.81,1.81,0,0,1,.76.71,1.86,1.86,0,0,1,.25,1A2,2,0,0,1,76,31.73a2.38,2.38,0,0,1-1.74.66H73.08V30.54a1.16,1.16,0,0,0,.68-.16.38.38,0,0,0,.18-.31.37.37,0,0,0-.21-.34,1.22,1.22,0,0,0-.65-.13V28.06a.65.65,0,0,0,.41-.12.35.35,0,0,0,.15-.28.41.41,0,0,0-.13-.29.52.52,0,0,0-.36-.12c-.19,0-.31.06-.36.19a2.75,2.75,0,0,0-.06.72v4.23Zm-4.32-3.18h3.13v1.37H65.92Zm-7.29,3.18V27.71A2.15,2.15,0,0,1,59.42,26a3.29,3.29,0,0,1,2.17-.66,3.2,3.2,0,0,1,2.16.68,1.87,1.87,0,0,1,.71,1.48,1.61,1.61,0,0,1-.12.63,1.29,1.29,0,0,1-.37.51,1.84,1.84,0,0,1,.75.71,1.87,1.87,0,0,1,.26,1,2,2,0,0,1-.62,1.45,2.35,2.35,0,0,1-1.74.66H61.47V30.54a1.17,1.17,0,0,0,.69-.16.38.38,0,0,0,.18-.31.39.39,0,0,0-.21-.34,1.26,1.26,0,0,0-.66-.13V28.06a.63.63,0,0,0,.41-.12.35.35,0,0,0,.15-.28.37.37,0,0,0-.13-.29.52.52,0,0,0-.36-.12c-.19,0-.3.06-.35.19a2.26,2.26,0,0,0-.07.72v4.23Zm-11.29,0v-7h2.87a3.67,3.67,0,0,1,2.71,1.09,3.26,3.26,0,0,1,1,2.36,3.36,3.36,0,0,1-1,2.51,3.77,3.77,0,0,1-2.71,1v-2a1.15,1.15,0,0,0,.86-.4,1.61,1.61,0,0,0,.35-1.08A1.42,1.42,0,0,0,51,27.8a1.74,1.74,0,0,0-1.18-.37v5Zm-7.27,0V28a2.46,2.46,0,0,1,.8-1.83,3.1,3.1,0,0,1,2.24-.83,3.41,3.41,0,0,1,2,.62,2.44,2.44,0,0,1,1,2.1v4.36H43.69V30.26h-.75V28.49h.75v-.66a.46.46,0,0,0-.16-.38.59.59,0,0,0-.42-.14.55.55,0,0,0-.39.14.5.5,0,0,0-.16.38v4.56Zm-3.55-7H39v7H36.52Zm-3.64,2H30.36v-2h3.69a2.11,2.11,0,0,1,1.42.41,1.12,1.12,0,0,1,.4.89,1.29,1.29,0,0,1-.33.93L33,30.4h2.84v2H31.65A1.9,1.9,0,0,1,30.32,32,1.2,1.2,0,0,1,29.9,31a1.33,1.33,0,0,1,.08-.45,1.47,1.47,0,0,1,.25-.38Z" transform="translate(0 0)"/></g></svg>